<?xml version="1.0"?>
<svg xmlns="http://www.w3.org/2000/svg" height="512px" viewBox="0 0 60 52" width="512px"><g><g id="Page-1" fill="none" fill-rule="evenodd"><g id="040---sync-error" fill="rgb(0,0,0)" fill-rule="nonzero"><path id="Shape" d="m45.256 39c.6270814-.0081618 1.2026217-.3488301 1.5114588-.8946482s.3044738-1.2146098-.0114588-1.7563518l-15.256-26.474c-.307485-.54093811-.8817773-.87508246-1.504-.87508246s-1.196515.33414435-1.504.87508246l-15.252 26.474c-.3162682.5423561-.3202441 1.2119832-.0104386 1.7580566.3098055.5460735.8866409.8861872 1.5144386.8929434zm-17.256-21c0-.5522847.4477153-1 1-1h2c.5522847 0 1 .4477153 1 1v8c0 .5522847-.4477153 1-1 1h-2c-.5522847 0-1-.4477153-1-1zm0 16v-2c0-.5522847.4477153-1 1-1h2c.5522847 0 1 .4477153 1 1v2c0 .5522847-.4477153 1-1 1h-2c-.5522847 0-1-.4477153-1-1z" data-original="#000000" class="active-path" data-old_color="#000000" fill="#E91E1E"/><path id="Shape" d="m8.219 22.375-2.2 2.746c.4856283-12.8972935 11.074575-23.10650239 23.981-23.121.5522847 0 1-.44771525 1-1s-.4477153-1-1-1c-14.0296466.01783433-25.52026858 11.1528437-25.979 25.175l-2.24-2.8c-.22329099-.2790244-.57847814-.4177293-.93176588-.3638658-.35328773.0538634-.65100325.2921121-.781.625-.12999674.3328878-.07252511.7098414.15076588.9888658l4 5c.18976835.2373126.47714263.375469.781.375469s.59123165-.1381564.781-.375469l4-5c.223291-.2790244.2807626-.655978.15076589-.9888658-.12999675-.3328879-.42771227-.5711366-.78100001-.6250001-.35328774-.0538634-.70847489.0848415-.93176588.3638659z" data-original="#000000" class="active-path" data-old_color="#000000" fill="#E91E1E"/><path id="Shape" d="m59.781 28.375-4-5c-.1967485-.2257433-.4815505-.3553128-.781-.3553128s-.5842515.1295695-.781.3553128l-4 5c-.345178.4313344-.2753344 1.060822.156 1.406s1.060822.2753344 1.406-.156l2.2-2.746c-.4856283 12.8972935-11.074575 23.1065024-23.981 23.121-.5522847 0-1 .4477153-1 1s.4477153 1 1 1c14.0296466-.0178343 25.5202686-11.1528437 25.979-25.175l2.24 2.8c.345178.4313344.9746656.501178 1.406.156s.501178-.9746656.156-1.406z" data-original="#000000" class="active-path" data-old_color="#000000" fill="#E91E1E"/></g></g></g> </svg>
