<svg width="79" height="79" viewBox="0 0 79 79" fill="none" xmlns="http://www.w3.org/2000/svg">
<path opacity="0.5" d="M42.7491 39.7304C42.7491 39.7304 43.3681 38.267 42.7359 36.5148C42.1322 34.8345 41.37 34.0348 38.1786 35.3649L37.1677 32.8112L35.7466 33.3738L36.7576 35.9274L35.6685 36.3586L34.6575 33.8049L33.1832 34.3886L34.1485 36.8269L31.3918 38.0517L32.0487 39.7109L33.3237 39.2062C33.3237 39.2062 33.8985 38.9118 34.2451 39.9428C34.592 40.9738 36.8782 46.594 36.8782 46.594C36.8782 46.594 37.1199 47.0491 36.6514 47.3014C36.1828 47.5537 35.2701 47.8482 35.2701 47.8482L35.9726 49.6228L38.8812 48.4713L39.915 51.0828L41.3362 50.5201L40.3481 48.0241L41.4372 47.5929L42.4254 50.089L43.7403 49.5684L42.7293 47.0148C42.7293 47.0148 46.7063 45.5738 46.109 42.9397C45.5004 40.2768 44.3222 39.2413 42.7491 39.7304ZM36.2647 38.1753C36.2647 38.1753 39.4249 36.1066 40.3994 38.2575C41.3737 40.4085 37.4414 41.1475 37.4414 41.1475L36.2647 38.1753ZM42.8911 42.6115C43.9706 45.3384 39.4576 46.2405 39.4576 46.2405L38.1382 42.9077C42.4486 40.7174 42.8911 42.6115 42.8911 42.6115Z" fill="white" fill-opacity="0.4"/>
<path opacity="0.5" d="M50.3442 36.1989L49.8344 35.7365L59.6432 26.0646L60.1679 26.5212L50.3442 36.1989Z" fill="white" fill-opacity="0.4"/>
<path opacity="0.5" d="M47.3914 63.1802L27.1588 46.3764L27.1224 46.2843C26.8672 45.6398 25.6647 34.5966 25.42 32.3861L25.3904 32.0961L42.3306 25.3898L50.106 36.4224L47.3914 63.1802ZM27.7844 45.9336L46.7994 61.7283L49.3329 36.6219L42.065 26.3114L26.1707 32.6036C26.7253 37.6202 27.555 44.9239 27.7844 45.9336Z" fill="white" fill-opacity="0.4"/>
<path opacity="0.5" d="M47.3706 63.1884L12.5232 44.7244L16.0411 31.6027L22.1238 24.7852L39.9827 17.7152L48.4621 18.7857L59.9731 26.0292L47.3706 63.1884ZM13.4077 44.3387L46.9368 62.0926L59.058 26.3379L48.2189 19.5247L40.0905 18.5116L22.5754 25.4455L16.7305 31.9904L13.4077 44.3387Z" fill="white" fill-opacity="0.4"/>
<path opacity="0.5" d="M25.8103 33.0053L16.1856 32.2417L16.2039 31.4307L25.8374 32.1716L25.8103 33.0053Z" fill="white" fill-opacity="0.4"/>
<path opacity="0.5" d="M42.2462 26.4986L41.6495 25.9282L48.1325 18.7908L48.7293 19.3612L42.2462 26.4986Z" fill="white" fill-opacity="0.4"/>
<path opacity="0.5" d="M26.8572 46.5725L12.7529 45.3044L12.8342 44.5954L26.9535 45.8576L26.8572 46.5725Z" fill="white" fill-opacity="0.4"/>
</svg>
