<svg width="79" height="79" viewBox="0 0 79 79" fill="none" xmlns="http://www.w3.org/2000/svg">
<path opacity="0.5" d="M43.6982 39.174C43.6982 39.174 45.1247 35.8017 43.6678 31.7637C42.2765 27.8916 40.5202 26.0489 33.1658 29.1139L30.8362 23.2291L27.5615 24.5255L29.8911 30.4102L27.3814 31.4038L25.0517 25.5191L21.6542 26.8641L23.8787 32.483L17.5261 35.3053L19.0398 39.129L21.978 37.9658C21.978 37.9658 23.3025 37.2875 24.1013 39.6633C24.9006 42.0391 30.1692 54.9906 30.1692 54.9906C30.1692 54.9906 30.726 56.0394 29.6464 56.6207C28.5665 57.2021 26.4633 57.8808 26.4633 57.8808L28.0822 61.9702L34.7849 59.3168L37.1673 65.3346L40.4423 64.0381L38.1652 58.286L40.675 57.2925L42.9521 63.0445L45.9822 61.8449L43.6525 55.9602C43.6525 55.9602 52.8173 52.6395 51.4408 46.5696C50.0382 40.433 47.3232 38.0467 43.6982 39.174ZM28.7554 35.5902C28.7554 35.5902 36.0378 30.8231 38.2833 35.7798C40.5286 40.7366 31.4669 42.4395 31.4669 42.4395L28.7554 35.5902ZM44.0253 45.8132C46.513 52.0971 36.1131 54.1759 36.1131 54.1759L33.0727 46.4958C43.0056 41.4483 44.0253 45.8132 44.0253 45.8132Z" fill="white" fill-opacity="0.4"/>
</svg>
