<svg width="35" height="35" viewBox="0 0 35 35" fill="none" xmlns="http://www.w3.org/2000/svg">
<path opacity="0.1" d="M17.5 0C7.9 0 0 7.9 0 17.5C0 27.1 7.9 35 17.5 35C27.1 35 35 27.1 35 17.5C35 7.9 27.1 0 17.5 0ZM28.6 26.9C27.6 24.6 25.4 23.6 23.2 22.8C22.2 22.5 21.6 21.5 21.4 20.6C23.3 19.4 24.8 17.1 24.8 14.5V13C24.8 8.9 21.6 5.7 17.5 5.7C13.4 5.7 10.2 8.9 10.2 13V14.5C10.2 17.1 11.7 19.4 13.7 20.8C13.4 21.7 13 22.5 12 23C9.8 23.7 7.6 24.7 6.6 27.1C4.3 24.5 3 21.1 3 17.5C3 9.5 9.6 3 17.6 3C25.6 3 32.2 9.5 32.2 17.5C32.1 21.1 30.8 24.4 28.6 26.9Z" fill="black"/>
<path d="M32 27C29.5 32 23 35 17.5 35C11.5 35 6 32 3 27C3 27 7.33502 27 17 27C26.665 27 31.7791 27.5 32 27Z" fill="#6B71D6"/>
<path d="M10.1738 30.4434H9.28027L9.07959 31H8.78955L9.604 28.8672H9.8501L10.666 31H10.3774L10.1738 30.4434ZM9.36523 30.2119H10.0903L9.72705 29.2144L9.36523 30.2119ZM10.9531 31V28.8672H11.5552C11.7407 28.8672 11.9048 28.9082 12.0474 28.9902C12.1899 29.0723 12.2998 29.189 12.377 29.3403C12.4551 29.4917 12.4946 29.6655 12.4956 29.8618V29.998C12.4956 30.1992 12.4565 30.3755 12.3784 30.5269C12.3013 30.6782 12.1904 30.7944 12.0459 30.8755C11.9023 30.9565 11.7349 30.998 11.5435 31H10.9531ZM11.2344 29.0986V30.77H11.5303C11.7471 30.77 11.9155 30.7026 12.0356 30.5679C12.1567 30.4331 12.2173 30.2412 12.2173 29.9922V29.8677C12.2173 29.6255 12.1602 29.4375 12.0459 29.3037C11.9326 29.1689 11.7715 29.1006 11.5625 29.0986H11.2344ZM12.9219 31V28.8672H13.5239C13.7095 28.8672 13.8735 28.9082 14.0161 28.9902C14.1587 29.0723 14.2686 29.189 14.3457 29.3403C14.4238 29.4917 14.4634 29.6655 14.4644 29.8618V29.998C14.4644 30.1992 14.4253 30.3755 14.3472 30.5269C14.27 30.6782 14.1592 30.7944 14.0146 30.8755C13.8711 30.9565 13.7036 30.998 13.5122 31H12.9219ZM13.2031 29.0986V30.77H13.499C13.7158 30.77 13.8843 30.7026 14.0044 30.5679C14.1255 30.4331 14.186 30.2412 14.186 29.9922V29.8677C14.186 29.6255 14.1289 29.4375 14.0146 29.3037C13.9014 29.1689 13.7402 29.1006 13.5312 29.0986H13.2031ZM15.916 30.165V31H15.6348V28.8672H16.4214C16.6548 28.8672 16.8374 28.9268 16.9692 29.0459C17.1021 29.165 17.1685 29.3228 17.1685 29.519C17.1685 29.7261 17.1035 29.8857 16.9736 29.998C16.8447 30.1094 16.6597 30.165 16.4185 30.165H15.916ZM15.916 29.9351H16.4214C16.5718 29.9351 16.687 29.8999 16.7671 29.8296C16.8472 29.7583 16.8872 29.6558 16.8872 29.522C16.8872 29.395 16.8472 29.2935 16.7671 29.2173C16.687 29.1411 16.5771 29.1016 16.4375 29.0986H15.916V29.9351ZM19.1665 31H18.8838V30.0142H17.8086V31H17.5273V28.8672H17.8086V29.7842H18.8838V28.8672H19.1665V31ZM21.3066 30.0024C21.3066 30.2114 21.2715 30.394 21.2012 30.5503C21.1309 30.7056 21.0312 30.8242 20.9023 30.9062C20.7734 30.9883 20.623 31.0293 20.4512 31.0293C20.2832 31.0293 20.1343 30.9883 20.0044 30.9062C19.8745 30.8232 19.7734 30.7056 19.7012 30.5532C19.6299 30.3999 19.5933 30.2227 19.5913 30.0215V29.8677C19.5913 29.6626 19.627 29.4814 19.6982 29.3242C19.7695 29.167 19.8701 29.0469 20 28.9639C20.1309 28.8799 20.2803 28.8379 20.4482 28.8379C20.6191 28.8379 20.7695 28.8794 20.8994 28.9624C21.0303 29.0444 21.1309 29.1641 21.2012 29.3213C21.2715 29.4775 21.3066 29.6597 21.3066 29.8677V30.0024ZM21.0269 29.8647C21.0269 29.6118 20.9761 29.418 20.8745 29.2832C20.7729 29.1475 20.6309 29.0796 20.4482 29.0796C20.2705 29.0796 20.1304 29.1475 20.0278 29.2832C19.9263 29.418 19.874 29.6055 19.8711 29.8457V30.0024C19.8711 30.2476 19.9224 30.4404 20.0249 30.5811C20.1284 30.7207 20.2705 30.7905 20.4512 30.7905C20.6328 30.7905 20.7734 30.7246 20.873 30.5928C20.9727 30.46 21.0239 30.27 21.0269 30.0229V29.8647ZM23.1611 29.0986H22.4756V31H22.1958V29.0986H21.5117V28.8672H23.1611V29.0986ZM25.0771 30.0024C25.0771 30.2114 25.042 30.394 24.9717 30.5503C24.9014 30.7056 24.8018 30.8242 24.6729 30.9062C24.5439 30.9883 24.3936 31.0293 24.2217 31.0293C24.0537 31.0293 23.9048 30.9883 23.7749 30.9062C23.645 30.8232 23.5439 30.7056 23.4717 30.5532C23.4004 30.3999 23.3638 30.2227 23.3618 30.0215V29.8677C23.3618 29.6626 23.3975 29.4814 23.4688 29.3242C23.54 29.167 23.6406 29.0469 23.7705 28.9639C23.9014 28.8799 24.0508 28.8379 24.2188 28.8379C24.3896 28.8379 24.54 28.8794 24.6699 28.9624C24.8008 29.0444 24.9014 29.1641 24.9717 29.3213C25.042 29.4775 25.0771 29.6597 25.0771 29.8677V30.0024ZM24.7974 29.8647C24.7974 29.6118 24.7466 29.418 24.645 29.2832C24.5435 29.1475 24.4014 29.0796 24.2188 29.0796C24.041 29.0796 23.9009 29.1475 23.7983 29.2832C23.6968 29.418 23.6445 29.6055 23.6416 29.8457V30.0024C23.6416 30.2476 23.6929 30.4404 23.7954 30.5811C23.8989 30.7207 24.041 30.7905 24.2217 30.7905C24.4033 30.7905 24.5439 30.7246 24.6436 30.5928C24.7432 30.46 24.7944 30.27 24.7974 30.0229V29.8647Z" fill="black"/>
</svg>
