<svg xmlns="http://www.w3.org/2000/svg" width="192" height="192" viewBox="0 0 192 192">
  <g id="Group_20" data-name="Group 20" transform="translate(1 1)">
    <path id="Path_42" data-name="Path 42" d="M51.8,30.152,23.044,5.5,2.5,38.37,35.37,153.413h49.3Z" transform="translate(14.435 36.087)" fill="none" stroke="#cfd1d2" stroke-linejoin="round" stroke-miterlimit="10" stroke-width="3"/>
    <path id="Path_43" data-name="Path 43" d="M21.863,47.769l-8.71-32.705L5.51,8.49" transform="translate(36.159 57.667)" fill="none" stroke="#cfd1d2" stroke-linecap="round" stroke-linejoin="round" stroke-miterlimit="10" stroke-width="3"/>
    <path id="Path_44" data-name="Path 44" d="M67.44,61.72,63.413,25.152,42.87.5,14.109,33.37,10,112.5" transform="translate(68.565)" fill="none" stroke="#cfd1d2" stroke-linejoin="round" stroke-miterlimit="10" stroke-width="3"/>
    <path id="Path_45" data-name="Path 45" d="M22.1,36.954,20.123,11.316,13.96,3.92" transform="translate(97.146 24.684)" fill="none" stroke="#cfd1d2" stroke-linecap="round" stroke-linejoin="round" stroke-miterlimit="10" stroke-width="3"/>
    <path id="Path_46" data-name="Path 46" d="M15.531,167.848h49.3L105.923,44.587,93.6,3.5,56.618,28.152,12.08,153.879" transform="translate(83.578 21.652)" fill="none" stroke="#cfd1d2" stroke-linejoin="round" stroke-miterlimit="10" stroke-width="3"/>
    <path id="Path_47" data-name="Path 47" d="M19.53,68.74,35.061,21.983,30.377,6.37" transform="translate(137.347 42.366)" fill="none" stroke="#cfd1d2" stroke-linecap="round" stroke-linejoin="round" stroke-miterlimit="10" stroke-width="3"/>
    <path id="Path_48" data-name="Path 48" d="M32.552,39.084,59.587,15.5,51.37,81.239H18.5Z" transform="translate(129.913 108.261)" fill="none" stroke="#cfd1d2" stroke-linejoin="round" stroke-miterlimit="10" stroke-width="3"/>
    <path id="Path_49" data-name="Path 49" d="M49.8,88.457H16.935L.5,14.5,45.531,72.351" transform="translate(0 101.044)" fill="none" stroke="#cfd1d2" stroke-linejoin="round" stroke-miterlimit="10" stroke-width="3"/>
  </g>
</svg>
