<svg width="71" height="74" viewBox="0 0 71 74" fill="none" xmlns="http://www.w3.org/2000/svg">
<g clip-path="url(#clip0)">
<mask id="mask0" mask-type="alpha" maskUnits="userSpaceOnUse" x="0" y="15" width="59" height="59">
<path d="M29.5 74C45.7924 74 59 60.7924 59 44.5C59 28.2076 45.7924 15 29.5 15C13.2076 15 0 28.2076 0 44.5C0 60.7924 13.2076 74 29.5 74Z" fill="#E2DCFF"/>
</mask>
<g mask="url(#mask0)">
<path opacity="0.1" d="M29.5 74C45.7924 74 59 60.7924 59 44.5C59 28.2076 45.7924 15 29.5 15C13.2076 15 0 28.2076 0 44.5C0 60.7924 13.2076 74 29.5 74Z" fill="#E2DCFF"/>
</g>
<g filter="url(#filter0_d)">
<circle cx="30.5" cy="45.5" r="25.5" fill="white"/>
</g>
<path fill-rule="evenodd" clip-rule="evenodd" d="M29.9208 25.4067C29.8352 25.6139 27.2473 30.0052 24.1699 35.1653C21.0926 40.3252 18.5491 44.6147 18.5177 44.6976C18.4768 44.8052 20.1486 45.8562 24.3799 48.3828L30.2994 51.9173L36.2172 48.3808C40.4687 45.8401 42.1189 44.8016 42.0776 44.6928C41.8638 44.1295 30.3561 25.03 30.2305 25.03C30.1459 25.03 30.0065 25.1995 29.9208 25.4067ZM18.5317 47.2396C18.7598 47.6336 30.2505 63.9715 30.2985 63.97C30.378 63.9676 42.126 47.1911 42.0807 47.1451C42.0377 47.1019 31.0566 53.6376 30.5986 53.979L30.3178 54.1883L24.6322 50.7962C21.5052 48.9305 18.8312 47.3288 18.6901 47.2369C18.4562 47.0846 18.4422 47.0848 18.5317 47.2396Z" fill="#6B71D6"/>
<g opacity="0.5">
<path opacity="0.5" fill-rule="evenodd" clip-rule="evenodd" d="M43 14.3808C45.8252 14.3677 48.2105 13.0497 50.1558 10.4266C52.101 7.80359 53.1847 4.66138 53.4066 1C53.5018 4.71685 54.5171 7.85906 56.4524 10.4266C58.3877 12.9942 60.9036 14.3123 64 14.3808C60.8996 14.3709 58.3837 15.6775 56.4524 18.3007C54.521 20.9239 53.5369 24.157 53.5 28C53.1185 24.0438 52.0038 20.8107 50.1558 18.3007C48.3077 15.7907 45.9225 14.4841 43 14.3808Z" fill="#6B71D6"/>
<path opacity="0.5" fill-rule="evenodd" clip-rule="evenodd" d="M30 3.44234C31.0034 3.436 31.9702 2.79822 32.9006 1.52901C33.8309 0.259801 34.3492 -0.916536 34.4553 -2C34.5009 -0.889694 34.9864 0.286643 35.912 1.52901C36.8376 2.77138 37.8669 3.40916 39 3.44234C37.865 3.43754 36.8357 4.06977 35.912 5.33905C34.9883 6.60832 34.5176 7.82864 34.5 9C34.3176 7.77386 33.7844 6.55354 32.9006 5.33905C32.0167 4.12455 31.0499 3.49232 30 3.44234Z" fill="#6B71D6"/>
<path opacity="0.5" fill-rule="evenodd" clip-rule="evenodd" d="M39 27.45C39.6997 27.4445 40.4302 26.8918 41.1914 25.7918C41.9526 24.6918 42.3766 23.7612 42.4635 23C42.5007 23.7845 42.898 24.7151 43.6553 25.7918C44.4126 26.8685 45.1941 27.4213 46 27.45C45.1926 27.4459 44.411 27.9938 43.6553 29.0938C42.8995 30.1939 42.5144 31.1626 42.5 32C42.3507 31.1151 41.9145 30.1464 41.1914 29.0938C40.4682 28.0413 39.7378 27.4933 39 27.45Z" fill="#6B71D6"/>
</g>
</g>
<defs>
<filter id="filter0_d" x="1" y="17" width="59" height="59" filterUnits="userSpaceOnUse" color-interpolation-filters="sRGB">
<feFlood flood-opacity="0" result="BackgroundImageFix"/>
<feColorMatrix in="SourceAlpha" type="matrix" values="0 0 0 0 0 0 0 0 0 0 0 0 0 0 0 0 0 0 127 0"/>
<feOffset dy="1"/>
<feGaussianBlur stdDeviation="2"/>
<feColorMatrix type="matrix" values="0 0 0 0 0 0 0 0 0 0 0 0 0 0 0 0 0 0 0.11 0"/>
<feBlend mode="normal" in2="BackgroundImageFix" result="effect1_dropShadow"/>
<feBlend mode="normal" in="SourceGraphic" in2="effect1_dropShadow" result="shape"/>
</filter>
<clipPath id="clip0">
<rect width="71" height="74" fill="white"/>
</clipPath>
</defs>
</svg>
