<svg width="79" height="79" viewBox="0 0 79 79" fill="none" xmlns="http://www.w3.org/2000/svg">
<path fill-rule="evenodd" clip-rule="evenodd" d="M28.892 18.6641C28.8668 18.9446 27.4043 25.1796 25.6422 32.5198C23.8801 39.8598 22.4329 45.9561 22.4262 46.0672C22.4174 46.2116 24.8157 46.8473 30.8358 48.2959L39.2579 50.3225L45.0342 43.8679C49.1841 39.2307 50.7752 37.368 50.685 37.2529C50.2179 36.6572 29.2733 18.0495 29.1227 18.0964C29.0211 18.1281 28.9173 18.3835 28.892 18.6641ZM23.3934 49.1111C23.8144 49.4986 43.706 64.8001 43.7631 64.7803C43.8574 64.7477 51.6771 40.2316 51.6056 40.1934C51.5378 40.1576 40.8094 52.1029 40.3875 52.6837L40.129 53.0398L32.0408 51.0965C27.5923 50.0278 23.786 49.1062 23.5824 49.0487C23.2449 48.9535 23.2281 48.959 23.3934 49.1111Z" stroke="white" stroke-opacity="0.4" stroke-width="2"/>
</svg>
