<svg width="16" height="15" viewBox="0 0 16 15" fill="none" xmlns="http://www.w3.org/2000/svg">
<mask id="path-1-inside-1" fill="white">
<path d="M8.80047 7.36192C8.80047 7.36192 9.13351 7.02332 9.1506 6.46677C9.16768 5.93336 9.04384 5.62726 8.01055 5.64578V4.82483H7.55371V5.64578H7.20359V4.82483H6.72963V5.6087L5.82874 5.64578V6.17919H6.23863C6.23863 6.17919 6.43075 6.16063 6.41367 6.48529C6.39663 6.80999 6.41367 8.62352 6.41367 8.62352C6.41367 8.62352 6.43075 8.77659 6.27279 8.79515C6.11479 8.81372 5.82874 8.79515 5.82874 8.79515V9.36565H6.76379V10.2052H7.22067V9.40273H7.5708V10.2052H7.99351V9.38421C7.99351 9.38421 9.25735 9.42129 9.38114 8.62352C9.50498 7.81647 9.29147 7.39905 8.80047 7.36192ZM7.16942 6.21627C7.16942 6.21627 8.27531 5.98904 8.30947 6.69405C8.34359 7.39905 7.16942 7.17177 7.16942 7.17177V6.21627ZM8.52294 8.17825C8.52294 9.05489 7.16942 8.80905 7.16942 8.80905V7.73765C8.60835 7.60314 8.52294 8.17825 8.52294 8.17825Z"/>
</mask>
<path d="M8.80047 7.36192C8.80047 7.36192 9.13351 7.02332 9.1506 6.46677C9.16768 5.93336 9.04384 5.62726 8.01055 5.64578V4.82483H7.55371V5.64578H7.20359V4.82483H6.72963V5.6087L5.82874 5.64578V6.17919H6.23863C6.23863 6.17919 6.43075 6.16063 6.41367 6.48529C6.39663 6.80999 6.41367 8.62352 6.41367 8.62352C6.41367 8.62352 6.43075 8.77659 6.27279 8.79515C6.11479 8.81372 5.82874 8.79515 5.82874 8.79515V9.36565H6.76379V10.2052H7.22067V9.40273H7.5708V10.2052H7.99351V9.38421C7.99351 9.38421 9.25735 9.42129 9.38114 8.62352C9.50498 7.81647 9.29147 7.39905 8.80047 7.36192ZM7.16942 6.21627C7.16942 6.21627 8.27531 5.98904 8.30947 6.69405C8.34359 7.39905 7.16942 7.17177 7.16942 7.17177V6.21627ZM8.52294 8.17825C8.52294 9.05489 7.16942 8.80905 7.16942 8.80905V7.73765C8.60835 7.60314 8.52294 8.17825 8.52294 8.17825Z" fill="black"/>
<path d="M8.80047 7.36192L4.52285 3.15455L-4.54153 12.3703L8.34811 13.3448L8.80047 7.36192ZM9.1506 6.46677L3.15366 6.27472L3.15342 6.2827L9.1506 6.46677ZM8.01055 5.64578H2.01055V11.7543L8.11806 11.6448L8.01055 5.64578ZM8.01055 4.82483H14.0105V-1.17517H8.01055V4.82483ZM7.55371 4.82483V-1.17517H1.55371V4.82483H7.55371ZM7.55371 5.64578V11.6458H13.5537V5.64578H7.55371ZM7.20359 5.64578H1.20359V11.6458H7.20359V5.64578ZM7.20359 4.82483H13.2036V-1.17517H7.20359V4.82483ZM6.72963 4.82483V-1.17517H0.729627V4.82483H6.72963ZM6.72963 5.6087L6.97637 11.6036L12.7296 11.3668V5.6087H6.72963ZM5.82874 5.64578L5.58199 -0.349146L-0.171265 -0.112348L-0.171265 5.64578H5.82874ZM5.82874 6.17919H-0.171265V12.1792H5.82874V6.17919ZM6.23863 6.17919V12.1792H6.52781L6.81565 12.1514L6.23863 6.17919ZM6.41367 6.48529L0.421955 6.17002L0.42191 6.17089L6.41367 6.48529ZM6.41367 8.62352L0.413932 8.67989L0.416802 8.98538L0.450686 9.289L6.41367 8.62352ZM6.27279 8.79515L6.97286 14.7542L6.97305 14.7541L6.27279 8.79515ZM5.82874 8.79515L6.21726 2.80775L-0.171265 2.39319L-0.171265 8.79515H5.82874ZM5.82874 9.36565H-0.171265V15.3656H5.82874V9.36565ZM6.76379 9.36565H12.7638V3.36565H6.76379V9.36565ZM6.76379 10.2052H0.763792V16.2052H6.76379V10.2052ZM7.22067 10.2052V16.2052H13.2207V10.2052H7.22067ZM7.22067 9.40273V3.40273H1.22067V9.40273H7.22067ZM7.5708 9.40273H13.5708V3.40273H7.5708V9.40273ZM7.5708 10.2052H1.5708V16.2052H7.5708V10.2052ZM7.99351 10.2052V16.2052H13.9935V10.2052H7.99351ZM7.99351 9.38421L8.16947 3.38679L1.99351 3.2056V9.38421H7.99351ZM9.38114 8.62352L15.3102 9.54355L15.3117 9.53354L9.38114 8.62352ZM7.16942 6.21627L5.96181 0.339056L1.16942 1.32376V6.21627H7.16942ZM8.30947 6.69405L14.3025 6.404L14.3024 6.40362L8.30947 6.69405ZM7.16942 7.17177H1.16942V12.1218L6.02922 13.0624L7.16942 7.17177ZM8.52294 8.17825L2.58803 7.29684L2.52294 7.73514V8.17825H8.52294ZM7.16942 8.80905H1.16942V13.8174L6.0972 14.7125L7.16942 8.80905ZM7.16942 7.73765L6.61099 1.76369L1.16942 2.27236V7.73765H7.16942ZM8.80047 7.36192C13.0781 11.5693 13.0797 11.5676 13.0814 11.566C13.0819 11.5654 13.0836 11.5637 13.0847 11.5626C13.0869 11.5604 13.0891 11.5581 13.0913 11.5559C13.0957 11.5513 13.1002 11.5467 13.1046 11.5421C13.1136 11.5329 13.1227 11.5234 13.132 11.5138C13.1505 11.4945 13.1694 11.4745 13.1889 11.4537C13.2278 11.412 13.2688 11.3671 13.3114 11.3188C13.3964 11.2226 13.4893 11.1118 13.5868 10.9866C13.7799 10.7387 14.0023 10.4194 14.2181 10.0296C14.6459 9.25715 15.1032 8.10344 15.1478 6.65085L3.15342 6.2827C3.18092 5.38665 3.46319 4.68052 3.72012 4.21652C3.85056 3.98096 3.98866 3.78106 4.11872 3.61403C4.18474 3.52925 4.25153 3.44929 4.31826 3.37376C4.35173 3.33587 4.38551 3.29874 4.41952 3.26232C4.43655 3.2441 4.45366 3.22601 4.47088 3.20807C4.47948 3.19909 4.48812 3.19014 4.49678 3.18123C4.50111 3.17677 4.50545 3.17232 4.50979 3.16787C4.51197 3.16565 4.51414 3.16342 4.51632 3.1612C4.51741 3.1601 4.51904 3.15843 4.51959 3.15788C4.52122 3.15621 4.52285 3.15455 8.80047 7.36192ZM15.1475 6.65882C15.1584 6.32006 15.343 3.48932 12.9678 1.37125C10.9533 -0.425279 8.5295 -0.364485 7.90304 -0.353259L8.11806 11.6448C8.10298 11.6451 8.02872 11.6461 7.90983 11.6372C7.79323 11.6285 7.59411 11.6074 7.33911 11.5514C6.84881 11.4436 5.90442 11.1508 4.98109 10.3274C3.98398 9.43816 3.50148 8.37138 3.29753 7.53943C3.1262 6.84057 3.15259 6.30854 3.15367 6.27472L15.1475 6.65882ZM14.0105 5.64578V4.82483H2.01055V5.64578H14.0105ZM8.01055 -1.17517H7.55371V10.8248H8.01055V-1.17517ZM1.55371 4.82483V5.64578H13.5537V4.82483H1.55371ZM7.55371 -0.354222H7.20359V11.6458H7.55371V-0.354222ZM13.2036 5.64578V4.82483H1.20359V5.64578H13.2036ZM7.20359 -1.17517H6.72963V10.8248H7.20359V-1.17517ZM0.729627 4.82483V5.6087H12.7296V4.82483H0.729627ZM6.48288 -0.386226L5.58199 -0.349146L6.07548 11.6407L6.97637 11.6036L6.48288 -0.386226ZM-0.171265 5.64578V6.17919H11.8287V5.64578H-0.171265ZM5.82874 12.1792H6.23863V0.179193H5.82874V12.1792ZM6.23863 6.17919C6.81565 12.1514 6.81078 12.1519 6.80591 12.1523C6.80429 12.1525 6.7994 12.1529 6.79614 12.1532C6.78961 12.1538 6.78305 12.1544 6.77647 12.155C6.7633 12.1562 6.75002 12.1574 6.73663 12.1585C6.70986 12.1607 6.68263 12.1628 6.65495 12.1647C6.59962 12.1686 6.54228 12.1718 6.48304 12.1742C6.36488 12.1789 6.23732 12.1806 6.10145 12.1773C5.83267 12.1708 5.51417 12.1446 5.1609 12.0783C4.45504 11.9457 3.52743 11.6346 2.6332 10.9343C0.583564 9.32923 0.371481 7.1293 0.421955 6.17002L12.4054 6.80055C12.4729 5.51662 12.1733 3.16364 10.0319 1.48664C9.09178 0.75041 8.11721 0.423691 7.37586 0.28446C7.00484 0.21478 6.67146 0.187559 6.39224 0.180791C6.25116 0.177371 6.11948 0.179068 5.99852 0.183956C5.93788 0.186407 5.87946 0.189678 5.82341 0.193572C5.79536 0.19552 5.76785 0.197628 5.7409 0.199872C5.72742 0.200995 5.71407 0.202152 5.70086 0.203341C5.69425 0.203936 5.68767 0.204538 5.68113 0.205149C5.67787 0.205455 5.67297 0.205916 5.67135 0.20607C5.66648 0.206535 5.66161 0.207003 6.23863 6.17919ZM0.42191 6.17089C0.401971 6.55088 0.405669 7.31589 0.407333 7.70204C0.408436 7.95768 0.410082 8.20149 0.411444 8.3807C0.412127 8.47053 0.412743 8.54468 0.413191 8.59664C0.413414 8.62263 0.413596 8.6431 0.413724 8.65724C0.413788 8.66431 0.413838 8.6698 0.413873 8.67361C0.413891 8.67551 0.413905 8.67699 0.413914 8.67805C0.413919 8.67857 0.413923 8.67899 0.413926 8.6793C0.413927 8.67945 0.413929 8.67958 0.41393 8.67967C0.41393 8.67972 0.413931 8.67978 0.413931 8.6798C0.413931 8.67985 0.413932 8.67989 6.41367 8.62352C12.4134 8.56716 12.4134 8.56718 12.4134 8.5672C12.4134 8.5672 12.4134 8.56721 12.4134 8.5672C12.4134 8.56719 12.4134 8.56715 12.4134 8.56709C12.4134 8.56695 12.4134 8.56671 12.4134 8.56637C12.4134 8.56567 12.4134 8.56455 12.4134 8.56301C12.4133 8.55994 12.4133 8.5552 12.4132 8.54891C12.4131 8.53633 12.413 8.51752 12.4127 8.49328C12.4123 8.4448 12.4117 8.37473 12.4111 8.28947C12.4098 8.11849 12.4082 7.88863 12.4072 7.6503C12.4046 7.04851 12.4083 6.7444 12.4054 6.79969L0.42191 6.17089ZM6.41367 8.62352C0.450686 9.289 0.45035 9.28599 0.450017 9.28297C0.449906 9.28197 0.449573 9.27895 0.449351 9.27693C0.448909 9.27289 0.44847 9.26884 0.448033 9.26478C0.447159 9.25665 0.446296 9.24846 0.445444 9.24022C0.443742 9.22374 0.442083 9.20701 0.440476 9.19006C0.437263 9.15616 0.434244 9.1212 0.431479 9.08524C0.425963 9.01351 0.421378 8.93673 0.418322 8.85537C0.412286 8.69471 0.411796 8.50532 0.424351 8.2932C0.447831 7.89652 0.524848 7.27641 0.796088 6.56496C1.07811 5.82522 1.60535 4.90395 2.54899 4.12745C3.51894 3.3293 4.60732 2.94958 5.57253 2.83616L6.97305 14.7541C8.01724 14.6314 9.16272 14.2256 10.1739 13.3936C11.1588 12.5831 11.7113 11.6201 12.0088 10.8398C12.2956 10.0878 12.3782 9.42822 12.4034 9.00225C12.4168 8.7755 12.4162 8.574 12.4099 8.40489C12.4066 8.31932 12.4019 8.23923 12.3962 8.16525C12.3933 8.12816 12.3902 8.09235 12.3869 8.05787C12.3853 8.04062 12.3836 8.02367 12.3819 8.00704C12.3811 7.99873 12.3802 7.99049 12.3793 7.98232C12.3789 7.97824 12.3784 7.97417 12.378 7.97013C12.3778 7.96811 12.3774 7.96508 12.3773 7.96407C12.377 7.96106 12.3766 7.95805 6.41367 8.62352ZM5.57273 2.83613C5.8148 2.8077 5.98957 2.80465 6.0303 2.80393C6.09376 2.8028 6.13424 2.8038 6.14401 2.80405C6.15772 2.8044 6.16659 2.80481 6.17264 2.80511C6.17655 2.8053 6.18168 2.80557 6.18856 2.80597C6.19206 2.80617 6.19613 2.80642 6.20085 2.80671C6.20321 2.80685 6.20575 2.80701 6.20848 2.80718C6.20985 2.80727 6.21126 2.80736 6.21272 2.80745C6.21345 2.8075 6.2142 2.80755 6.21495 2.8076C6.21533 2.80762 6.21571 2.80765 6.2161 2.80767C6.21629 2.80768 6.21658 2.8077 6.21668 2.80771C6.21697 2.80773 6.21726 2.80775 5.82874 8.79515C5.44021 14.7826 5.44051 14.7826 5.4408 14.7826C5.4409 14.7826 5.4412 14.7826 5.4414 14.7826C5.4418 14.7827 5.44221 14.7827 5.44262 14.7827C5.44345 14.7828 5.4443 14.7828 5.44517 14.7829C5.4469 14.783 5.44873 14.7831 5.45064 14.7832C5.45446 14.7835 5.45863 14.7837 5.46313 14.784C5.47211 14.7846 5.48248 14.7852 5.49411 14.7859C5.51725 14.7872 5.54596 14.7888 5.57916 14.7904C5.64378 14.7936 5.73404 14.7975 5.83902 14.8002C5.94626 14.8029 6.43164 14.8178 6.97286 14.7542L5.57273 2.83613ZM-0.171265 8.79515V9.36565H11.8287V8.79515H-0.171265ZM5.82874 15.3656H6.76379V3.36565H5.82874V15.3656ZM0.763792 9.36565V10.2052H12.7638V9.36565H0.763792ZM6.76379 16.2052H7.22067V4.20516H6.76379V16.2052ZM13.2207 10.2052V9.40273H1.22067V10.2052H13.2207ZM7.22067 15.4027H7.5708V3.40273H7.22067V15.4027ZM1.5708 9.40273V10.2052H13.5708V9.40273H1.5708ZM7.5708 16.2052H7.99351V4.20516H7.5708V16.2052ZM13.9935 10.2052V9.38421H1.99351V10.2052H13.9935ZM7.99351 9.38421C7.81755 15.3816 7.81942 15.3817 7.82129 15.3817C7.82192 15.3818 7.8238 15.3818 7.82506 15.3818C7.82759 15.3819 7.83015 15.382 7.83274 15.3821C7.83792 15.3822 7.84321 15.3823 7.84861 15.3825C7.85942 15.3827 7.87068 15.383 7.8824 15.3832C7.90581 15.3836 7.93109 15.384 7.95811 15.3842C8.01205 15.3847 8.07361 15.3846 8.14188 15.3835C8.27709 15.3814 8.44583 15.3754 8.63956 15.3609C9.00191 15.3338 9.56902 15.2692 10.2206 15.0913C11.1097 14.8487 14.6739 13.6443 15.3102 9.54355L3.4521 7.70349C3.6858 6.19746 4.51523 5.07265 5.36403 4.39365C6.09896 3.80572 6.78289 3.59067 7.06122 3.51471C7.38135 3.42735 7.62477 3.40326 7.74628 3.39419C7.81959 3.38871 7.88863 3.38601 7.95423 3.38498C7.98771 3.38446 8.022 3.38434 8.05736 3.38464C8.0751 3.38478 8.09326 3.38503 8.11188 3.38539C8.1212 3.38557 8.13065 3.38577 8.14024 3.38601C8.14504 3.38612 8.14987 3.38625 8.15474 3.38638C8.15718 3.38644 8.15962 3.38651 8.16208 3.38658C8.1633 3.38661 8.16515 3.38667 8.16576 3.38668C8.16761 3.38674 8.16947 3.38679 7.99351 9.38421ZM15.3117 9.53354C15.444 8.67157 15.599 6.9436 14.7452 5.13851C13.6337 2.78856 11.4312 1.5437 9.25284 1.379L8.34811 13.3448C7.65435 13.2924 6.74129 13.0774 5.83243 12.4831C4.90176 11.8747 4.27219 11.0616 3.89751 10.2695C3.24225 8.88416 3.44213 7.76843 3.45056 7.71351L15.3117 9.53354ZM7.16942 6.21627C8.37704 12.0935 8.37526 12.0939 8.3735 12.0942C8.37291 12.0943 8.37114 12.0947 8.36997 12.0949C8.36762 12.0954 8.36527 12.0959 8.36293 12.0964C8.35826 12.0973 8.35361 12.0983 8.34899 12.0992C8.33974 12.101 8.33058 12.1028 8.3215 12.1046C8.30336 12.1082 8.28548 12.1115 8.26782 12.1148C8.23264 12.1213 8.19761 12.1273 8.16256 12.1329C8.09415 12.1438 8.01737 12.1544 7.93218 12.1628C7.79858 12.1759 7.48536 12.2011 7.06143 12.1538C6.72141 12.1159 5.69851 11.9714 4.61903 11.1969C4.02758 10.7725 3.43251 10.1654 2.98675 9.35053C2.54014 8.53407 2.35149 7.70642 2.3165 6.98447L14.3024 6.40362C14.2044 4.37966 13.1955 2.58124 11.6148 1.44706C10.3184 0.516829 9.0126 0.29702 8.39184 0.227771C7.68717 0.149162 7.09535 0.187043 6.75333 0.220805C6.56392 0.239502 6.40048 0.262269 6.27146 0.282859C6.2061 0.29329 6.14728 0.303528 6.09588 0.312988C6.07012 0.31773 6.04602 0.322312 6.02369 0.326667C6.01252 0.328847 6.00178 0.330973 5.99146 0.333039C5.98631 0.334072 5.98126 0.335091 5.97632 0.336094C5.97384 0.336595 5.9714 0.337093 5.96898 0.337587C5.96778 0.337833 5.96598 0.338201 5.96538 0.338324C5.96359 0.33869 5.96181 0.339056 7.16942 6.21627ZM2.31649 6.98409C2.28001 6.23051 2.39709 5.30583 2.84185 4.36118C3.28786 3.41387 3.93641 2.71641 4.57884 2.24146C5.72291 1.39564 6.81965 1.26318 7.10666 1.23212C7.51098 1.18836 7.80345 1.21223 7.91355 1.22257C7.98822 1.22959 8.05542 1.23832 8.11558 1.24741C8.14652 1.25208 8.17775 1.25717 8.20952 1.26269C8.22547 1.26546 8.24173 1.26837 8.25836 1.27143C8.26667 1.27296 8.2751 1.27453 8.28364 1.27614C8.28791 1.27694 8.29221 1.27776 8.29654 1.27859C8.2987 1.279 8.30088 1.27942 8.30306 1.27984C8.30415 1.28005 8.30579 1.28037 8.30634 1.28047C8.30798 1.28079 8.30963 1.28111 7.16942 7.17177C6.02922 13.0624 6.03088 13.0628 6.03254 13.0631C6.0331 13.0632 6.03477 13.0635 6.0359 13.0637C6.03815 13.0642 6.04043 13.0646 6.04274 13.065C6.04735 13.0659 6.05208 13.0668 6.05691 13.0677C6.06658 13.0696 6.07669 13.0714 6.08723 13.0734C6.10829 13.0773 6.13115 13.0814 6.15569 13.0856C6.20464 13.0941 6.26106 13.1034 6.32404 13.1129C6.44828 13.1317 6.60695 13.1527 6.79115 13.17C7.12034 13.2009 7.70423 13.2375 8.39782 13.1625C8.97411 13.1001 10.358 12.8923 11.7126 11.8908C13.4515 10.6052 14.4067 8.55734 14.3025 6.404L2.31649 6.98409ZM13.1694 7.17177V6.21627H1.16942V7.17177H13.1694ZM2.52294 8.17825C2.52294 7.49855 2.65894 6.68786 3.05472 5.86258C3.45194 5.03429 4.01271 4.39617 4.5924 3.93829C5.64962 3.10321 6.67741 2.92823 7.00143 2.88216C7.41015 2.82403 7.7065 2.84149 7.82181 2.84999C7.89876 2.85566 7.9687 2.8635 8.03244 2.87213C8.0652 2.87657 8.09854 2.88151 8.13279 2.88699C8.14999 2.88974 8.1676 2.89266 8.18567 2.89575C8.19472 2.8973 8.2039 2.8989 8.21322 2.90054C8.21788 2.90137 8.22258 2.9022 8.22732 2.90305C8.22968 2.90347 8.23206 2.9039 8.23445 2.90433C8.23565 2.90455 8.23745 2.90487 8.23804 2.90498C8.23985 2.90531 8.24165 2.90564 7.16942 8.80905C6.0972 14.7125 6.09901 14.7128 6.10083 14.7131C6.10145 14.7132 6.10328 14.7136 6.10452 14.7138C6.10699 14.7142 6.10949 14.7147 6.11203 14.7151C6.11709 14.7161 6.12228 14.717 6.12759 14.7179C6.13822 14.7198 6.14934 14.7217 6.16094 14.7237C6.18414 14.7277 6.20935 14.7319 6.23646 14.7362C6.29053 14.7449 6.35296 14.7542 6.42273 14.7637C6.56049 14.7823 6.73617 14.8025 6.94001 14.8175C7.30911 14.8447 7.94383 14.8689 8.69093 14.7626C9.35333 14.6684 10.7195 14.3905 12.0305 13.355C13.6255 12.0952 14.5229 10.1978 14.5229 8.17825H2.52294ZM13.1694 8.80905V7.73765H1.16942V8.80905H13.1694ZM7.72786 13.7116C7.7167 13.7126 7.64151 13.7193 7.5143 13.7166C7.38833 13.714 7.18483 13.7016 6.92445 13.6547C6.41832 13.5636 5.53295 13.3099 4.63482 12.5905C3.67334 11.8204 3.03724 10.7865 2.73508 9.70492C2.59432 9.20108 2.53883 8.7356 2.52662 8.33799C2.52049 8.13826 2.52512 7.9512 2.53642 7.77892C2.54209 7.69254 2.54948 7.60918 2.55819 7.529C2.56254 7.48888 2.56724 7.44948 2.57222 7.4108C2.57472 7.39146 2.57728 7.3723 2.57992 7.35331C2.58124 7.34381 2.58257 7.33435 2.58392 7.32494C2.5846 7.32025 2.58562 7.3132 2.58596 7.31086C2.58699 7.30385 2.58803 7.29684 8.52294 8.17825C14.4578 9.05967 14.4589 9.05266 14.4599 9.04564C14.4603 9.04329 14.4613 9.03623 14.462 9.03151C14.4633 9.02207 14.4647 9.01256 14.466 9.00299C14.4686 8.98386 14.4712 8.96449 14.4738 8.94487C14.4788 8.90565 14.4836 8.86542 14.4881 8.82422C14.497 8.74187 14.5047 8.65529 14.5107 8.56474C14.5225 8.3841 14.5276 8.18481 14.521 7.96962C14.5078 7.54108 14.4478 7.03173 14.2925 6.47607C13.9614 5.29086 13.2567 4.12161 12.1367 3.22453C10.1109 1.60192 7.77707 1.65469 6.61099 1.76369L7.72786 13.7116Z" fill="#B8B8B8" mask="url(#path-1-inside-1)"/>
<path d="M11.1519 7.29201L11.0621 7.08778L14.8109 5.30811L14.9055 5.51233L11.1519 7.29201Z" fill="url(#paint0_linear)" stroke="#B8B8B8" stroke-width="0.5"/>
<path d="M7.53543 14.2405L3.7677 7.44279V7.41361C3.7677 7.20938 4.647 4.05365 4.82191 3.42153L4.84554 3.33887H10.282L11.2275 7.20454L7.53543 14.2405ZM3.98989 7.3893L7.53068 13.7785L10.9911 7.17535L10.1071 3.56254H5.00627C4.60916 4.99699 4.03716 7.08783 3.98989 7.3893Z" fill="url(#paint1_linear)" stroke="#B8B8B8" stroke-width="0.5"/>
<path d="M7.53071 14.1821L0 5.39564L2.3826 2.20102L4.7841 1H10.4334L12.6363 2.20589L15 5.41998L7.53071 14.1821ZM0.283643 5.38595L7.53071 13.8369L14.7163 5.40536L12.4898 2.38093L10.3766 1.22853H4.83611L2.52915 2.38093L0.283643 5.38595Z" fill="url(#paint2_linear)" stroke="#B8B8B8" stroke-width="0.5"/>
<path d="M4.8787 3.55763L2.41101 2.39551L2.50083 2.19128L4.97326 3.34855L4.8787 3.55763Z" fill="url(#paint3_linear)" stroke="#B8B8B8" stroke-width="0.5"/>
<path d="M10.2396 3.55277L10.145 3.34855L12.5181 2.19128L12.6127 2.39551L10.2396 3.55277Z" fill="url(#paint4_linear)" stroke="#B8B8B8" stroke-width="0.5"/>
<path d="M3.82439 7.51086L0.0944824 5.49292L0.193758 5.29358L3.92839 7.31152L3.82439 7.51086Z" fill="url(#paint5_linear)" stroke="#B8B8B8" stroke-width="0.5"/>
<defs>
<linearGradient id="paint0_linear" x1="12.983" y1="5.30923" x2="12.983" y2="7.29407" gradientUnits="userSpaceOnUse">
<stop stop-color="#F79421"/>
<stop offset="1" stop-color="#FAC239"/>
</linearGradient>
<linearGradient id="paint1_linear" x1="7.49508" y1="3.33946" x2="7.49508" y2="14.2425" gradientUnits="userSpaceOnUse">
<stop stop-color="#F79421"/>
<stop offset="1" stop-color="#FAC239"/>
</linearGradient>
<linearGradient id="paint2_linear" x1="7.50099" y1="1.00012" x2="7.50099" y2="14.1806" gradientUnits="userSpaceOnUse">
<stop stop-color="#F79421"/>
<stop offset="1" stop-color="#FAC239"/>
</linearGradient>
<linearGradient id="paint3_linear" x1="3.69133" y1="2.18998" x2="3.69133" y2="3.55533" gradientUnits="userSpaceOnUse">
<stop stop-color="#F79421"/>
<stop offset="1" stop-color="#FAC239"/>
</linearGradient>
<linearGradient id="paint4_linear" x1="11.3794" y1="2.19074" x2="11.3794" y2="3.55458" gradientUnits="userSpaceOnUse">
<stop stop-color="#F79421"/>
<stop offset="1" stop-color="#FAC239"/>
</linearGradient>
<linearGradient id="paint5_linear" x1="2.00975" y1="5.29188" x2="2.00975" y2="7.51149" gradientUnits="userSpaceOnUse">
<stop stop-color="#F79421"/>
<stop offset="1" stop-color="#FAC239"/>
</linearGradient>
</defs>
</svg>
