<svg width="1040" height="1028" viewBox="0 0 1040 1028" fill="none" xmlns="http://www.w3.org/2000/svg">
<g clip-path="url(#clip0)">
<path d="M210.115 1003.73C206.261 1003.73 202.408 1002.55 199.169 1000.21C193.435 996.093 190.568 989.119 191.778 982.219L249.319 650.672L5.62191 415.896C0.558451 411.001 -1.26588 403.696 0.912149 397.053C3.10879 390.392 8.93549 385.535 15.9536 384.522L352.711 336.147L503.33 34.5016C506.457 28.2085 512.935 24.2339 520.009 24.2339C527.102 24.2339 533.58 28.2085 536.689 34.5016L687.289 336.147L1024.06 384.522C1031.08 385.535 1036.89 390.374 1039.11 397.053C1041.28 403.696 1039.48 411.02 1034.4 415.896L790.699 650.709L848.222 982.237C849.413 989.137 846.546 996.111 840.831 1000.23C835.098 1004.39 827.484 1004.93 821.21 1001.63L520.009 845.114L218.771 1001.63C216.053 1003.03 213.075 1003.73 210.115 1003.73ZM58.6206 415.565L282.306 631.094C286.681 635.308 288.691 641.417 287.649 647.379L234.836 951.692L511.353 808.018C516.77 805.184 523.23 805.184 528.684 808.018L805.164 951.692L752.37 647.379C751.327 641.417 753.338 635.326 757.712 631.094L981.398 415.565L672.285 371.163C666.216 370.299 660.986 366.526 658.268 361.098L520.009 84.239L381.751 361.117C379.033 366.545 373.802 370.317 367.733 371.182L58.6206 415.565Z" fill="#FAC239"/>
<path d="M622.291 553.396C633.123 537.986 639.493 519.299 639.493 499.161C639.493 446.583 596.179 403.807 542.938 403.807H542.696V359H476.847V403.807H384V468.836H417.691V655.164H384V720.193H476.847V765H542.696V720.193H558.445C611.687 720.193 655 677.417 655 624.839C655 596.419 642.328 570.88 622.291 553.396ZM542.938 468.836C559.87 468.836 573.643 482.44 573.643 499.161C573.643 515.883 559.87 529.487 542.938 529.487H483.538V468.836H542.938ZM558.443 655.164H483.538V594.516H542.938H558.443C575.375 594.516 589.149 608.12 589.149 624.841C589.149 641.562 575.375 655.164 558.443 655.164V655.164Z" fill="#FAC239"/>
</g>
<defs>
<clipPath id="clip0">
<rect width="1040" height="1028" fill="white"/>
</clipPath>
</defs>
</svg>
