<svg width="550" height="550" viewBox="0 0 550 550" fill="none" xmlns="http://www.w3.org/2000/svg">
<g clip-path="url(#clip0)">
<path d="M313.029 333.128C315.119 333.128 317.161 332.508 318.899 331.348C320.636 330.187 321.99 328.537 322.789 326.607C323.589 324.676 323.798 322.552 323.39 320.503C322.983 318.454 321.977 316.571 320.499 315.094C319.022 313.617 317.14 312.611 315.09 312.203C313.041 311.795 310.917 312.005 308.987 312.804C307.057 313.604 305.407 314.958 304.246 316.695C303.085 318.432 302.466 320.475 302.466 322.564C302.471 325.364 303.585 328.048 305.565 330.028C307.545 332.008 310.229 333.123 313.029 333.128Z" fill="black"/>
<path d="M80.5639 333.128C82.6533 333.128 84.6958 332.508 86.433 331.348C88.1703 330.187 89.5243 328.537 90.3238 326.607C91.1234 324.676 91.3326 322.552 90.925 320.503C90.5173 318.454 89.5112 316.571 88.0338 315.094C86.5564 313.617 84.6741 312.611 82.6249 312.203C80.5757 311.795 78.4516 312.005 76.5213 312.804C74.591 313.604 72.9411 314.958 71.7804 316.695C70.6196 318.432 70 320.475 70 322.564C70.005 325.364 71.1196 328.048 73.0996 330.028C75.0797 332.008 77.7638 333.123 80.5639 333.128Z" fill="black"/>
<path d="M10.564 133.14C11.9512 133.14 13.3249 132.867 14.6066 132.336C15.8883 131.805 17.0529 131.027 18.0338 130.046C19.0148 129.065 19.7929 127.9 20.3238 126.619C20.8547 125.337 21.1279 123.963 21.1279 122.576V21.1279H122.576C125.378 21.1279 128.065 20.0149 130.046 18.0338C132.027 16.0527 133.14 13.3657 133.14 10.564C133.14 7.76222 132.027 5.07524 130.046 3.09411C128.065 1.11299 125.378 0 122.576 0L10.564 0C7.76222 0 5.07524 1.11299 3.09411 3.09411C1.11299 5.07524 0 7.76222 0 10.564L0 122.576C0 125.378 1.11299 128.065 3.09411 130.046C5.07524 132.027 7.76222 133.14 10.564 133.14Z" fill="black"/>
<path d="M133.14 530.436C133.14 529.049 132.867 527.675 132.336 526.393C131.805 525.111 131.027 523.947 130.046 522.966C129.065 521.985 127.9 521.207 126.619 520.676C125.337 520.145 123.963 519.872 122.576 519.872H21.1279V418.424C21.1279 415.622 20.0149 412.935 18.0338 410.954C16.0527 408.973 13.3657 407.859 10.564 407.859C7.76222 407.859 5.07524 408.973 3.09411 410.954C1.11299 412.935 0 415.622 0 418.424L0 530.436C0 533.238 1.11299 535.925 3.09411 537.906C5.07524 539.887 7.76222 541 10.564 541H122.576C125.378 541 128.065 539.887 130.046 537.906C132.027 535.925 133.14 533.238 133.14 530.436Z" fill="black"/>
<path d="M530.434 407.859C529.047 407.859 527.673 408.133 526.391 408.664C525.11 409.195 523.945 409.973 522.964 410.954C521.983 411.935 521.206 413.1 520.675 414.381C520.144 415.663 519.87 417.036 519.87 418.424V519.872H418.422C415.62 519.872 412.933 520.985 410.952 522.966C408.971 524.947 407.858 527.634 407.858 530.436C407.858 533.238 408.971 535.925 410.952 537.906C412.933 539.887 415.62 541 418.422 541H530.434C533.236 541 535.923 539.887 537.904 537.906C539.885 535.925 540.998 533.238 540.998 530.436V418.424C540.998 415.622 539.885 412.935 537.904 410.954C535.923 408.973 533.236 407.859 530.434 407.859Z" fill="black"/>
<path d="M530.434 0H418.422C415.62 0 412.933 1.11299 410.952 3.09411C408.971 5.07524 407.858 7.76222 407.858 10.564C407.858 13.3657 408.971 16.0527 410.952 18.0338C412.933 20.0149 415.62 21.1279 418.422 21.1279H519.87V122.576C519.87 125.378 520.983 128.065 522.964 130.046C524.946 132.027 527.633 133.14 530.434 133.14C533.236 133.14 535.923 132.027 537.904 130.046C539.885 128.065 540.998 125.378 540.998 122.576V10.564C540.998 7.76222 539.885 5.07524 537.904 3.09411C535.923 1.11299 533.236 0 530.434 0V0Z" fill="black"/>
<path d="M69.7373 460.718C69.7373 463.519 70.8503 466.206 72.8314 468.187C74.8126 470.169 77.4995 471.282 80.3013 471.282H185.96C188.762 471.282 191.449 470.169 193.43 468.187C195.411 466.206 196.524 463.519 196.524 460.718V355.059C196.524 352.258 195.411 349.571 193.43 347.589C191.449 345.608 188.762 344.495 185.96 344.495H80.3013C77.4995 344.495 74.8126 345.608 72.8314 347.589C70.8503 349.571 69.7373 352.258 69.7373 355.059V460.718ZM90.8653 365.623H175.396V450.154H90.8653V365.623Z" fill="black"/>
<path d="M185.979 69.7373H80.3013C77.4995 69.7373 74.8126 70.8504 72.8314 72.8315C70.8503 74.8126 69.7373 77.4996 69.7373 80.3013V185.96C69.7373 188.762 70.8503 191.449 72.8314 193.43C74.8126 195.411 77.4995 196.524 80.3013 196.524H185.96C188.762 196.524 191.449 195.411 193.43 193.43C195.411 191.449 196.524 188.762 196.524 185.96V80.3013C196.524 77.4996 195.411 74.8126 193.43 72.8315C191.449 70.8504 188.762 69.7373 185.96 69.7373H185.979ZM175.415 175.396H90.8653V90.8653H175.396L175.415 175.396Z" fill="black"/>
<path d="M471.283 80.3013C471.283 77.4996 470.169 74.8126 468.188 72.8315C466.207 70.8504 463.52 69.7373 460.718 69.7373H355.06C352.258 69.7373 349.571 70.8504 347.59 72.8315C345.609 74.8126 344.496 77.4996 344.496 80.3013V185.96C344.496 188.762 345.609 191.449 347.59 193.43C349.571 195.411 352.258 196.524 355.06 196.524H460.718C463.52 196.524 466.207 195.411 468.188 193.43C470.169 191.449 471.283 188.762 471.283 185.96V80.3013ZM450.155 175.396H365.624V90.8653H450.155V175.396Z" fill="black"/>
<path d="M471.283 460.718V355.059C471.283 352.258 470.169 349.571 468.188 347.589C466.207 345.608 463.52 344.495 460.718 344.495H355.06C352.258 344.495 349.571 345.608 347.59 347.589C345.609 349.571 344.496 352.258 344.496 355.059V460.718C344.496 463.519 345.609 466.206 347.59 468.187C349.571 470.169 352.258 471.282 355.06 471.282H460.718C463.52 471.282 466.207 470.169 468.188 468.187C470.169 466.206 471.283 463.519 471.283 460.718ZM450.155 450.154H365.624V365.623H450.155V450.154Z" fill="black"/>
<path d="M143.704 386.732H122.576C119.774 386.732 117.087 387.845 115.106 389.826C113.125 391.807 112.012 394.494 112.012 397.296V418.424C112.012 421.226 113.125 423.913 115.106 425.894C117.087 427.875 119.774 428.988 122.576 428.988H143.704C146.506 428.988 149.193 427.875 151.174 425.894C153.155 423.913 154.268 421.226 154.268 418.424V397.296C154.268 394.494 153.155 391.807 151.174 389.826C149.193 387.845 146.506 386.732 143.704 386.732Z" fill="black"/>
<path d="M122.576 154.287H143.704C146.506 154.287 149.193 153.174 151.174 151.193C153.155 149.212 154.268 146.525 154.268 143.723V122.576C154.268 119.774 153.155 117.087 151.174 115.106C149.193 113.125 146.506 112.012 143.704 112.012H122.576C119.774 112.012 117.087 113.125 115.106 115.106C113.125 117.087 112.012 119.774 112.012 122.576V143.704C112.012 146.506 113.125 149.193 115.106 151.174C117.087 153.155 119.774 154.268 122.576 154.268V154.287Z" fill="black"/>
<path d="M397.294 154.287H418.422C421.224 154.287 423.911 153.174 425.892 151.193C427.873 149.212 428.986 146.525 428.986 143.723V122.576C428.986 119.774 427.873 117.087 425.892 115.106C423.911 113.125 421.224 112.012 418.422 112.012H397.294C394.492 112.012 391.805 113.125 389.824 115.106C387.843 117.087 386.73 119.774 386.73 122.576V143.704C386.73 146.506 387.843 149.193 389.824 151.174C391.805 153.155 394.492 154.268 397.294 154.268V154.287Z" fill="black"/>
<path d="M397.294 429.007H418.422C419.809 429.007 421.183 428.734 422.464 428.203C423.746 427.672 424.911 426.893 425.892 425.913C426.873 424.932 427.651 423.767 428.182 422.486C428.712 421.204 428.986 419.83 428.986 418.443V397.315C428.986 394.513 427.873 391.826 425.892 389.845C423.911 387.864 421.224 386.751 418.422 386.751H397.294C394.492 386.751 391.805 387.864 389.824 389.845C387.843 391.826 386.73 394.513 386.73 397.315V418.443C386.73 419.83 387.003 421.204 387.534 422.486C388.065 423.767 388.843 424.932 389.824 425.913C390.805 426.893 391.97 427.672 393.252 428.203C394.533 428.734 395.907 429.007 397.294 429.007Z" fill="black"/>
<path d="M112.275 322.564C112.275 325.366 113.388 328.053 115.369 330.034C117.35 332.015 120.037 333.128 122.839 333.128H260.208V385.967C260.208 388.768 261.321 391.455 263.302 393.436C265.283 395.418 267.97 396.531 270.772 396.531C273.574 396.531 276.261 395.418 278.242 393.436C280.223 391.455 281.336 388.768 281.336 385.967V322.564C281.336 321.177 281.063 319.803 280.532 318.521C280.001 317.24 279.223 316.075 278.242 315.094C277.261 314.113 276.097 313.335 274.815 312.804C273.533 312.273 272.159 312 270.772 312H122.839C120.037 312 117.35 313.113 115.369 315.094C113.388 317.075 112.275 319.762 112.275 322.564Z" fill="black"/>
<path d="M186.242 228.189C189.043 228.189 191.73 227.076 193.711 225.095C195.692 223.114 196.805 220.427 196.805 217.625C196.805 214.823 195.692 212.136 193.711 210.155C191.73 208.174 189.043 207.061 186.242 207.061H80.5639C77.7622 207.061 75.0753 208.174 73.0941 210.155C71.113 212.136 70 214.823 70 217.625C70 220.427 71.113 223.114 73.0941 225.095C75.0753 227.076 77.7622 228.189 80.5639 228.189H186.242Z" fill="black"/>
<path d="M228.498 228.189H270.773C273.575 228.189 276.262 227.076 278.243 225.095C280.224 223.114 281.337 220.427 281.337 217.625C281.337 214.823 280.224 212.136 278.243 210.155C276.262 208.174 273.575 207.061 270.773 207.061H228.498C225.696 207.061 223.009 208.174 221.028 210.155C219.047 212.136 217.934 214.823 217.934 217.625C217.934 220.427 219.047 223.114 221.028 225.095C223.009 227.076 225.696 228.189 228.498 228.189Z" fill="black"/>
<path d="M228.569 70C225.766 70 223.077 70.9246 221.095 72.5705C219.113 74.2163 218 76.4485 218 78.776V166.552C218 168.88 219.113 171.112 221.095 172.758C223.077 174.403 225.766 175.328 228.569 175.328H302.569V219.224C302.569 221.552 303.682 223.784 305.664 225.43C307.646 227.075 310.334 228 313.137 228H355.431C358.234 228 360.922 227.075 362.904 225.43C364.886 223.784 366 221.552 366 219.224C366 216.896 364.886 214.664 362.904 213.018C360.922 211.373 358.234 210.448 355.431 210.448H323.725V166.568C323.725 164.24 322.612 162.008 320.63 160.362C318.648 158.716 315.959 157.792 313.156 157.792H239.156V78.776C239.156 76.4485 238.043 74.2163 236.061 72.5705C234.079 70.9246 231.391 70 228.588 70H228.569Z" fill="black"/>
<path d="M460.96 207.061H397.557C394.755 207.061 392.068 208.174 390.087 210.155C388.106 212.136 386.992 214.823 386.992 217.625C386.992 220.427 388.106 223.114 390.087 225.095C392.068 227.076 394.755 228.189 397.557 228.189H460.96C463.761 228.189 466.448 227.076 468.429 225.095C470.411 223.114 471.523 220.427 471.523 217.625C471.523 214.823 470.411 212.136 468.429 210.155C466.448 208.174 463.761 207.061 460.96 207.061Z" fill="black"/>
<path d="M460.981 312H355.323C352.521 312 349.834 313.113 347.853 315.094C345.872 317.075 344.759 319.762 344.759 322.564C344.759 325.366 345.872 328.053 347.853 330.034C349.834 332.015 352.521 333.128 355.323 333.128H460.981C463.783 333.128 466.47 332.015 468.451 330.034C470.432 328.053 471.545 325.366 471.545 322.564C471.545 319.762 470.432 317.075 468.451 315.094C466.47 313.113 463.783 312 460.981 312Z" fill="black"/>
<path d="M270.519 408H228.5C225.715 408 223.044 408.83 221.075 410.306C219.106 411.783 218 413.785 218 415.873V463.127C218 465.215 219.106 467.218 221.075 468.694C223.044 470.171 225.715 471 228.5 471C231.285 471 233.955 470.171 235.925 468.694C237.894 467.218 239 465.215 239 463.127V423.747H270.5C273.285 423.747 275.955 422.917 277.925 421.441C279.894 419.964 281 417.961 281 415.873C281 413.785 279.894 411.783 277.925 410.306C275.955 408.83 273.285 408 270.5 408H270.519Z" fill="black"/>
<path d="M301.988 452.862H270.497C267.713 452.862 265.043 453.817 263.075 455.518C261.106 457.219 260 459.526 260 461.931C260 464.336 261.106 466.643 263.075 468.344C265.043 470.044 267.713 471 270.497 471H312.503C315.287 471 317.957 470.044 319.926 468.344C321.894 466.643 323 464.336 323 461.931V353.069C323 350.664 321.894 348.357 319.926 346.656C317.957 344.955 315.287 344 312.503 344C309.719 344 307.049 344.955 305.081 346.656C303.112 348.357 302.006 350.664 302.006 353.069L301.988 452.862Z" fill="black"/>
<path d="M312.5 133C315.285 133 317.955 132.17 319.925 130.694C321.894 129.217 323 127.215 323 125.127V77.8732C323 75.7851 321.894 73.7826 319.925 72.306C317.955 70.8295 315.285 70 312.5 70C309.715 70 307.044 70.8295 305.075 72.306C303.106 73.7826 302 75.7851 302 77.8732V117.254H270.5C267.715 117.254 265.045 118.083 263.075 119.56C261.106 121.036 260 123.039 260 125.127C260 127.215 261.106 129.217 263.075 130.694C265.045 132.17 267.715 133 270.5 133H312.5Z" fill="black"/>
<path d="M114.724 277.458C114.724 280.696 113.529 283.183 111.138 284.918C108.748 286.614 105.22 287.463 100.555 287.463C96.3142 287.463 92.9986 286.711 90.6082 285.207C88.2178 283.704 86.6757 281.429 85.9817 278.383L92.6323 277.284C93.095 279.019 93.9817 280.292 95.2925 281.101C96.6034 281.911 98.4347 282.316 100.787 282.316C105.606 282.316 108.015 280.831 108.015 277.863C108.015 276.937 107.726 276.166 107.148 275.549C106.608 274.933 105.837 274.431 104.835 274.046C103.832 273.622 101.905 273.12 99.0516 272.542C96.5841 271.964 94.8492 271.501 93.8468 271.154C92.8829 270.807 92.0154 270.402 91.2444 269.94C90.4733 269.439 89.7986 268.86 89.2203 268.205C88.6805 267.549 88.2564 266.778 87.948 265.892C87.6781 264.966 87.5431 263.906 87.5431 262.711C87.5431 259.742 88.6612 257.467 90.8974 255.887C93.1335 254.267 96.3913 253.458 100.671 253.458C104.758 253.458 107.823 254.113 109.866 255.424C111.948 256.696 113.278 258.817 113.856 261.786L107.148 262.653C106.801 261.227 106.107 260.166 105.066 259.472C104.025 258.74 102.521 258.373 100.555 258.373C96.3528 258.373 94.2516 259.684 94.2516 262.306C94.2516 263.154 94.4636 263.867 94.8877 264.446C95.3504 264.986 96.0058 265.448 96.854 265.834C97.7407 266.219 99.5335 266.701 102.232 267.28C105.394 267.935 107.649 268.552 108.999 269.13C110.387 269.708 111.466 270.383 112.237 271.154C113.047 271.887 113.664 272.773 114.088 273.814C114.512 274.855 114.724 276.07 114.724 277.458ZM135.184 282.027C139.348 282.027 142.259 279.925 143.917 275.723L149.931 278.036C148.62 281.236 146.712 283.607 144.206 285.149C141.7 286.692 138.693 287.463 135.184 287.463C129.864 287.463 125.758 285.959 122.866 282.952C119.975 279.945 118.529 275.742 118.529 270.345C118.529 264.908 119.917 260.745 122.693 257.853C125.507 254.923 129.575 253.458 134.895 253.458C138.789 253.458 141.95 254.248 144.379 255.829C146.808 257.371 148.505 259.646 149.469 262.653L143.396 264.33C142.895 262.672 141.873 261.361 140.331 260.398C138.828 259.395 137.054 258.894 135.011 258.894C131.888 258.894 129.517 259.877 127.897 261.843C126.278 263.771 125.469 266.605 125.469 270.345C125.469 274.123 126.297 277.014 127.955 279.019C129.652 281.024 132.061 282.027 135.184 282.027ZM177.748 287L174.856 278.557H162.249L159.3 287H152.418L164.446 253.978H172.601L184.63 287H177.748ZM168.495 259.067L168.379 259.588C168.225 260.166 168.032 260.822 167.801 261.554C167.608 262.248 166.278 266.181 163.81 273.352H173.295L169.998 263.867L169.015 260.687L168.495 259.067ZM209.15 287L194.75 261.554C195.02 264.022 195.174 266.007 195.212 267.511V287H189.082V253.978H196.947L211.579 279.598C211.309 277.246 211.155 275.106 211.116 273.178V253.978H217.246V287H209.15ZM268.522 270.345C268.522 274.74 267.424 278.402 265.226 281.333C263.067 284.263 260.06 286.113 256.204 286.884C256.744 288.427 257.496 289.545 258.46 290.239C259.424 290.933 260.773 291.28 262.508 291.28C263.433 291.28 264.359 291.202 265.284 291.048L265.226 295.79C263.26 296.214 261.371 296.427 259.559 296.427C257.014 296.427 254.913 295.713 253.255 294.287C251.597 292.899 250.248 290.547 249.207 287.231C244.734 286.807 241.265 285.111 238.797 282.142C236.368 279.173 235.154 275.241 235.154 270.345C235.154 265.063 236.619 260.937 239.549 257.969C242.479 254.961 246.566 253.458 251.809 253.458C257.053 253.458 261.139 254.961 264.069 257.969C267.038 260.976 268.522 265.101 268.522 270.345ZM261.467 270.345C261.467 266.798 260.619 264.002 258.922 261.959C257.226 259.916 254.855 258.894 251.809 258.894C248.725 258.894 246.334 259.916 244.638 261.959C242.942 263.964 242.094 266.759 242.094 270.345C242.094 273.969 242.961 276.822 244.696 278.904C246.431 280.986 248.783 282.027 251.751 282.027C254.836 282.027 257.226 281.024 258.922 279.019C260.619 276.976 261.467 274.084 261.467 270.345ZM296.408 287L288.717 274.451H280.62V287H273.739V253.978H290.22C294.153 253.978 297.18 254.827 299.3 256.523C301.459 258.219 302.539 260.648 302.539 263.81C302.539 266.123 301.883 268.128 300.572 269.824C299.261 271.482 297.488 272.581 295.252 273.12L304.158 287H296.408ZM295.599 264.099C295.599 260.937 293.555 259.357 289.469 259.357H280.62V269.072H289.7C291.628 269.072 293.093 268.648 294.095 267.8C295.098 266.913 295.599 265.68 295.599 264.099ZM336.465 282.027C340.629 282.027 343.54 279.925 345.198 275.723L351.212 278.036C349.902 281.236 347.993 283.607 345.487 285.149C342.981 286.692 339.974 287.463 336.465 287.463C331.145 287.463 327.039 285.959 324.147 282.952C321.256 279.945 319.81 275.742 319.81 270.345C319.81 264.908 321.198 260.745 323.974 257.853C326.788 254.923 330.856 253.458 336.176 253.458C340.07 253.458 343.232 254.248 345.661 255.829C348.09 257.371 349.786 259.646 350.75 262.653L344.677 264.33C344.176 262.672 343.155 261.361 341.612 260.398C340.109 259.395 338.335 258.894 336.292 258.894C333.169 258.894 330.798 259.877 329.179 261.843C327.559 263.771 326.75 266.605 326.75 270.345C326.75 274.123 327.579 277.014 329.237 279.019C330.933 281.024 333.343 282.027 336.465 282.027ZM387.819 270.345C387.819 273.776 387.125 276.802 385.737 279.424C384.388 282.007 382.441 283.993 379.896 285.381C377.39 286.769 374.441 287.463 371.048 287.463C365.843 287.463 361.776 285.94 358.846 282.894C355.916 279.848 354.451 275.665 354.451 270.345C354.451 265.063 355.916 260.937 358.846 257.969C361.776 254.961 365.863 253.458 371.106 253.458C376.349 253.458 380.436 254.961 383.366 257.969C386.335 260.976 387.819 265.101 387.819 270.345ZM380.764 270.345C380.764 266.798 379.916 264.002 378.219 261.959C376.523 259.916 374.152 258.894 371.106 258.894C368.022 258.894 365.631 259.916 363.935 261.959C362.239 263.964 361.39 266.759 361.39 270.345C361.39 273.969 362.258 276.822 363.993 278.904C365.728 280.986 368.08 282.027 371.048 282.027C374.133 282.027 376.523 281.024 378.219 279.019C379.916 276.976 380.764 274.084 380.764 270.345ZM422.472 270.229C422.472 273.622 421.797 276.59 420.447 279.135C419.098 281.68 417.19 283.627 414.722 284.976C412.293 286.325 409.517 287 406.394 287H393.035V253.978H404.949C410.5 253.978 414.799 255.386 417.845 258.2C420.929 260.976 422.472 264.986 422.472 270.229ZM415.474 270.229C415.474 266.682 414.549 263.983 412.698 262.133C410.886 260.243 408.264 259.299 404.833 259.299H399.917V281.68H405.758C408.727 281.68 411.079 280.658 412.814 278.614C414.587 276.533 415.474 273.737 415.474 270.229ZM427.676 287V253.978H453.642V259.299H434.558V267.627H452.197V272.947H434.558V281.68H454.568V287H427.676Z" fill="black"/>
</g>
<defs>
<clipPath id="clip0">
<rect width="541" height="541" fill="white"/>
</clipPath>
</defs>
</svg>
