<svg width="29" height="29" viewBox="0 0 29 29" fill="none" xmlns="http://www.w3.org/2000/svg">
<g clip-path="url(#clip0)">
<path d="M0.557 7.02C0.630146 7.02 0.702576 7.00559 0.770155 6.9776C0.837733 6.94961 0.899136 6.90858 0.950858 6.85686C1.00258 6.80514 1.04361 6.74373 1.0716 6.67615C1.09959 6.60858 1.114 6.53615 1.114 6.463V1.114H6.463C6.61073 1.114 6.7524 1.05532 6.85686 0.950858C6.96132 0.846401 7.02 0.704726 7.02 0.557C7.02 0.409274 6.96132 0.267599 6.85686 0.163142C6.7524 0.0586838 6.61073 0 6.463 0L0.557 0C0.409274 0 0.267599 0.0586838 0.163142 0.163142C0.0586838 0.267599 0 0.409274 0 0.557L0 6.463C0 6.61073 0.0586838 6.7524 0.163142 6.85686C0.267599 6.96132 0.409274 7.02 0.557 7.02Z" fill="#666677"/>
<path d="M7.02 27.968C7.02 27.8948 7.00559 27.8224 6.9776 27.7548C6.94961 27.6872 6.90858 27.6258 6.85686 27.5741C6.80514 27.5224 6.74373 27.4814 6.67615 27.4534C6.60858 27.4254 6.53615 27.411 6.463 27.411H1.114V22.062C1.114 21.9143 1.05532 21.7726 0.950858 21.6681C0.846401 21.5637 0.704726 21.505 0.557 21.505C0.409274 21.505 0.267599 21.5637 0.163142 21.6681C0.0586838 21.7726 0 21.9143 0 22.062L0 27.968C0 28.1157 0.0586838 28.2574 0.163142 28.3618C0.267599 28.4663 0.409274 28.525 0.557 28.525H6.463C6.61073 28.525 6.7524 28.4663 6.85686 28.3618C6.96132 28.2574 7.02 28.1157 7.02 27.968Z" fill="#666677"/>
<path d="M27.968 21.505C27.8949 21.505 27.8224 21.5194 27.7548 21.5474C27.6873 21.5754 27.6259 21.6164 27.5741 21.6681C27.5224 21.7198 27.4814 21.7813 27.4534 21.8488C27.4254 21.9164 27.411 21.9888 27.411 22.062V27.411H22.062C21.9143 27.411 21.7726 27.4697 21.6681 27.5741C21.5637 27.6786 21.505 27.8203 21.505 27.968C21.505 28.1157 21.5637 28.2574 21.6681 28.3618C21.7726 28.4663 21.9143 28.525 22.062 28.525H27.968C28.1157 28.525 28.2574 28.4663 28.3619 28.3618C28.4663 28.2574 28.525 28.1157 28.525 27.968V22.062C28.525 21.9143 28.4663 21.7726 28.3619 21.6681C28.2574 21.5637 28.1157 21.505 27.968 21.505V21.505Z" fill="#666677"/>
<path d="M27.968 0H22.062C21.9143 0 21.7726 0.0586838 21.6681 0.163142C21.5637 0.267599 21.505 0.409274 21.505 0.557C21.505 0.704726 21.5637 0.846401 21.6681 0.950858C21.7726 1.05532 21.9143 1.114 22.062 1.114H27.411V6.463C27.411 6.61073 27.4697 6.7524 27.5741 6.85686C27.6786 6.96132 27.8203 7.02 27.968 7.02C28.1157 7.02 28.2574 6.96132 28.3619 6.85686C28.4663 6.7524 28.525 6.61073 28.525 6.463V0.557C28.525 0.409274 28.4663 0.267599 28.3619 0.163142C28.2574 0.0586838 28.1157 0 27.968 0V0Z" fill="#666677"/>
<path d="M4.31604 17.081C3.85404 17.081 3.41604 17.021 3.00204 16.901C2.59404 16.775 2.26104 16.607 2.00304 16.397C1.86504 16.295 1.79604 16.151 1.79604 15.965C1.79604 15.839 1.83204 15.731 1.90404 15.641C1.98204 15.545 2.07204 15.497 2.17404 15.497C2.28204 15.497 2.40504 15.539 2.54304 15.623C2.80104 15.809 3.07104 15.944 3.35304 16.028C3.63504 16.112 3.94704 16.154 4.28904 16.154C4.72704 16.154 5.06304 16.079 5.29704 15.929C5.53104 15.773 5.64804 15.548 5.64804 15.254C5.64804 15.026 5.53704 14.852 5.31504 14.732C5.09904 14.606 4.73604 14.486 4.22604 14.372C3.69804 14.258 3.26904 14.126 2.93904 13.976C2.60904 13.826 2.36004 13.634 2.19204 13.4C2.02404 13.166 1.94004 12.869 1.94004 12.509C1.94004 12.137 2.04504 11.804 2.25504 11.51C2.46504 11.216 2.75604 10.988 3.12804 10.826C3.50604 10.658 3.92904 10.574 4.39704 10.574C5.25504 10.574 5.95404 10.802 6.49404 11.258C6.57204 11.324 6.62604 11.39 6.65604 11.456C6.69204 11.516 6.71004 11.594 6.71004 11.69C6.71004 11.816 6.67104 11.927 6.59304 12.023C6.52104 12.113 6.43404 12.158 6.33204 12.158C6.27204 12.158 6.21504 12.149 6.16104 12.131C6.11304 12.113 6.04704 12.08 5.96304 12.032C5.71704 11.852 5.47704 11.72 5.24304 11.636C5.01504 11.546 4.73304 11.501 4.39704 11.501C3.98904 11.501 3.66504 11.585 3.42504 11.753C3.19104 11.915 3.07404 12.143 3.07404 12.437C3.07404 12.683 3.17904 12.872 3.38904 13.004C3.59904 13.136 3.95604 13.259 4.46004 13.373C4.99404 13.493 5.42604 13.628 5.75604 13.778C6.09204 13.922 6.34704 14.108 6.52104 14.336C6.70104 14.564 6.79104 14.849 6.79104 15.191C6.79104 15.563 6.68604 15.893 6.47604 16.181C6.27204 16.463 5.98104 16.685 5.60304 16.847C5.23104 17.003 4.80204 17.081 4.31604 17.081ZM10.6943 17.081C10.0823 17.081 9.54529 16.949 9.08329 16.685C8.62729 16.421 8.27629 16.043 8.03029 15.551C7.78429 15.059 7.66129 14.483 7.66129 13.823C7.66129 13.163 7.78429 12.59 8.03029 12.104C8.27629 11.612 8.62729 11.234 9.08329 10.97C9.54529 10.706 10.0823 10.574 10.6943 10.574C11.0903 10.574 11.4623 10.634 11.8103 10.754C12.1583 10.868 12.4673 11.036 12.7373 11.258C12.8153 11.318 12.8693 11.381 12.8993 11.447C12.9293 11.513 12.9443 11.594 12.9443 11.69C12.9443 11.822 12.9083 11.933 12.8363 12.023C12.7643 12.113 12.6773 12.158 12.5753 12.158C12.4553 12.158 12.3323 12.116 12.2063 12.032C11.9483 11.84 11.7083 11.708 11.4863 11.636C11.2643 11.558 11.0183 11.519 10.7483 11.519C10.1243 11.519 9.65029 11.714 9.32629 12.104C9.00829 12.494 8.84929 13.067 8.84929 13.823C8.84929 14.585 9.00829 15.161 9.32629 15.551C9.65029 15.941 10.1243 16.136 10.7483 16.136C11.0063 16.136 11.2433 16.097 11.4593 16.019C11.6813 15.941 11.9303 15.809 12.2063 15.623C12.2663 15.587 12.3263 15.557 12.3863 15.533C12.4463 15.509 12.5093 15.497 12.5753 15.497C12.6773 15.497 12.7643 15.542 12.8363 15.632C12.9083 15.722 12.9443 15.833 12.9443 15.965C12.9443 16.055 12.9293 16.136 12.8993 16.208C12.8693 16.274 12.8153 16.337 12.7373 16.397C12.4673 16.619 12.1583 16.79 11.8103 16.91C11.4623 17.024 11.0903 17.081 10.6943 17.081ZM19.5956 16.307C19.6316 16.385 19.6496 16.463 19.6496 16.541C19.6496 16.679 19.5926 16.796 19.4786 16.892C19.3706 16.988 19.2446 17.036 19.1006 17.036C19.0046 17.036 18.9146 17.012 18.8306 16.964C18.7466 16.91 18.6806 16.829 18.6326 16.721L18.0926 15.515H14.9246L14.3846 16.721C14.3366 16.829 14.2706 16.91 14.1866 16.964C14.1026 17.012 14.0096 17.036 13.9076 17.036C13.7696 17.036 13.6436 16.988 13.5296 16.892C13.4156 16.796 13.3586 16.679 13.3586 16.541C13.3586 16.463 13.3766 16.385 13.4126 16.307L15.8966 10.97C15.9506 10.85 16.0316 10.76 16.1396 10.7C16.2536 10.634 16.3736 10.601 16.4996 10.601C16.6256 10.601 16.7426 10.634 16.8506 10.7C16.9646 10.76 17.0486 10.85 17.1026 10.97L19.5956 16.307ZM17.6966 14.615L16.5086 11.942L15.3206 14.615H17.6966ZM25.3303 10.61C25.4983 10.61 25.6303 10.664 25.7263 10.772C25.8283 10.874 25.8793 11.012 25.8793 11.186V16.469C25.8793 16.643 25.8283 16.784 25.7263 16.892C25.6243 17 25.4923 17.054 25.3303 17.054C25.1383 17.054 24.9913 16.985 24.8893 16.847L21.6043 12.572V16.469C21.6043 16.643 21.5563 16.784 21.4603 16.892C21.3643 17 21.2323 17.054 21.0643 17.054C20.8963 17.054 20.7643 17 20.6683 16.892C20.5723 16.784 20.5243 16.643 20.5243 16.469V11.186C20.5243 11.012 20.5753 10.874 20.6773 10.772C20.7793 10.664 20.9143 10.61 21.0823 10.61C21.2683 10.61 21.4123 10.679 21.5143 10.817L24.7903 15.074V11.186C24.7903 11.012 24.8383 10.874 24.9343 10.772C25.0363 10.664 25.1683 10.61 25.3303 10.61Z" fill="#666677"/>
</g>
<defs>
<clipPath id="clip0">
<rect width="28.525" height="28.525" fill="white"/>
</clipPath>
</defs>
</svg>
