<svg id="Group_18" data-name="Group 18" xmlns="http://www.w3.org/2000/svg" width="28.525" height="28.525" viewBox="0 0 28.525 28.525">
  <path id="Path_18" data-name="Path 18" d="M229.357,213.914a.557.557,0,1,0-.557-.557.558.558,0,0,0,.557.557Zm0,0" transform="translate(-212.866 -197.98)" fill="#667"/>
  <path id="Path_19" data-name="Path 19" d="M53.357,213.914a.557.557,0,1,0-.557-.557.558.558,0,0,0,.557.557Zm0,0" transform="translate(-49.123 -197.98)" fill="#667"/>
  <path id="Path_20" data-name="Path 20" d="M.557,7.02a.557.557,0,0,0,.557-.557V1.114H6.463A.557.557,0,0,0,6.463,0H.557A.557.557,0,0,0,0,.557V6.463a.557.557,0,0,0,.557.557Zm0,0" fill="#667"/>
  <path id="Path_21" data-name="Path 21" d="M7.02,315.263a.557.557,0,0,0-.557-.557H1.114v-5.349a.557.557,0,0,0-1.114,0v5.906a.557.557,0,0,0,.557.557H6.463a.557.557,0,0,0,.557-.557Zm0,0" transform="translate(0 -287.295)" fill="#667"/>
  <path id="Path_22" data-name="Path 22" d="M315.263,308.8a.557.557,0,0,0-.557.557v5.349h-5.349a.557.557,0,0,0,0,1.114h5.906a.557.557,0,0,0,.557-.557v-5.906a.557.557,0,0,0-.557-.557Zm0,0" transform="translate(-287.295 -287.295)" fill="#667"/>
  <path id="Path_23" data-name="Path 23" d="M315.263,0h-5.906a.557.557,0,0,0,0,1.114h5.349V6.463a.557.557,0,0,0,1.114,0V.557A.557.557,0,0,0,315.263,0Zm0,0" transform="translate(-287.295)" fill="#667"/>
  <path id="Path_24" data-name="Path 24" d="M52.8,266.929a.557.557,0,0,0,.557.557h5.571a.557.557,0,0,0,.557-.557v-5.571a.557.557,0,0,0-.557-.557H53.357a.557.557,0,0,0-.557.557v5.571Zm1.114-5.014h4.457v4.457H53.914Zm0,0" transform="translate(-49.123 -242.637)" fill="#667"/>
  <path id="Path_25" data-name="Path 25" d="M58.929,52.8H53.357a.557.557,0,0,0-.557.557v5.571a.557.557,0,0,0,.557.557h5.571a.557.557,0,0,0,.557-.557V53.357a.557.557,0,0,0-.557-.557Zm-.557,5.571H53.914V53.914h4.457Zm0,0" transform="translate(-49.123 -49.123)" fill="#667"/>
  <path id="Path_26" data-name="Path 26" d="M267.486,53.357a.557.557,0,0,0-.557-.557h-5.571a.557.557,0,0,0-.557.557v5.571a.557.557,0,0,0,.557.557h5.571a.557.557,0,0,0,.557-.557Zm-1.114,5.014h-4.457V53.914h4.457Zm0,0" transform="translate(-242.637 -49.123)" fill="#667"/>
  <path id="Path_27" data-name="Path 27" d="M267.486,266.929v-5.571a.557.557,0,0,0-.557-.557h-5.571a.557.557,0,0,0-.557.557v5.571a.557.557,0,0,0,.557.557h5.571a.557.557,0,0,0,.557-.557Zm-1.114-.557h-4.457v-4.457h4.457Zm0,0" transform="translate(-242.637 -242.637)" fill="#667"/>
  <path id="Path_28" data-name="Path 28" d="M86.471,292.8H85.357a.557.557,0,0,0-.557.557v1.114a.557.557,0,0,0,.557.557h1.114a.557.557,0,0,0,.557-.557v-1.114a.557.557,0,0,0-.557-.557Zm0,0" transform="translate(-78.894 -272.409)" fill="#667"/>
  <path id="Path_29" data-name="Path 29" d="M85.357,87.029h1.114a.557.557,0,0,0,.557-.557V85.357a.557.557,0,0,0-.557-.557H85.357a.557.557,0,0,0-.557.557v1.114a.557.557,0,0,0,.557.557Zm0,0" transform="translate(-78.894 -78.894)" fill="#667"/>
  <path id="Path_30" data-name="Path 30" d="M293.357,87.029h1.114a.557.557,0,0,0,.557-.557V85.357a.557.557,0,0,0-.557-.557h-1.114a.557.557,0,0,0-.557.557v1.114a.557.557,0,0,0,.557.557Zm0,0" transform="translate(-272.409 -78.894)" fill="#667"/>
  <path id="Path_31" data-name="Path 31" d="M293.357,295.029h1.114a.557.557,0,0,0,.557-.557v-1.114a.557.557,0,0,0-.557-.557h-1.114a.557.557,0,0,0-.557.557v1.114a.557.557,0,0,0,.557.557Zm0,0" transform="translate(-272.409 -272.409)" fill="#667"/>
  <path id="Path_32" data-name="Path 32" d="M84.8,213.357a.557.557,0,0,0,.557.557H92.6V216.7a.557.557,0,0,0,1.114,0v-3.343a.557.557,0,0,0-.557-.557h-7.8a.557.557,0,0,0-.557.557Zm0,0" transform="translate(-78.894 -197.98)" fill="#667"/>
  <path id="Path_33" data-name="Path 33" d="M58.929,181.914a.557.557,0,0,0,0-1.114H53.357a.557.557,0,0,0,0,1.114Zm0,0" transform="translate(-49.123 -168.209)" fill="#667"/>
  <path id="Path_34" data-name="Path 34" d="M165.357,181.914h2.229a.557.557,0,1,0,0-1.114h-2.229a.557.557,0,0,0,0,1.114Zm0,0" transform="translate(-153.323 -168.209)" fill="#667"/>
  <path id="Path_35" data-name="Path 35" d="M165.357,52.8a.557.557,0,0,0-.557.557v5.571a.557.557,0,0,0,.557.557h3.9v2.786a.557.557,0,0,0,.557.557h2.229a.557.557,0,1,0,0-1.114h-1.671V58.929a.557.557,0,0,0-.557-.557h-3.9V53.357a.557.557,0,0,0-.557-.557Zm0,0" transform="translate(-153.323 -49.123)" fill="#667"/>
  <path id="Path_36" data-name="Path 36" d="M296.7,180.8h-3.343a.557.557,0,0,0,0,1.114H296.7a.557.557,0,1,0,0-1.114Zm0,0" transform="translate(-272.409 -168.209)" fill="#667"/>
  <path id="Path_37" data-name="Path 37" d="M266.929,212.8h-5.571a.557.557,0,0,0,0,1.114h5.571a.557.557,0,0,0,0-1.114Zm0,0" transform="translate(-242.637 -197.98)" fill="#667"/>
  <path id="Path_38" data-name="Path 38" d="M167.586,292.8h-2.229a.557.557,0,0,0-.557.557V296.7a.557.557,0,1,0,1.114,0v-2.786h1.671a.557.557,0,1,0,0-1.114Zm0,0" transform="translate(-153.323 -272.409)" fill="#667"/>
  <path id="Path_39" data-name="Path 39" d="M199.029,251.486h-1.671a.557.557,0,1,0,0,1.114h2.229a.557.557,0,0,0,.557-.557v-6.686a.557.557,0,0,0-1.114,0Zm0,0" transform="translate(-183.094 -227.752)" fill="#667"/>
  <path id="Path_40" data-name="Path 40" d="M199.586,57.257a.557.557,0,0,0,.557-.557V53.357a.557.557,0,0,0-1.114,0v2.786h-1.671a.557.557,0,1,0,0,1.114Zm0,0" transform="translate(-183.094 -49.123)" fill="#667"/>
</svg>
