<svg width="29" height="29" viewBox="0 0 29 29" fill="none" xmlns="http://www.w3.org/2000/svg">
<path d="M20.1843 7.0302C18.5392 5.77644 16.5736 5.1138 14.5 5.1138C9.32441 5.1138 5.11372 9.3245 5.11372 14.5001C5.11372 19.6757 9.32441 23.8864 14.5 23.8864C17.0071 23.8864 19.3643 22.9101 21.1371 21.1372C21.3675 20.9067 21.3675 20.5331 21.1371 20.3026C20.9066 20.0721 20.5329 20.0721 20.3025 20.3026C18.7526 21.8525 16.6919 22.7061 14.5 22.7061C9.97525 22.7061 6.29401 19.0249 6.29401 14.5001C6.29401 9.97523 9.97515 6.29409 14.5 6.29409C18.1288 6.29409 21.3696 8.72501 22.381 12.2058C22.4719 12.5188 22.7993 12.6987 23.1124 12.6078C23.4254 12.5168 23.6054 12.1894 23.5144 11.8764C22.9589 9.96441 21.7762 8.24325 20.1843 7.0302Z" fill="#666677"/>
<path d="M0.557 7.02C0.630146 7.02 0.702576 7.00559 0.770155 6.9776C0.837733 6.94961 0.899136 6.90858 0.950858 6.85686C1.00258 6.80514 1.04361 6.74373 1.0716 6.67615C1.09959 6.60858 1.114 6.53615 1.114 6.463V1.114H6.463C6.61073 1.114 6.7524 1.05532 6.85686 0.950858C6.96132 0.846401 7.02 0.704726 7.02 0.557C7.02 0.409274 6.96132 0.267599 6.85686 0.163142C6.7524 0.0586838 6.61073 0 6.463 0L0.557 0C0.409274 0 0.267599 0.0586838 0.163142 0.163142C0.0586838 0.267599 0 0.409274 0 0.557L0 6.463C0 6.61073 0.0586838 6.7524 0.163142 6.85686C0.267599 6.96132 0.409274 7.02 0.557 7.02Z" fill="#666677"/>
<path d="M7.02 27.968C7.02 27.8948 7.00559 27.8224 6.9776 27.7548C6.94961 27.6872 6.90858 27.6258 6.85686 27.5741C6.80514 27.5224 6.74373 27.4814 6.67615 27.4534C6.60858 27.4254 6.53615 27.411 6.463 27.411H1.114V22.062C1.114 21.9143 1.05532 21.7726 0.950858 21.6681C0.846401 21.5637 0.704726 21.505 0.557 21.505C0.409274 21.505 0.267599 21.5637 0.163142 21.6681C0.0586838 21.7726 0 21.9143 0 22.062L0 27.968C0 28.1157 0.0586838 28.2574 0.163142 28.3618C0.267599 28.4663 0.409274 28.525 0.557 28.525H6.463C6.61073 28.525 6.7524 28.4663 6.85686 28.3618C6.96132 28.2574 7.02 28.1157 7.02 27.968Z" fill="#666677"/>
<path d="M27.968 21.505C27.8949 21.505 27.8224 21.5194 27.7548 21.5474C27.6873 21.5754 27.6259 21.6164 27.5741 21.6681C27.5224 21.7198 27.4814 21.7813 27.4534 21.8488C27.4254 21.9164 27.411 21.9888 27.411 22.062V27.411H22.062C21.9143 27.411 21.7726 27.4697 21.6681 27.5741C21.5637 27.6786 21.505 27.8203 21.505 27.968C21.505 28.1157 21.5637 28.2574 21.6681 28.3618C21.7726 28.4663 21.9143 28.525 22.062 28.525H27.968C28.1157 28.525 28.2574 28.4663 28.3619 28.3618C28.4663 28.2574 28.525 28.1157 28.525 27.968V22.062C28.525 21.9143 28.4663 21.7726 28.3619 21.6681C28.2574 21.5637 28.1157 21.505 27.968 21.505V21.505Z" fill="#666677"/>
<path d="M27.968 0H22.062C21.9143 0 21.7726 0.0586838 21.6681 0.163142C21.5637 0.267599 21.505 0.409274 21.505 0.557C21.505 0.704726 21.5637 0.846401 21.6681 0.950858C21.7726 1.05532 21.9143 1.114 22.062 1.114H27.411V6.463C27.411 6.61073 27.4697 6.7524 27.5741 6.85686C27.6786 6.96132 27.8203 7.02 27.968 7.02C28.1157 7.02 28.2574 6.96132 28.3619 6.85686C28.4663 6.7524 28.525 6.61073 28.525 6.463V0.557C28.525 0.409274 28.4663 0.267599 28.3619 0.163142C28.2574 0.0586838 28.1157 0 27.968 0V0Z" fill="#666677"/>
<path d="M21.4197 12.7139C21.1891 12.4835 20.8155 12.4835 20.5851 12.7139C20.3546 12.9444 20.3546 13.318 20.5851 13.5485L22.805 15.7685C22.9157 15.8792 23.0658 15.9413 23.2224 15.9413C23.379 15.9413 23.529 15.8792 23.6397 15.7685L25.8596 13.5485C26.0901 13.318 26.0901 12.9444 25.8596 12.7139C25.6291 12.4835 25.2554 12.4835 25.0251 12.7139L23.2224 14.5166L21.4197 12.7139Z" fill="#666677"/>
</svg>
