<svg width="36" height="29" viewBox="0 0 36 29" fill="none" xmlns="http://www.w3.org/2000/svg">
<path d="M6.7477 21.5952C6.85772 21.6825 6.98926 21.7255 7.12021 21.7255C7.296 21.7255 7.47 21.6484 7.58839 21.5001C7.79408 21.2418 7.75163 20.8657 7.49332 20.66C7.01438 20.2785 6.55038 19.8642 6.11508 19.4283L1.69156 15.0048L6.25321 10.4431C10.6385 6.05845 17.0178 4.56181 22.8991 6.5362C23.2118 6.63964 23.5509 6.47222 23.6567 6.1595C23.7613 5.84678 23.5933 5.50715 23.28 5.40191C16.9646 3.28223 10.1159 4.88948 5.40772 9.59703L0 15.0048L5.269 20.2738C5.73599 20.7413 6.23407 21.1856 6.7477 21.5952Z" fill="#666677"/>
<path d="M30.0385 9.59759C29.2324 8.79158 28.3487 8.06449 27.4111 7.43546C27.1373 7.25189 26.7648 7.32484 26.5812 7.5987C26.397 7.87255 26.4706 8.24447 26.7444 8.42863C27.6174 9.01401 28.4414 9.69207 29.1924 10.4431L33.6159 14.8666L29.0543 19.4282C24.6385 23.844 17.9847 25.337 12.1016 23.2287C11.7907 23.1169 11.4481 23.2789 11.3368 23.5899C11.2256 23.9008 11.3871 24.2428 11.698 24.3546C13.6006 25.0363 15.5786 25.3669 17.5434 25.3669C22.1003 25.3669 26.5866 23.5869 29.8997 20.2737L35.3069 14.8666L30.0385 9.59759Z" fill="#666677"/>
<path d="M18.2603 21.8248C16.973 21.8248 15.7185 21.4672 14.6309 20.7904C14.3516 20.617 13.9827 20.7019 13.8075 20.9823C13.6329 21.2627 13.719 21.6311 13.9995 21.8057C15.276 22.6009 16.75 23.0207 18.2603 23.0207C22.7114 23.0207 26.3325 19.3996 26.3325 14.9485C26.3325 13.3431 25.8619 11.792 24.9722 10.4628C24.788 10.1884 24.4161 10.1148 24.1428 10.2984C23.8684 10.4826 23.7948 10.8539 23.9784 11.1277C24.736 12.2596 25.1366 13.5805 25.1366 14.9485C25.1366 18.7406 22.0518 21.8248 18.2603 21.8248Z" fill="#666677"/>
<path d="M18.2603 8.07227C19.4951 8.07227 20.7053 8.40293 21.7613 9.02897C22.0447 9.19699 22.4118 9.10371 22.5804 8.8191C22.7484 8.53508 22.6552 8.16854 22.3705 7.99992C21.1304 7.26506 19.7091 6.8764 18.2597 6.8764C13.8087 6.8764 10.1876 10.4975 10.1876 14.9485C10.1876 16.1946 10.4639 17.3899 11.0092 18.5009C11.1132 18.7125 11.3255 18.8357 11.5467 18.8357C11.6346 18.8357 11.7249 18.816 11.8092 18.7747C12.1058 18.6288 12.2284 18.2707 12.0831 17.9747C11.6191 17.0287 11.3835 16.0111 11.3835 14.9491C11.3841 11.157 14.4688 8.07227 18.2603 8.07227Z" fill="#666677"/>
<path d="M32.6598 0.175344C32.426 -0.0584482 32.0481 -0.0584482 31.8143 0.175344L4.01035 27.9793C3.77656 28.2131 3.77656 28.591 4.01035 28.8248C4.12695 28.9414 4.28002 29 4.43309 29C4.58616 29 4.73923 28.9414 4.85583 28.8248L32.6598 1.02082C32.8936 0.78763 32.8936 0.409137 32.6598 0.175344Z" fill="#666677"/>
</svg>
