<svg width="35" height="21" viewBox="0 0 35 21" fill="none" xmlns="http://www.w3.org/2000/svg">
<path d="M30.1882 6.22281C23.1593 -0.806041 11.7236 -0.806041 4.69477 6.22281L0 10.917L4.81124 15.7282C8.32537 19.2424 12.9415 21 17.5582 21C22.175 21 26.7905 19.2429 30.3052 15.7282L35 11.0335L30.1882 6.22281ZM29.4687 14.8923C22.901 21.4594 12.2149 21.4594 5.6472 14.8923L1.67193 10.917L5.53073 7.05818C12.0984 0.491066 22.7845 0.491066 29.3522 7.05818L33.3275 11.0335L29.4687 14.8923Z" fill="#666677"/>
<path d="M16.8919 6.22812C14.6099 6.22812 12.7535 8.08451 12.7535 10.3666C12.7535 10.6929 13.0184 10.9578 13.3447 10.9578C13.6711 10.9578 13.9359 10.6929 13.9359 10.3666C13.9359 8.73661 15.262 7.41053 16.8919 7.41053C17.2183 7.41053 17.4831 7.14567 17.4831 6.81933C17.4831 6.49298 17.2189 6.22812 16.8919 6.22812Z" fill="#666677"/>
<path d="M17.4831 3.27209C13.2454 3.27209 9.79747 6.72001 9.79747 10.9578C9.79747 15.1955 13.2454 18.6435 17.4831 18.6435C21.7209 18.6435 25.1688 15.1955 25.1688 10.9578C25.1688 6.72001 21.7215 3.27209 17.4831 3.27209ZM17.4831 17.461C13.8975 17.461 10.9799 14.5434 10.9799 10.9578C10.9799 7.37211 13.8975 4.45451 17.4831 4.45451C21.0688 4.45451 23.9864 7.37211 23.9864 10.9578C23.9864 14.5434 21.0694 17.461 17.4831 17.461Z" fill="#666677"/>
</svg>
