<svg width="328" height="328" viewBox="0 0 328 328" fill="none" xmlns="http://www.w3.org/2000/svg">
<path fill-rule="evenodd" clip-rule="evenodd" d="M328 164C328 254.575 254.575 328 164 328C73.4253 328 0 254.575 0 164C0 73.4248 73.4253 0 164 0C254.575 0 328 73.4248 328 164Z" fill="url(#paint0_linear)"/>
<mask id="mask0" mask-type="alpha" maskUnits="userSpaceOnUse" x="89" y="220" width="102" height="74">
<path d="M91.1155 232.003L89.1309 282.875C103.524 289.96 119.72 293.94 136.847 293.94C155.683 293.94 173.395 289.126 188.819 280.66L190.475 220.858" fill="white"/>
</mask>
<g mask="url(#mask0)">
<path fill-rule="evenodd" clip-rule="evenodd" d="M105.815 248.171C112.924 233.673 170.093 239.253 170.093 239.253C170.093 239.253 183.468 293.133 183.865 318.625L95.8263 318.107C95.8263 318.107 98.6486 262.786 105.815 248.171Z" fill="#171A36"/>
</g>
<mask id="mask1" mask-type="alpha" maskUnits="userSpaceOnUse" x="89" y="220" width="102" height="74">
<path d="M91.1155 232.003L89.1309 282.875C103.524 289.96 119.72 293.94 136.847 293.94C155.683 293.94 173.395 289.126 188.819 280.66L190.475 220.858" fill="white"/>
</mask>
<g mask="url(#mask1)">
<path fill-rule="evenodd" clip-rule="evenodd" d="M149.692 259.089L140.618 318.076L158.766 318.454C158.766 318.454 156.876 314.673 150.826 302.195C144.777 289.717 154.985 264.383 149.692 259.089Z" fill="#020202"/>
</g>
<mask id="mask2" mask-type="alpha" maskUnits="userSpaceOnUse" x="89" y="220" width="102" height="74">
<path d="M91.1155 232.003L89.1309 282.875C103.524 289.96 119.72 293.94 136.847 293.94C155.683 293.94 173.395 289.126 188.819 280.66L190.475 220.858" fill="white"/>
</mask>
<g mask="url(#mask2)">
<path fill-rule="evenodd" clip-rule="evenodd" d="M101.291 318.236C101.284 318.236 101.278 318.236 101.271 318.235C101.126 318.224 101.017 318.098 101.028 317.953C101.071 317.379 105.349 260.346 110.564 247.632C110.62 247.498 110.773 247.434 110.908 247.489C111.042 247.544 111.106 247.698 111.051 247.832C105.867 260.469 101.595 317.418 101.553 317.992C101.543 318.13 101.427 318.236 101.291 318.236Z" fill="#020202"/>
</g>
<mask id="mask3" mask-type="alpha" maskUnits="userSpaceOnUse" x="89" y="220" width="102" height="74">
<path d="M91.1155 232.003L89.1309 282.875C103.524 289.96 119.72 293.94 136.847 293.94C155.683 293.94 173.395 289.126 188.819 280.66L190.475 220.858" fill="white"/>
</mask>
<g mask="url(#mask3)">
<path fill-rule="evenodd" clip-rule="evenodd" d="M149.773 259.355C149.739 259.355 149.706 259.354 149.673 259.351C147.511 259.195 142.934 254.108 142.74 253.892C142.643 253.783 142.653 253.617 142.761 253.52C142.869 253.423 143.036 253.432 143.132 253.54C144.413 254.971 148.092 258.709 149.711 258.826C151.312 258.942 154.781 255.058 155.986 253.551C156.076 253.438 156.242 253.42 156.355 253.511C156.469 253.601 156.487 253.767 156.397 253.88C155.943 254.448 151.954 259.355 149.773 259.355Z" fill="#020202"/>
</g>
<path fill-rule="evenodd" clip-rule="evenodd" d="M212.864 210.364L226.771 209.45C226.771 209.45 226.44 204.289 228.684 201.238C230.171 199.217 232.076 195.223 232.418 193.671C232.491 193.34 232.822 193.134 233.148 193.228C234.393 193.587 236.645 195.005 234.323 200.608C234.061 201.239 233.848 201.89 233.67 202.55C233.67 202.55 236.554 203.48 240.419 203.975C242.617 204.256 244.758 214.02 241.592 217.564C238.368 221.173 229.817 218.56 229.817 218.56C229.817 218.56 212.977 226.098 208.906 225.885C204.907 225.677 212.864 210.364 212.864 210.364Z" fill="#F78807"/>
<path fill-rule="evenodd" clip-rule="evenodd" d="M213.492 210.327L218.766 209.971C218.766 209.971 216.684 220.256 219.43 219.299C225.285 217.257 229.777 218.576 229.777 218.576L212.259 225.721L213.492 210.327Z" fill="#D65500"/>
<path fill-rule="evenodd" clip-rule="evenodd" d="M219.391 225.942L169.544 234.708L167.81 226.332L158.031 226.937L167.42 136.184C167.42 136.184 176.493 149.555 182.069 194.562C182.45 197.636 183.247 203.805 183.829 209.739L216.901 210.056L219.391 225.942Z" fill="#1A336F"/>
<path fill-rule="evenodd" clip-rule="evenodd" d="M169.96 218.702C169.96 218.702 165.216 235.255 169.544 234.708C173.871 234.162 198.084 229.692 198.084 229.692C198.084 229.692 170.612 233.417 169.96 218.702Z" fill="#122358"/>
<path fill-rule="evenodd" clip-rule="evenodd" d="M178.649 211.029C178.526 211.029 178.416 210.942 178.391 210.817C178.363 210.674 178.456 210.536 178.598 210.507L183.778 209.481C183.919 209.453 184.058 209.546 184.087 209.688C184.115 209.831 184.022 209.969 183.88 209.998L178.701 211.023C178.683 211.027 178.666 211.029 178.649 211.029Z" fill="#171A36"/>
<path fill-rule="evenodd" clip-rule="evenodd" d="M169.695 228.219C169.501 235.188 169.345 239.57 169.345 239.57L116.191 245.096L109.241 225.222L96.2052 187.952C96.2052 187.952 64.5386 162.043 69.5381 152.04C69.8278 151.461 71.3381 149.816 71.3381 149.816L101.587 128.382C101.587 128.382 115.217 139.408 126.795 135.198C126.795 135.198 133.071 133.808 130.911 126.1C130.911 126.1 161.714 127.723 167.24 135.882C171.582 142.292 170.401 202.658 169.695 228.219Z" fill="#2F57A3"/>
<path fill-rule="evenodd" clip-rule="evenodd" d="M116.191 245.096L169.345 239.57L105.865 248.115C105.865 248.115 108.828 233.785 107.625 230.18C107.031 228.393 107.673 226.735 109.241 225.222L116.191 245.096Z" fill="#4F6EF6"/>
<path fill-rule="evenodd" clip-rule="evenodd" d="M169.345 239.57C169.345 239.57 169.501 235.188 169.695 228.22C170.632 231.43 172.201 233.533 172.798 235.707C173.885 239.66 169.345 239.57 169.345 239.57Z" fill="#4F6EF6"/>
<path fill-rule="evenodd" clip-rule="evenodd" d="M105.864 248.114C105.864 248.114 109.163 232.172 107.721 224.239C106.279 216.307 99.2485 196.297 99.2485 196.297L97.5035 173.682L100.691 180.243C116.761 230.678 139.643 233.16 169.701 226.793L169.645 228.299C169.645 228.299 171.43 232.315 172.6 234.992C173.772 237.67 175.616 244.705 170.353 244.596C168.345 244.554 105.864 248.114 105.864 248.114Z" fill="#1A336F"/>
<path fill-rule="evenodd" clip-rule="evenodd" d="M109.356 226.608L93.8796 181.381L97.5037 173.682C97.5037 173.682 115.012 217.867 109.356 226.608Z" fill="#1A336F"/>
<path fill-rule="evenodd" clip-rule="evenodd" d="M146.118 208.741H146.113C145.968 208.738 145.852 208.618 145.855 208.472C146.308 183.963 125.052 138.662 124.837 138.207C124.775 138.075 124.831 137.918 124.962 137.856C125.094 137.794 125.251 137.85 125.313 137.982C125.528 138.438 146.837 183.85 146.381 208.482C146.378 208.626 146.261 208.741 146.118 208.741Z" fill="#171A36"/>
<path fill-rule="evenodd" clip-rule="evenodd" d="M102.093 90.4861C102.093 90.4861 102.144 124.321 101.6 130.295C101.6 130.295 111.823 140.646 124.789 137.948C132.455 136.353 131.19 127.987 131.19 127.987L122.507 100.091L102.093 90.4861Z" fill="#F88702"/>
<path fill-rule="evenodd" clip-rule="evenodd" d="M108.311 103.028C108.311 103.028 110.857 114.165 124.69 119.716C125.025 119.85 128.813 121.41 129.161 121.538L128.023 117.677L125.669 109.877L108.311 103.028Z" fill="#D65500"/>
<path fill-rule="evenodd" clip-rule="evenodd" d="M120.59 130.714C120.59 130.714 123.055 131.784 123.852 134.957C124.022 135.632 124.481 137.167 125.031 137.774C125.031 137.774 124.493 136.077 124.295 134.798C123.993 132.85 124.274 130.089 125.268 130.032C125.268 130.032 129.407 129.771 130.737 133.588C132.067 137.405 121.195 140.47 117.205 138.215C113.215 135.959 120.59 130.714 120.59 130.714Z" fill="#2F57A3"/>
<path fill-rule="evenodd" clip-rule="evenodd" d="M149.397 241.525C149.311 241.525 149.225 241.482 149.175 241.404C149.097 241.281 149.133 241.118 149.256 241.04C150.833 240.036 151.273 237.041 150.786 234.725C150.395 232.86 149.475 231.642 148.326 231.465C146.786 231.228 146.024 228.728 146.06 224.033C146.087 220.633 146.53 217.252 146.535 217.219C146.554 217.074 146.688 216.973 146.83 216.992C146.974 217.011 147.075 217.144 147.056 217.288C146.571 220.954 145.865 230.554 148.406 230.945C149.801 231.16 150.856 232.498 151.301 234.617C151.817 237.073 151.375 240.316 149.538 241.484C149.495 241.512 149.446 241.525 149.397 241.525Z" fill="#171A36"/>
<path fill-rule="evenodd" clip-rule="evenodd" d="M146.795 217.253C146.795 217.253 147.332 224.715 144.611 225.096C141.889 225.476 141.475 210.688 141.475 210.688L146.795 217.253Z" fill="#171A36"/>
<path fill-rule="evenodd" clip-rule="evenodd" d="M73.7764 148.091C73.7764 148.091 77.3667 148.322 83.6944 145.459C90.0221 142.596 102.115 131.932 102.115 131.932L99.7844 129.567L73.7764 148.091Z" fill="#4A7AC6"/>
<path fill-rule="evenodd" clip-rule="evenodd" d="M117.719 139.06C117.719 139.06 120.317 131.074 123.172 133.271C123.172 133.271 122.651 131.511 120.59 130.714C120.59 130.714 116.685 132.768 117.719 139.06Z" fill="#002855"/>
<path fill-rule="evenodd" clip-rule="evenodd" d="M99.7845 129.567C98.3586 127.994 101.844 121.327 101.844 121.327C101.844 121.327 111.841 130.575 120.59 130.714C120.59 130.714 118.347 133.234 117.812 138.982C117.812 138.982 107.12 137.658 99.7845 129.567Z" fill="#1A336F"/>
<path fill-rule="evenodd" clip-rule="evenodd" d="M124.2 132.966C124.2 132.966 124.136 130.153 125.268 130.032C125.268 130.032 129.455 131.316 130.617 135.472C130.617 135.472 124.566 130.582 124.2 132.966Z" fill="#002855"/>
<path fill-rule="evenodd" clip-rule="evenodd" d="M141.06 162.135C141.366 162.902 141.212 163.683 140.717 163.881C140.221 164.079 139.572 163.617 139.266 162.851C138.961 162.085 139.115 161.303 139.61 161.106C140.105 160.908 140.755 161.369 141.06 162.135Z" fill="#171A36"/>
<path fill-rule="evenodd" clip-rule="evenodd" d="M146.414 177.153C146.719 177.92 146.566 178.701 146.07 178.899C145.574 179.097 144.925 178.635 144.619 177.869C144.314 177.103 144.468 176.321 144.963 176.124C145.459 175.926 146.108 176.387 146.414 177.153Z" fill="#171A36"/>
<path fill-rule="evenodd" clip-rule="evenodd" d="M149.448 193.427C149.554 194.245 149.211 194.964 148.682 195.032C148.153 195.101 147.638 194.493 147.532 193.674C147.427 192.856 147.77 192.137 148.299 192.069C148.829 192.001 149.343 192.609 149.448 193.427Z" fill="#171A36"/>
<path fill-rule="evenodd" clip-rule="evenodd" d="M150.215 223.98C150.32 224.798 149.977 225.517 149.448 225.585C148.919 225.653 148.405 225.045 148.299 224.227C148.194 223.409 148.537 222.69 149.066 222.622C149.595 222.554 150.109 223.162 150.215 223.98Z" fill="#171A36"/>
<path fill-rule="evenodd" clip-rule="evenodd" d="M135.167 147.93C135.473 148.696 135.319 149.477 134.823 149.675C134.328 149.873 133.679 149.411 133.373 148.645C133.067 147.879 133.221 147.097 133.717 146.9C134.212 146.702 134.862 147.163 135.167 147.93Z" fill="#171A36"/>
<path fill-rule="evenodd" clip-rule="evenodd" d="M129.381 121.969C129.244 121.953 129.056 129.055 125.268 130.032C125.268 130.032 130.686 133.162 130.686 136.414C130.686 136.414 135.261 133.644 134.9 126.419C134.9 126.419 131.141 122.176 129.381 121.969Z" fill="#1A336F"/>
<path fill-rule="evenodd" clip-rule="evenodd" d="M63.827 164.031C63.8196 164.031 63.8123 164.031 63.8045 164.03C63.6729 164.017 63.5756 163.901 63.5882 163.769C63.5915 163.732 63.9471 159.998 65.3169 155.967C67.1422 150.594 69.9359 147.13 73.3957 145.947C73.5204 145.905 73.6569 145.971 73.6997 146.096C73.7429 146.221 73.6756 146.358 73.5505 146.401C65.5072 149.15 64.0787 163.667 64.0653 163.813C64.0539 163.937 63.9492 164.031 63.827 164.031Z" fill="#171A36"/>
<path fill-rule="evenodd" clip-rule="evenodd" d="M103.697 71.1656C103.573 71.1656 103.463 71.0776 103.439 70.9517C103.194 69.6624 102.647 68.8345 101.815 68.4906C99.865 67.6846 96.9128 69.6763 96.8831 69.6967C96.7629 69.7786 96.5995 69.748 96.5176 69.6278C96.4353 69.508 96.4659 69.3442 96.5861 69.2619C96.7164 69.1731 99.801 67.0901 102.015 68.0037C103.023 68.4197 103.676 69.378 103.956 70.8531C103.983 70.9957 103.89 71.1338 103.747 71.1607C103.73 71.1639 103.714 71.1656 103.697 71.1656Z" fill="#171A36"/>
<path fill-rule="evenodd" clip-rule="evenodd" d="M135.529 101.891C136.154 99.0762 136.392 96.2044 136.95 93.3159C137.665 89.6133 138.621 85.9546 139.652 82.329C139.707 82.1355 139.763 81.9423 139.818 81.7492C140.306 78.5746 140.599 76.4799 140.721 76.4872C138.719 74.9266 137.45 73.0009 136.182 71.0744C134.914 69.1475 111.303 67.5364 108.009 75.2852C102.924 87.2438 106.397 101.127 106.397 101.127C106.397 101.127 112.162 108.359 118.344 110.692C124.769 113.116 128.194 112.838 130.144 111.799C132.188 110.711 133.339 108.087 134.212 106.068C134.807 104.693 135.216 103.299 135.529 101.891Z" fill="#F88702"/>
<path fill-rule="evenodd" clip-rule="evenodd" d="M141.09 66.4668C138.104 64.0277 133.251 63.5779 129.864 64.1667C126.22 64.8007 124.755 63.256 122.691 61.944C121.455 61.158 119.586 60.7957 117.971 60.6311C116.555 59.9625 111.288 60.9661 110.09 61.4053C103.947 63.6565 102.364 68.6688 102.364 68.6688C94.5864 69.5379 95.5858 80.944 96.1012 84.5554C96.2442 85.973 96.5302 87.3441 96.9197 88.5909C99.2029 95.8923 102.038 102.458 102.038 102.458C102.038 102.458 104.844 89.5591 107.735 88.3098C113.429 85.8491 113.392 75.6226 113.788 72.7145C113.867 72.1334 114.133 72.1628 114.279 72.2553C122.118 77.2092 138.556 84.5403 141.735 78.793C145.22 72.49 143.696 68.7075 141.09 66.4668Z" fill="#171A36"/>
<path fill-rule="evenodd" clip-rule="evenodd" d="M110.859 87.733C110.388 90.6749 108.152 92.7631 105.863 92.3972C103.575 92.0309 102.102 89.349 102.573 86.4071C103.044 83.4648 105.28 81.3765 107.568 81.7428C109.856 82.1087 111.329 84.7907 110.859 87.733Z" fill="#F88702"/>
<path opacity="0.1988" fill-rule="evenodd" clip-rule="evenodd" d="M137.047 66.0293C137.047 66.0293 138.816 66.7648 139.947 67.9484C141.525 69.6019 142.753 71.9493 141.813 73.2475C141.504 73.6745 140.882 73.7186 140.491 73.3649C139.661 72.6123 138.129 71.4657 138.129 73.2394C138.129 75.6728 136.762 75.8838 135.59 74.0812C135.223 73.5152 135.749 71.4237 133.687 70.075C131.04 68.3441 129.561 65.9853 131.911 66.4799C135.335 67.2007 137.438 69.2572 137.498 68.6428C137.607 67.5263 134.794 65.8492 137.047 66.0293Z" fill="#0074FF"/>
<path fill-rule="evenodd" clip-rule="evenodd" d="M108.277 81.006C108.277 81.006 112.468 84.7156 110.329 89.2364C110.822 89.3847 111.35 89.1618 111.584 88.7034C112.833 86.2623 116.278 78.6081 113.788 72.7145L108.277 81.006Z" fill="#171A36"/>
<path fill-rule="evenodd" clip-rule="evenodd" d="M104.692 87.2189C104.671 87.2189 104.648 87.216 104.626 87.2103C104.486 87.1745 104.401 87.031 104.437 86.89C104.459 86.8057 104.987 84.8095 106.4 84.2957C107.139 84.0272 107.964 84.2134 108.851 84.8495C108.969 84.9342 108.996 85.0984 108.911 85.2166C108.826 85.3347 108.662 85.362 108.544 85.2773C107.808 84.7488 107.147 84.585 106.581 84.79C105.429 85.2076 104.952 87.0033 104.947 87.0217C104.916 87.1402 104.81 87.2189 104.692 87.2189Z" fill="#171A36"/>
<path opacity="0.1988" fill-rule="evenodd" clip-rule="evenodd" d="M113.444 75.1495C113.444 73.9214 112.176 73.0788 111.004 73.4435C109.361 73.954 107.111 74.8716 108.725 75.709C111.124 76.953 109.88 77.1306 108.459 78.2858C107.037 79.4405 109.525 80.8622 111.568 80.3292C113.612 79.7959 110.236 78.0189 112.457 76.6861C113.197 76.2419 113.444 75.6894 113.444 75.1495Z" fill="#0074FF"/>
<path fill-rule="evenodd" clip-rule="evenodd" d="M136.934 93.0899C136.934 93.0899 140.649 81.9192 140.199 77.5267C140.179 77.3328 139.914 77.2998 139.843 77.4811C139.329 78.7989 137.591 80.8989 131.708 80.0974C123.443 78.9712 136.934 93.0899 136.934 93.0899Z" fill="#F09102"/>
<path fill-rule="evenodd" clip-rule="evenodd" d="M180.241 186.202L178.291 186.457L169.852 215.077C169.776 215.343 169.537 215.529 169.263 215.543L154.185 216.232L153.064 218.164L151.819 216.264C151.549 216.135 151.388 215.824 151.475 215.509L159.669 185.599C159.74 185.336 159.972 185.147 160.245 185.126L178.17 183.773C178.408 183.754 178.618 183.865 178.741 184.039L178.747 184.031L180.241 186.202Z" fill="#020202"/>
<path fill-rule="evenodd" clip-rule="evenodd" d="M161.17 187.759L152.976 217.668C152.86 218.092 153.191 218.507 153.63 218.487L170.764 217.701C171.04 217.688 171.277 217.502 171.356 217.237L180.341 186.762C180.469 186.328 180.123 185.899 179.671 185.933L161.746 187.284C161.473 187.305 161.242 187.495 161.17 187.759Z" fill="#171A36"/>
<path fill-rule="evenodd" clip-rule="evenodd" d="M137.939 208.376L152.012 204.662C152.012 204.662 150.643 199.438 152.334 195.863C153.455 193.494 154.609 189.019 154.651 187.361C154.66 187.006 154.957 186.729 155.31 186.76C156.658 186.879 159.249 187.883 157.988 194.09C157.845 194.79 157.758 195.499 157.707 196.211C157.707 196.211 160.849 196.589 164.909 196.325C169.57 196.021 175.621 195.024 178.054 194.541C178.502 194.452 180.036 194.914 180.082 196.148C180.141 197.732 176.487 199.424 176.487 199.424C176.487 199.424 175.394 209.758 172.22 211.02C169.047 212.281 156.953 213.393 156.953 213.393L137.352 226.165L137.939 208.376Z" fill="#F88702"/>
<path fill-rule="evenodd" clip-rule="evenodd" d="M168.855 200.437L168.716 200.433C168.571 200.428 168.457 200.306 168.463 200.161C168.468 200.015 168.591 199.903 168.735 199.907L168.853 199.911C171.591 199.802 173.735 199.619 176.235 199.278C176.378 199.258 176.512 199.359 176.532 199.503C176.551 199.647 176.451 199.78 176.306 199.8C173.789 200.143 171.63 200.327 168.855 200.437Z" fill="#C85B1C"/>
<path fill-rule="evenodd" clip-rule="evenodd" d="M168.294 203.804L168.155 203.8C168.01 203.795 167.896 203.673 167.901 203.528C167.907 203.382 168.026 203.268 168.173 203.274L168.292 203.278C170.994 203.17 173.236 202.977 175.767 202.632C175.91 202.612 176.044 202.713 176.063 202.858C176.083 203.002 175.982 203.134 175.838 203.154C173.289 203.501 171.033 203.695 168.294 203.804Z" fill="#C85B1C"/>
<path fill-rule="evenodd" clip-rule="evenodd" d="M167.545 207.046L167.407 207.042C167.262 207.037 167.148 206.915 167.153 206.77C167.158 206.624 167.28 206.51 167.426 206.516L167.544 206.52C170.245 206.412 172.487 206.219 175.019 205.874C175.161 205.855 175.295 205.956 175.315 206.1C175.335 206.244 175.234 206.376 175.09 206.396C172.54 206.743 170.284 206.937 167.545 207.046Z" fill="#C85B1C"/>
<path fill-rule="evenodd" clip-rule="evenodd" d="M141.071 207.535L143.911 206.796C143.911 206.796 143.83 217.754 146.453 216.224C152.047 212.962 156.916 213.417 156.916 213.417L140.384 224.24L141.071 207.535Z" fill="#D65500"/>
<path fill-rule="evenodd" clip-rule="evenodd" d="M143.031 206.943C119.348 212.203 93.8219 218.515 93.8219 218.515L96.5593 199.13C96.8584 197.013 97.065 194.884 97.1799 192.748C97.4989 186.824 98.2131 174.209 97.5082 171.177C93.7428 154.976 78.3911 151.101 71.9647 151.075C70.5371 151.07 70.1211 151.303 69.8567 151.638C68.7147 153.088 67.5234 155.56 66.3594 160.097C65.1135 164.954 64.2612 169.834 63.6794 174.735C63.505 179.769 63.8403 186.432 64.22 191.845C64.5516 196.57 64.4995 201.319 63.9405 206.023C62.99 214.013 64.385 227.102 64.9978 232.135C67.49 242.489 71.3308 251.385 73.9782 252.653C83.9361 257.423 144.607 225.102 144.607 225.102C143.286 223.713 142.576 221.853 142.635 219.937L143.031 206.943Z" fill="#2F57A3"/>
<path fill-rule="evenodd" clip-rule="evenodd" d="M97.0928 171.145C96.9705 171.145 96.8613 171.059 96.8353 170.935C94.0314 157.477 79.4765 153.013 79.3298 152.97C79.1905 152.929 79.1111 152.782 79.1522 152.642C79.1938 152.503 79.3404 152.424 79.4794 152.465C79.6289 152.51 94.4816 157.058 97.3507 170.828C97.3804 170.97 97.2887 171.11 97.1465 171.139C97.1286 171.143 97.1103 171.145 97.0928 171.145Z" fill="#171A36"/>
<path fill-rule="evenodd" clip-rule="evenodd" d="M86.1569 220.383C86.0351 220.383 85.9259 220.298 85.8998 220.174C85.8697 220.031 85.9609 219.892 86.1031 219.862L93.768 218.258C93.9106 218.228 94.05 218.319 94.0797 218.461C94.1094 218.604 94.0182 218.743 93.876 218.773L86.2111 220.377C86.1928 220.381 86.1748 220.383 86.1569 220.383Z" fill="#171A36"/>
<path fill-rule="evenodd" clip-rule="evenodd" d="M142.846 213.092L143.029 207.027L116.107 213.041C116.107 213.041 112.568 214.591 117.143 214.414C120.347 214.289 142.243 216.197 142.846 213.092Z" fill="#4A7AC6"/>
<path opacity="0.634463" fill-rule="evenodd" clip-rule="evenodd" d="M160.946 186.98L175.435 185.887C175.435 185.887 223.553 94.9874 225 92.2879C225 92.2879 155.217 70.4735 139 71.0097L160.804 187L160.946 186.98Z" fill="url(#paint1_linear)"/>
<g opacity="0.674781">
<path opacity="0.674781" fill-rule="evenodd" clip-rule="evenodd" d="M162.016 120.808H169.864V116.854H162.016V120.808Z" fill="#171A36"/>
<path opacity="0.674781" fill-rule="evenodd" clip-rule="evenodd" d="M160.761 120.808H168.61V116.854H160.761V120.808Z" fill="#4A7AC6"/>
<path opacity="0.674781" fill-rule="evenodd" clip-rule="evenodd" d="M185.828 120.808H193.677V116.854H185.828V120.808Z" fill="#171A36"/>
<path opacity="0.674781" fill-rule="evenodd" clip-rule="evenodd" d="M184.573 120.808H192.422V116.854H184.573V120.808Z" fill="#4A7AC6"/>
<path opacity="0.674781" fill-rule="evenodd" clip-rule="evenodd" d="M154.968 117.524L152.399 72.1102L198.884 72.5883L197.049 118.241L154.968 117.524Z" fill="url(#paint2_linear)"/>
<path opacity="0.674781" fill-rule="evenodd" clip-rule="evenodd" d="M156.67 76.9963L158.451 113.594L193.233 113.674L194.249 77.1102L156.67 76.9963Z" fill="url(#paint3_linear)"/>
<path opacity="0.674781" fill-rule="evenodd" clip-rule="evenodd" d="M197.049 118.241L198.017 118.232L199.856 72.9565L198.884 72.5881L197.049 118.241Z" fill="#171A36"/>
<path opacity="0.674781" fill-rule="evenodd" clip-rule="evenodd" d="M198.017 118.232L209.74 118.169L210.334 110.492L212.844 78.0273L199.856 72.9565L198.666 102.267L198.017 118.232Z" fill="url(#paint4_linear)"/>
<path opacity="0.408598" fill-rule="evenodd" clip-rule="evenodd" d="M198.933 102.702C201.439 114.773 210.333 110.492 210.333 110.492L209.74 118.169L198.017 118.232L198.659 102.504C198.659 102.504 198.916 102.62 198.933 102.702Z" fill="#1A336F"/>
<path opacity="0.674781" fill-rule="evenodd" clip-rule="evenodd" d="M169.014 90.8499C169.014 91.9068 168.138 92.7632 167.056 92.7632C165.974 92.7632 165.097 91.9068 165.097 90.8499C165.097 89.7931 165.974 88.9367 167.056 88.9367C168.138 88.9367 169.014 89.7931 169.014 90.8499Z" fill="#171A36"/>
<path opacity="0.674781" fill-rule="evenodd" clip-rule="evenodd" d="M168.406 90.8413C168.406 91.8253 167.624 92.6234 166.661 92.6234C165.697 92.6234 164.916 91.8253 164.916 90.8413C164.916 89.8574 165.697 89.0592 166.661 89.0592C167.624 89.0592 168.406 89.8574 168.406 90.8413Z" fill="#78A4E9"/>
<path opacity="0.674781" fill-rule="evenodd" clip-rule="evenodd" d="M164.911 90.6478C164.911 90.6478 164.892 90.9925 164.958 91.2662C164.965 91.294 167.286 89.176 167.167 89.1403C166.998 89.0895 166.724 89.0374 166.386 89.0829L164.911 90.6478Z" fill="white" fill-opacity="0.375492"/>
<path opacity="0.674781" fill-rule="evenodd" clip-rule="evenodd" d="M165.088 91.6184L167.579 89.3277C167.579 89.3277 168.161 89.6685 168.356 90.3823L166.155 92.5578C166.155 92.5578 165.478 92.3604 165.088 91.6184Z" fill="white" fill-opacity="0.375492"/>
<path opacity="0.674781" fill-rule="evenodd" clip-rule="evenodd" d="M174.298 90.8499C174.298 91.9068 173.422 92.7632 172.34 92.7632C171.258 92.7632 170.381 91.9068 170.381 90.8499C170.381 89.7931 171.258 88.9367 172.34 88.9367C173.422 88.9367 174.298 89.7931 174.298 90.8499Z" fill="#171A36"/>
<path opacity="0.674781" fill-rule="evenodd" clip-rule="evenodd" d="M173.69 90.8413C173.69 91.8253 172.909 92.6234 171.945 92.6234C170.981 92.6234 170.2 91.8253 170.2 90.8413C170.2 89.8574 170.981 89.0592 171.945 89.0592C172.909 89.0592 173.69 89.8574 173.69 90.8413Z" fill="#78A4E9"/>
<path opacity="0.674781" fill-rule="evenodd" clip-rule="evenodd" d="M170.195 90.6478C170.195 90.6478 170.176 90.9925 170.242 91.2662C170.249 91.294 172.57 89.176 172.451 89.1403C172.282 89.0895 172.008 89.0374 171.67 89.0829L170.195 90.6478Z" fill="white" fill-opacity="0.375492"/>
<path opacity="0.674781" fill-rule="evenodd" clip-rule="evenodd" d="M170.372 91.6184L172.863 89.3277C172.863 89.3277 173.445 89.6685 173.641 90.3823L171.439 92.5578C171.439 92.5578 170.762 92.3604 170.372 91.6184Z" fill="white" fill-opacity="0.375492"/>
<path opacity="0.674781" fill-rule="evenodd" clip-rule="evenodd" d="M179.677 90.8499C179.677 91.9068 178.8 92.7632 177.719 92.7632C176.637 92.7632 175.76 91.9068 175.76 90.8499C175.76 89.7931 176.637 88.9367 177.719 88.9367C178.8 88.9367 179.677 89.7931 179.677 90.8499Z" fill="#171A36"/>
<path opacity="0.674781" fill-rule="evenodd" clip-rule="evenodd" d="M179.068 90.8413C179.068 91.8253 178.287 92.6234 177.323 92.6234C176.359 92.6234 175.578 91.8253 175.578 90.8413C175.578 89.8574 176.359 89.0592 177.323 89.0592C178.287 89.0592 179.068 89.8574 179.068 90.8413Z" fill="#78A4E9"/>
<path opacity="0.674781" fill-rule="evenodd" clip-rule="evenodd" d="M175.573 90.6478C175.573 90.6478 175.555 90.9925 175.621 91.2662C175.628 91.294 177.949 89.176 177.83 89.1403C177.661 89.0895 177.387 89.0374 177.049 89.0829L175.573 90.6478Z" fill="white" fill-opacity="0.375492"/>
<path opacity="0.674781" fill-rule="evenodd" clip-rule="evenodd" d="M175.75 91.6184L178.242 89.3277C178.242 89.3277 178.824 89.6685 179.019 90.3823L176.818 92.5578C176.818 92.5578 176.141 92.3604 175.75 91.6184Z" fill="white" fill-opacity="0.375492"/>
<path opacity="0.674781" fill-rule="evenodd" clip-rule="evenodd" d="M184.929 90.8499C184.929 91.9068 184.052 92.7632 182.971 92.7632C181.889 92.7632 181.012 91.9068 181.012 90.8499C181.012 89.7931 181.889 88.9367 182.971 88.9367C184.052 88.9367 184.929 89.7931 184.929 90.8499Z" fill="#171A36"/>
<path opacity="0.674781" fill-rule="evenodd" clip-rule="evenodd" d="M184.321 90.8413C184.321 91.8253 183.539 92.6234 182.576 92.6234C181.612 92.6234 180.831 91.8253 180.831 90.8413C180.831 89.8574 181.612 89.0592 182.576 89.0592C183.539 89.0592 184.321 89.8574 184.321 90.8413Z" fill="#78A4E9"/>
<path opacity="0.674781" fill-rule="evenodd" clip-rule="evenodd" d="M180.826 90.6478C180.826 90.6478 180.807 90.9925 180.873 91.2662C180.88 91.294 183.201 89.176 183.082 89.1403C182.913 89.0895 182.639 89.0374 182.301 89.0829L180.826 90.6478Z" fill="white" fill-opacity="0.375492"/>
<path opacity="0.674781" fill-rule="evenodd" clip-rule="evenodd" d="M181.003 91.6184L183.494 89.3277C183.494 89.3277 184.076 89.6685 184.272 90.3823L182.07 92.5578C182.07 92.5578 181.394 92.3604 181.003 91.6184Z" fill="white" fill-opacity="0.375492"/>
<path opacity="0.674781" fill-rule="evenodd" clip-rule="evenodd" d="M169.107 96.2701C169.107 97.3269 168.23 98.1833 167.148 98.1833C166.066 98.1833 165.19 97.3269 165.19 96.2701C165.19 95.2133 166.066 94.3569 167.148 94.3569C168.23 94.3569 169.107 95.2133 169.107 96.2701Z" fill="#171A36"/>
<path opacity="0.674781" fill-rule="evenodd" clip-rule="evenodd" d="M168.498 96.2615C168.498 97.2455 167.717 98.0436 166.753 98.0436C165.789 98.0436 165.008 97.2455 165.008 96.2615C165.008 95.2775 165.789 94.4794 166.753 94.4794C167.717 94.4794 168.498 95.2775 168.498 96.2615Z" fill="#78A4E9"/>
<path opacity="0.674781" fill-rule="evenodd" clip-rule="evenodd" d="M165.003 96.0679C165.003 96.0679 164.985 96.4122 165.051 96.6864C165.058 96.7142 167.378 94.5961 167.26 94.5604C167.091 94.5096 166.816 94.4575 166.478 94.503L165.003 96.0679Z" fill="white" fill-opacity="0.375492"/>
<path opacity="0.674781" fill-rule="evenodd" clip-rule="evenodd" d="M165.18 97.0385L167.672 94.7479C167.672 94.7479 168.253 95.0887 168.449 95.8025L166.248 97.9779C166.248 97.9779 165.571 97.7806 165.18 97.0385Z" fill="white" fill-opacity="0.375492"/>
<path opacity="0.674781" fill-rule="evenodd" clip-rule="evenodd" d="M174.391 96.2701C174.391 97.3269 173.514 98.1833 172.432 98.1833C171.35 98.1833 170.474 97.3269 170.474 96.2701C170.474 95.2133 171.35 94.3569 172.432 94.3569C173.514 94.3569 174.391 95.2133 174.391 96.2701Z" fill="#171A36"/>
<path opacity="0.674781" fill-rule="evenodd" clip-rule="evenodd" d="M173.782 96.2615C173.782 97.2455 173.001 98.0436 172.037 98.0436C171.073 98.0436 170.292 97.2455 170.292 96.2615C170.292 95.2775 171.073 94.4794 172.037 94.4794C173.001 94.4794 173.782 95.2775 173.782 96.2615Z" fill="#78A4E9"/>
<path opacity="0.674781" fill-rule="evenodd" clip-rule="evenodd" d="M170.287 96.0679C170.287 96.0679 170.269 96.4122 170.335 96.6864C170.342 96.7142 172.663 94.5961 172.544 94.5604C172.375 94.5096 172.1 94.4575 171.763 94.503L170.287 96.0679Z" fill="white" fill-opacity="0.375492"/>
<path opacity="0.674781" fill-rule="evenodd" clip-rule="evenodd" d="M170.464 97.0385L172.956 94.7479C172.956 94.7479 173.537 95.0887 173.733 95.8025L171.532 97.9779C171.532 97.9779 170.855 97.7806 170.464 97.0385Z" fill="white" fill-opacity="0.375492"/>
<path opacity="0.674781" fill-rule="evenodd" clip-rule="evenodd" d="M179.769 96.2701C179.769 97.3269 178.893 98.1833 177.811 98.1833C176.729 98.1833 175.852 97.3269 175.852 96.2701C175.852 95.2133 176.729 94.3569 177.811 94.3569C178.893 94.3569 179.769 95.2133 179.769 96.2701Z" fill="#171A36"/>
<path opacity="0.674781" fill-rule="evenodd" clip-rule="evenodd" d="M179.161 96.2615C179.161 97.2455 178.38 98.0436 177.416 98.0436C176.452 98.0436 175.671 97.2455 175.671 96.2615C175.671 95.2775 176.452 94.4794 177.416 94.4794C178.38 94.4794 179.161 95.2775 179.161 96.2615Z" fill="#78A4E9"/>
<path opacity="0.674781" fill-rule="evenodd" clip-rule="evenodd" d="M175.666 96.0679C175.666 96.0679 175.647 96.4122 175.713 96.6864C175.72 96.7142 178.041 94.5961 177.923 94.5604C177.754 94.5096 177.479 94.4575 177.141 94.503L175.666 96.0679Z" fill="white" fill-opacity="0.375492"/>
<path opacity="0.674781" fill-rule="evenodd" clip-rule="evenodd" d="M175.843 97.0385L178.334 94.7479C178.334 94.7479 178.916 95.0887 179.112 95.8025L176.91 97.9779C176.91 97.9779 176.234 97.7806 175.843 97.0385Z" fill="white" fill-opacity="0.375492"/>
<path opacity="0.674781" fill-rule="evenodd" clip-rule="evenodd" d="M185.079 96.1522C185.079 97.209 184.202 98.0654 183.12 98.0654C182.038 98.0654 181.161 97.209 181.161 96.1522C181.161 95.0954 182.038 94.239 183.12 94.239C184.202 94.239 185.079 95.0954 185.079 96.1522Z" fill="#171A36"/>
<path opacity="0.674781" fill-rule="evenodd" clip-rule="evenodd" d="M184.47 96.1436C184.47 97.1276 183.689 97.9257 182.725 97.9257C181.761 97.9257 180.98 97.1276 180.98 96.1436C180.98 95.1596 181.761 94.3615 182.725 94.3615C183.689 94.3615 184.47 95.1596 184.47 96.1436Z" fill="#78A4E9"/>
<path opacity="0.674781" fill-rule="evenodd" clip-rule="evenodd" d="M180.975 95.95C180.975 95.95 180.957 96.2948 181.023 96.5685C181.029 96.5963 183.351 94.4783 183.232 94.4425C183.063 94.3917 182.788 94.3396 182.451 94.3851L180.975 95.95Z" fill="white" fill-opacity="0.375492"/>
<path opacity="0.674781" fill-rule="evenodd" clip-rule="evenodd" d="M181.152 96.9208L183.644 94.6302C183.644 94.6302 184.225 94.9705 184.421 95.6848L182.219 97.8598C182.219 97.8598 181.543 97.6624 181.152 96.9208Z" fill="white" fill-opacity="0.375492"/>
<path opacity="0.674781" fill-rule="evenodd" clip-rule="evenodd" d="M169.107 101.781C169.107 102.837 168.23 103.694 167.148 103.694C166.066 103.694 165.19 102.837 165.19 101.781C165.19 100.724 166.066 99.8674 167.148 99.8674C168.23 99.8674 169.107 100.724 169.107 101.781Z" fill="#171A36"/>
<path opacity="0.674781" fill-rule="evenodd" clip-rule="evenodd" d="M168.498 101.772C168.498 102.756 167.717 103.554 166.753 103.554C165.789 103.554 165.008 102.756 165.008 101.772C165.008 100.788 165.789 99.9899 166.753 99.9899C167.717 99.9899 168.498 100.788 168.498 101.772Z" fill="#78A4E9"/>
<path opacity="0.674781" fill-rule="evenodd" clip-rule="evenodd" d="M165.003 101.578C165.003 101.578 164.985 101.923 165.051 102.197C165.058 102.225 167.378 100.107 167.26 100.071C167.091 100.02 166.816 99.968 166.478 100.013L165.003 101.578Z" fill="white" fill-opacity="0.375492"/>
<path opacity="0.674781" fill-rule="evenodd" clip-rule="evenodd" d="M165.18 102.549L167.672 100.258C167.672 100.258 168.253 100.599 168.449 101.313L166.248 103.488C166.248 103.488 165.571 103.291 165.18 102.549Z" fill="white" fill-opacity="0.375492"/>
<path opacity="0.674781" fill-rule="evenodd" clip-rule="evenodd" d="M174.391 101.781C174.391 102.837 173.514 103.694 172.432 103.694C171.35 103.694 170.474 102.837 170.474 101.781C170.474 100.724 171.35 99.8674 172.432 99.8674C173.514 99.8674 174.391 100.724 174.391 101.781Z" fill="#171A36"/>
<path opacity="0.674781" fill-rule="evenodd" clip-rule="evenodd" d="M173.782 101.772C173.782 102.756 173.001 103.554 172.037 103.554C171.073 103.554 170.292 102.756 170.292 101.772C170.292 100.788 171.073 99.9899 172.037 99.9899C173.001 99.9899 173.782 100.788 173.782 101.772Z" fill="#78A4E9"/>
<path opacity="0.674781" fill-rule="evenodd" clip-rule="evenodd" d="M170.287 101.578C170.287 101.578 170.269 101.923 170.335 102.197C170.342 102.225 172.663 100.107 172.544 100.071C172.375 100.02 172.1 99.968 171.763 100.013L170.287 101.578Z" fill="white" fill-opacity="0.375492"/>
<path opacity="0.674781" fill-rule="evenodd" clip-rule="evenodd" d="M170.464 102.549L172.956 100.258C172.956 100.258 173.537 100.599 173.733 101.313L171.532 103.488C171.532 103.488 170.855 103.291 170.464 102.549Z" fill="white" fill-opacity="0.375492"/>
<path opacity="0.674781" fill-rule="evenodd" clip-rule="evenodd" d="M179.769 101.781C179.769 102.837 178.893 103.694 177.811 103.694C176.729 103.694 175.852 102.837 175.852 101.781C175.852 100.724 176.729 99.8674 177.811 99.8674C178.893 99.8674 179.769 100.724 179.769 101.781Z" fill="#171A36"/>
<path opacity="0.674781" fill-rule="evenodd" clip-rule="evenodd" d="M179.161 101.772C179.161 102.756 178.38 103.554 177.416 103.554C176.452 103.554 175.671 102.756 175.671 101.772C175.671 100.788 176.452 99.9899 177.416 99.9899C178.38 99.9899 179.161 100.788 179.161 101.772Z" fill="#78A4E9"/>
<path opacity="0.674781" fill-rule="evenodd" clip-rule="evenodd" d="M175.666 101.578C175.666 101.578 175.647 101.923 175.713 102.197C175.72 102.225 178.041 100.107 177.923 100.071C177.754 100.02 177.479 99.968 177.141 100.013L175.666 101.578Z" fill="white" fill-opacity="0.375492"/>
<path opacity="0.674781" fill-rule="evenodd" clip-rule="evenodd" d="M175.843 102.549L178.334 100.258C178.334 100.258 178.916 100.599 179.112 101.313L176.91 103.488C176.91 103.488 176.234 103.291 175.843 102.549Z" fill="white" fill-opacity="0.375492"/>
<path opacity="0.674781" fill-rule="evenodd" clip-rule="evenodd" d="M185.022 101.781C185.022 102.837 184.145 103.694 183.064 103.694C181.981 103.694 181.105 102.837 181.105 101.781C181.105 100.724 181.981 99.8674 183.064 99.8674C184.145 99.8674 185.022 100.724 185.022 101.781Z" fill="#171A36"/>
<path opacity="0.674781" fill-rule="evenodd" clip-rule="evenodd" d="M184.413 101.772C184.413 102.756 183.632 103.554 182.668 103.554C181.704 103.554 180.923 102.756 180.923 101.772C180.923 100.788 181.704 99.9899 182.668 99.9899C183.632 99.9899 184.413 100.788 184.413 101.772Z" fill="#78A4E9"/>
<path opacity="0.674781" fill-rule="evenodd" clip-rule="evenodd" d="M180.918 101.578C180.918 101.578 180.9 101.923 180.966 102.197C180.973 102.225 183.294 100.107 183.175 100.071C183.006 100.02 182.732 99.968 182.394 100.013L180.918 101.578Z" fill="white" fill-opacity="0.375492"/>
<path opacity="0.674781" fill-rule="evenodd" clip-rule="evenodd" d="M181.095 102.549L183.587 100.258C183.587 100.258 184.168 100.599 184.364 101.313L182.163 103.488C182.163 103.488 181.486 103.291 181.095 102.549Z" fill="white" fill-opacity="0.375492"/>
<path opacity="0.674781" fill-rule="evenodd" clip-rule="evenodd" d="M158.451 113.836C158.319 113.836 158.21 113.735 158.203 113.605L156.422 77.008C156.419 76.9414 156.444 76.8769 156.491 76.8288C156.537 76.7811 156.603 76.7542 156.67 76.7542H156.671L194.25 76.8676C194.387 76.8681 194.498 76.9771 194.498 77.1109C194.497 77.2446 194.374 77.3563 194.249 77.3523L156.93 77.2393L158.699 113.582C158.705 113.716 158.6 113.83 158.463 113.836C158.459 113.836 158.455 113.836 158.451 113.836Z" fill="#171A36"/>
<path opacity="0.674781" fill-rule="evenodd" clip-rule="evenodd" d="M189.585 90.282L189.459 94.7432L195.892 94.733L196.049 90.421L189.585 90.282Z" fill="#4A7AC6"/>
<path opacity="0.674781" fill-rule="evenodd" clip-rule="evenodd" d="M195.927 94.7619L196.049 90.4212L195.315 90.408L195.275 94.1187L189.488 94.1059L189.459 94.7434L195.927 94.7619Z" fill="#171A36"/>
<path opacity="0.674781" fill-rule="evenodd" clip-rule="evenodd" d="M189.488 94.7606H189.486C189.349 94.7598 189.239 94.6503 189.24 94.5161L189.276 90.2796C189.277 90.2147 189.304 90.1524 189.352 90.107C189.4 90.0619 189.465 90.0377 189.531 90.0394L195.945 90.2173C196.082 90.2213 196.19 90.333 196.186 90.4663C196.182 90.6005 196.067 90.7056 195.931 90.702L189.77 90.5308L189.736 94.5205C189.735 94.6534 189.624 94.7606 189.488 94.7606Z" fill="white"/>
<path opacity="0.674781" fill-rule="evenodd" clip-rule="evenodd" d="M189.451 102.131L189.325 106.592L195.758 106.582L195.915 102.271L189.451 102.131Z" fill="#4A7AC6"/>
<path opacity="0.674781" fill-rule="evenodd" clip-rule="evenodd" d="M195.793 106.611L195.915 102.27L195.181 102.257L195.141 105.968L189.354 105.955L189.325 106.592L195.793 106.611Z" fill="#171A36"/>
<path opacity="0.674781" fill-rule="evenodd" clip-rule="evenodd" d="M189.354 106.61H189.352C189.215 106.609 189.105 106.499 189.106 106.365L189.142 102.129C189.143 102.064 189.17 102.002 189.218 101.956C189.266 101.911 189.333 101.887 189.397 101.889L195.811 102.066C195.948 102.07 196.056 102.182 196.052 102.316C196.048 102.45 195.931 102.554 195.797 102.551L189.636 102.38L189.602 106.37C189.601 106.502 189.49 106.61 189.354 106.61Z" fill="white"/>
</g>
<path d="M123.592 156L104 160.915L107.643 170.448C108.517 172.736 110.201 174.624 112.374 175.753L113.07 176.114C114.168 176.684 115.438 176.827 116.636 176.515L123.574 174.707C124.531 174.457 125.362 173.862 125.906 173.035C127.23 171.021 127.575 168.516 126.844 166.219L123.592 156Z" fill="#3E68B6"/>
<path d="M124.592 157L105 161.915L108.643 171.448C109.517 173.736 111.201 175.624 113.374 176.753L114.07 177.114C115.168 177.684 116.438 177.827 117.636 177.515L124.574 175.707C125.531 175.457 126.362 174.862 126.906 174.035C128.23 172.021 128.575 169.516 127.844 167.219L124.592 157Z" fill="#1A336F"/>
<g opacity="0.9" clip-path="url(#clip0)">
<path d="M118.298 166.991C118.298 166.991 118.516 166.67 118.443 166.229C118.375 165.805 118.227 165.583 117.391 165.763L117.264 165.115L116.893 165.188L117.021 165.836L116.736 165.891L116.609 165.244L116.225 165.319L116.346 165.938L115.621 166.111L115.704 166.531L116.036 166.466C116.036 166.466 116.189 166.421 116.226 166.68C116.262 166.938 116.557 168.366 116.557 168.366C116.557 168.366 116.595 168.484 116.469 168.524C116.344 168.564 116.109 168.595 116.109 168.595L116.197 169.045L116.956 168.896L117.086 169.558L117.457 169.485L117.333 168.852L117.617 168.797L117.741 169.43L118.084 169.362L117.957 168.715C117.957 168.715 118.988 168.542 118.965 167.893C118.94 167.237 118.702 166.942 118.298 166.991ZM116.797 166.347C116.797 166.347 117.659 165.991 117.796 166.542C117.933 167.093 116.945 167.101 116.945 167.101L116.797 166.347ZM118.199 167.679C118.335 168.37 117.199 168.392 117.199 168.392L117.033 167.547C118.18 167.212 118.199 167.679 118.199 167.679Z" fill="white"/>
<path d="M120.195 166.561L120.091 166.414L122.857 164.412L122.965 164.558L120.195 166.561Z" fill="url(#paint5_linear)"/>
<path d="M118.338 172.618L114.227 167.857L114.223 167.834C114.191 167.672 114.415 165.043 114.459 164.516L114.466 164.447L118.877 163.581L120.243 166.48L118.338 172.618ZM114.399 167.779L118.262 172.255L120.047 166.494L118.77 163.785L114.631 164.598C114.531 165.793 114.391 167.534 114.399 167.779Z" fill="url(#paint6_linear)"/>
<path d="M118.325 172.573L110.853 166.842L112.291 163.943L114.053 162.612L118.637 161.712L120.611 162.312L123.027 164.47L118.325 172.573ZM111.081 166.79L118.271 172.301L122.795 164.504L120.52 162.473L118.626 161.901L114.131 162.784L112.438 164.061L111.081 166.79Z" fill="url(#paint7_linear)"/>
<path d="M114.526 164.615L112.344 164.091L112.385 163.916L114.571 164.435L114.526 164.615Z" fill="url(#paint8_linear)"/>
<path d="M118.875 163.756L118.767 163.61L120.513 162.319L120.622 162.465L118.875 163.756Z" fill="url(#paint9_linear)"/>
<path d="M114.284 167.901L110.945 166.904L110.994 166.731L114.337 167.727L114.284 167.901Z" fill="url(#paint10_linear)"/>
</g>
<path d="M107 163.5L109.44 169.599C110.438 172.094 112.398 174.082 114.878 175.116L115.272 175.28C116.386 175.744 117.631 175.79 118.776 175.408L123.89 173.703C125.199 173.267 126.183 172.176 126.483 170.829V170.829C126.82 169.31 126.699 167.726 126.135 166.277L123.5 159.5" stroke="#1A336F" stroke-opacity="0.51" stroke-width="0.5" stroke-linejoin="round" stroke-dasharray="1 1"/>
<path fill-rule="evenodd" clip-rule="evenodd" d="M93.6348 317.044C93.5845 317.044 93.5336 317.034 93.4845 317.014C62.9128 304.375 36.4811 281.855 19.0586 253.601C18.9446 253.415 19.0019 253.173 19.1867 253.058C19.3721 252.945 19.6147 253.002 19.7282 253.187C37.0647 281.301 63.3654 303.71 93.7851 316.286C93.9862 316.369 94.0815 316.599 93.9985 316.8C93.9359 316.952 93.7892 317.044 93.6348 317.044Z" fill="#171A36"/>
<defs>
<linearGradient id="paint0_linear" x1="149" y1="13" x2="190" y2="328" gradientUnits="userSpaceOnUse">
<stop offset="0.102289" stop-color="#F0C353"/>
<stop offset="1" stop-color="#FF9E0C"/>
</linearGradient>
<linearGradient id="paint1_linear" x1="179.254" y1="156.828" x2="184.227" y2="107.115" gradientUnits="userSpaceOnUse">
<stop stop-color="#FF0909" stop-opacity="0.502458"/>
<stop offset="1" stop-color="#8DBBFF" stop-opacity="0"/>
</linearGradient>
<linearGradient id="paint2_linear" x1="175.642" y1="72.1102" x2="175.642" y2="118.241" gradientUnits="userSpaceOnUse">
<stop stop-color="#9EC9FF" stop-opacity="0.221564"/>
<stop offset="1" stop-color="#2F57A3"/>
</linearGradient>
<linearGradient id="paint3_linear" x1="173.924" y1="76.9963" x2="173.924" y2="87.1824" gradientUnits="userSpaceOnUse">
<stop stop-color="#5C88CD"/>
<stop offset="1" stop-color="#4A7AC6"/>
</linearGradient>
<linearGradient id="paint4_linear" x1="206.002" y1="75.0166" x2="203.342" y2="106.992" gradientUnits="userSpaceOnUse">
<stop stop-color="#5C90D0" stop-opacity="0.417723"/>
<stop offset="1" stop-color="#2F57A3"/>
</linearGradient>
<linearGradient id="paint5_linear" x1="121.374" y1="164.705" x2="121.681" y2="166.27" gradientUnits="userSpaceOnUse">
<stop stop-color="#F79421"/>
<stop offset="1" stop-color="#FAC239"/>
</linearGradient>
<linearGradient id="paint6_linear" x1="116.616" y1="164.026" x2="118.305" y2="172.626" gradientUnits="userSpaceOnUse">
<stop stop-color="#F79421"/>
<stop offset="1" stop-color="#FAC239"/>
</linearGradient>
<linearGradient id="paint7_linear" x1="116.258" y1="162.179" x2="118.301" y2="172.577" gradientUnits="userSpaceOnUse">
<stop stop-color="#F79421"/>
<stop offset="1" stop-color="#FAC239"/>
</linearGradient>
<linearGradient id="paint8_linear" x1="113.351" y1="163.725" x2="113.563" y2="164.802" gradientUnits="userSpaceOnUse">
<stop stop-color="#F79421"/>
<stop offset="1" stop-color="#FAC239"/>
</linearGradient>
<linearGradient id="paint9_linear" x1="119.589" y1="162.5" x2="119.8" y2="163.576" gradientUnits="userSpaceOnUse">
<stop stop-color="#F79421"/>
<stop offset="1" stop-color="#FAC239"/>
</linearGradient>
<linearGradient id="paint10_linear" x1="112.467" y1="166.44" x2="112.811" y2="168.191" gradientUnits="userSpaceOnUse">
<stop stop-color="#F79421"/>
<stop offset="1" stop-color="#FAC239"/>
</linearGradient>
<clipPath id="clip0">
<rect width="12.9761" height="12.9761" fill="white" transform="translate(110 162.502) rotate(-11.1152)"/>
</clipPath>
</defs>
</svg>
