<svg width="310" height="309" viewBox="0 0 310 309" fill="none" xmlns="http://www.w3.org/2000/svg">
<path fill-rule="evenodd" clip-rule="evenodd" d="M310 154.5C310 239.828 240.828 309 155.5 309C70.1717 309 1.00002 239.828 1.00002 154.5C1.00002 69.1717 70.1717 0 155.5 0C240.828 0 310 69.1717 310 154.5Z" fill="#D7E6FF"/>
<path fill-rule="evenodd" clip-rule="evenodd" d="M310 154.5C310 239.828 240.828 309 155.5 309C70.1717 309 1.00002 239.828 1.00002 154.5C1.00002 69.1717 70.1717 0 155.5 0C240.828 0 310 69.1717 310 154.5Z" fill="url(#paint0_linear)"/>
<mask id="mask0" mask-type="alpha" maskUnits="userSpaceOnUse" x="13" y="214" width="285" height="95">
<path d="M13.0392 215.076C36.672 269.981 91.4324 308.442 155.213 308.442C219.257 308.442 274.206 269.662 297.679 214.396" fill="white"/>
</mask>
<g mask="url(#mask0)">
<path fill-rule="evenodd" clip-rule="evenodd" d="M13.0321 221.767H305.399C305.399 221.767 235.552 345.499 116.257 315.336C-3.03852 285.172 13.0321 221.767 13.0321 221.767Z" fill="#F1C04E"/>
</g>
<path fill-rule="evenodd" clip-rule="evenodd" d="M91.821 303.451C91.7707 303.451 91.7198 303.441 91.6707 303.421C61.099 290.782 34.6673 268.262 17.2448 240.008C17.1308 239.822 17.1881 239.58 17.3729 239.465C17.5583 239.352 17.8009 239.409 17.9144 239.594C35.2509 267.708 61.5516 290.116 91.9713 302.693C92.1724 302.776 92.2677 303.006 92.1847 303.207C92.1221 303.359 91.9753 303.451 91.821 303.451Z" fill="#171A36"/>
<path fill-rule="evenodd" clip-rule="evenodd" d="M116.125 245.198H146.774V229.382H116.125V245.198Z" fill="#171A36"/>
<path fill-rule="evenodd" clip-rule="evenodd" d="M111.226 245.198H141.875V229.382H111.226V245.198Z" fill="#4A7AC6"/>
<path fill-rule="evenodd" clip-rule="evenodd" d="M201.735 245.198H232.384V229.382H201.735V245.198Z" fill="#171A36"/>
<path fill-rule="evenodd" clip-rule="evenodd" d="M196.837 245.198H227.486V229.382H196.837V245.198Z" fill="#4A7AC6"/>
<path fill-rule="evenodd" clip-rule="evenodd" d="M246.966 76.2151H246.961L171.358 75.1874C171.141 75.1845 170.967 75.006 170.969 74.7883C170.973 74.5723 171.148 74.3997 171.363 74.3997H171.368L246.971 75.4273C247.188 75.4309 247.362 75.6088 247.359 75.8265C247.356 76.0424 247.181 76.2151 246.966 76.2151Z" fill="#171A36"/>
<path fill-rule="evenodd" clip-rule="evenodd" d="M98.754 235.159L90.1471 79.2856L245.889 80.9266L239.741 237.621L98.754 235.159Z" fill="#2F57A3"/>
<path fill-rule="evenodd" clip-rule="evenodd" d="M104.456 96.0568L110.423 221.67L226.957 221.946L230.361 96.4471L104.456 96.0568Z" fill="#4A7AC6"/>
<path fill-rule="evenodd" clip-rule="evenodd" d="M239.741 237.621L282.261 237.411L292.68 99.6013L245.889 80.9263L239.741 237.621Z" fill="#171A36"/>
<path fill-rule="evenodd" clip-rule="evenodd" d="M242.985 237.588L282.261 237.374L284.249 211.024L292.658 99.5954L249.146 82.1915L245.157 182.793L242.985 237.588Z" fill="#2F57A3"/>
<path fill-rule="evenodd" clip-rule="evenodd" d="M246.053 184.285C254.45 225.718 284.249 211.024 284.249 211.024L282.26 237.374L242.985 237.588L245.26 180.361C245.26 180.361 245.997 184.006 246.053 184.285Z" fill="#1A336F"/>
<path fill-rule="evenodd" clip-rule="evenodd" d="M110.423 222.502C109.982 222.502 109.614 222.154 109.593 221.709L103.625 96.0963C103.615 95.8687 103.698 95.6463 103.855 95.4818C104.012 95.318 104.229 95.2249 104.456 95.2249H104.458L230.363 95.6153C230.822 95.617 231.192 95.9904 231.192 96.4498C231.19 96.9092 230.779 97.292 230.358 97.2791L105.328 96.8917L111.254 221.63C111.275 222.089 110.921 222.479 110.463 222.502C110.45 222.502 110.436 222.502 110.423 222.502Z" fill="#171A36"/>
<path fill-rule="evenodd" clip-rule="evenodd" d="M214.286 182.326L213.863 197.639L235.415 197.604L235.941 182.805L214.286 182.326Z" fill="#4A7AC6"/>
<path fill-rule="evenodd" clip-rule="evenodd" d="M235.534 197.703L235.941 182.805L233.482 182.76L233.35 195.496L213.959 195.452L213.863 197.639L235.534 197.703Z" fill="#171A36"/>
<path fill-rule="evenodd" clip-rule="evenodd" d="M213.959 197.699H213.952C213.493 197.695 213.124 197.32 213.128 196.86L213.25 182.319C213.252 182.095 213.343 181.881 213.504 181.726C213.665 181.571 213.887 181.49 214.105 181.494L235.593 182.105C236.052 182.118 236.413 182.501 236.4 182.96C236.387 183.419 235.994 183.777 235.546 183.768L214.905 183.181L214.79 196.874C214.787 197.331 214.415 197.699 213.959 197.699Z" fill="white"/>
<path opacity="0.0911691" fill-rule="evenodd" clip-rule="evenodd" d="M90.1473 79.2856L93.1862 134.47L148.452 79.9335L90.1473 79.2856Z" fill="white"/>
<path opacity="0.0911691" fill-rule="evenodd" clip-rule="evenodd" d="M242.82 156.901L159.348 236.175L145.258 235.857L243.372 143.078L242.82 156.901Z" fill="white"/>
<path fill-rule="evenodd" clip-rule="evenodd" d="M214.735 141.657L214.312 156.97L235.864 156.934L236.389 142.135L214.735 141.657Z" fill="#4A7AC6"/>
<path fill-rule="evenodd" clip-rule="evenodd" d="M235.983 157.033L236.389 142.135L233.931 142.09L233.798 154.826L214.408 154.783L214.312 156.97L235.983 157.033Z" fill="#171A36"/>
<path fill-rule="evenodd" clip-rule="evenodd" d="M214.408 157.029H214.401C213.942 157.025 213.573 156.65 213.577 156.19L213.699 141.649C213.701 141.425 213.793 141.212 213.954 141.057C214.114 140.902 214.332 140.818 214.554 140.824L236.042 141.435C236.501 141.448 236.862 141.831 236.849 142.29C236.836 142.75 236.449 143.111 235.995 143.099L215.354 142.512L215.239 156.204C215.235 156.662 214.864 157.029 214.408 157.029Z" fill="white"/>
<path fill-rule="evenodd" clip-rule="evenodd" d="M217.518 105.64C215.286 105.64 213.469 107.458 213.469 109.693C213.469 111.928 215.286 113.746 217.518 113.746C219.751 113.746 221.568 111.928 221.568 109.693C221.568 107.458 219.751 105.64 217.518 105.64ZM217.518 114.534C214.852 114.534 212.682 112.362 212.682 109.693C212.682 107.024 214.852 104.853 217.518 104.853C220.185 104.853 222.355 107.024 222.355 109.693C222.355 112.362 220.185 114.534 217.518 114.534Z" fill="#171A36"/>
<path opacity="0.0911691" fill-rule="evenodd" clip-rule="evenodd" d="M94.3747 155.647L168.384 80.2209H182.478L95.1366 168.828L94.3747 155.647Z" fill="white"/>
<path fill-rule="evenodd" clip-rule="evenodd" d="M285.4 112.465C285.374 112.465 285.346 112.462 285.319 112.456L254.498 106.011C254.285 105.966 254.149 105.758 254.193 105.545C254.238 105.332 254.446 105.192 254.659 105.24L285.48 111.685C285.692 111.73 285.829 111.939 285.785 112.151C285.746 112.337 285.582 112.465 285.4 112.465Z" fill="#1A336F"/>
<path fill-rule="evenodd" clip-rule="evenodd" d="M285.177 104.86C285.139 104.86 285.099 104.855 285.061 104.843L254.463 95.4846C254.256 95.4214 254.138 95.2014 254.202 94.993C254.265 94.7853 254.486 94.6671 254.693 94.7314L285.291 104.09C285.499 104.153 285.616 104.373 285.553 104.581C285.501 104.751 285.345 104.86 285.177 104.86Z" fill="#1A336F"/>
<path fill-rule="evenodd" clip-rule="evenodd" d="M284.572 119.187C284.553 119.187 284.533 119.186 284.513 119.183L254.52 114.669C254.305 114.637 254.157 114.436 254.189 114.221C254.222 114.006 254.422 113.862 254.637 113.89L284.63 118.404C284.845 118.436 284.993 118.637 284.961 118.852C284.931 119.047 284.764 119.187 284.572 119.187Z" fill="#1A336F"/>
<path fill-rule="evenodd" clip-rule="evenodd" d="M284.117 126.297C284.106 126.297 284.095 126.297 284.084 126.296L253.736 123.728C253.519 123.711 253.359 123.519 253.377 123.303C253.396 123.087 253.591 122.925 253.802 122.944L284.15 125.511C284.367 125.529 284.528 125.72 284.509 125.936C284.492 126.142 284.32 126.297 284.117 126.297Z" fill="#1A336F"/>
<path fill-rule="evenodd" clip-rule="evenodd" d="M284.223 133.016C284.218 133.016 284.214 133.016 284.209 133.016L253.756 132.001C253.539 131.994 253.369 131.811 253.376 131.594C253.383 131.376 253.57 131.204 253.782 131.214L284.236 132.229C284.453 132.236 284.623 132.418 284.616 132.635C284.609 132.848 284.434 133.016 284.223 133.016Z" fill="#1A336F"/>
<path fill-rule="evenodd" clip-rule="evenodd" d="M284.223 140.254C284.218 140.254 284.214 140.254 284.209 140.253L253.756 139.239C253.539 139.231 253.369 139.049 253.376 138.832C253.383 138.614 253.57 138.433 253.782 138.452L284.236 139.466C284.453 139.474 284.623 139.656 284.616 139.873C284.609 140.086 284.434 140.254 284.223 140.254Z" fill="#1A336F"/>
<path fill-rule="evenodd" clip-rule="evenodd" d="M245.913 216.412L240.643 232.637L257.566 229.561L245.913 216.412Z" fill="#5C90DA"/>
<path fill-rule="evenodd" clip-rule="evenodd" d="M267.645 241.128L251.426 244.971L257.566 229.561L267.645 241.128Z" fill="#0051B8"/>
<path fill-rule="evenodd" clip-rule="evenodd" d="M219.611 208.618L261.817 256.812L206.157 263.758L219.611 208.618Z" fill="#4A9FE4"/>
<path fill-rule="evenodd" clip-rule="evenodd" d="M206.157 263.758L219.611 208.618L229.955 220.523L206.157 263.758Z" fill="#B2C1E5"/>
<path fill-rule="evenodd" clip-rule="evenodd" d="M251.461 244.97L206.156 263.758L261.816 256.812L251.461 244.97Z" fill="#0051B8"/>
<path fill-rule="evenodd" clip-rule="evenodd" d="M236.151 205.275L219.611 208.618L229.955 220.523L236.151 205.275Z" fill="#F6BBD7"/>
<path fill-rule="evenodd" clip-rule="evenodd" d="M257.566 229.561L240.644 232.637L251.426 244.971L257.566 229.561Z" fill="#002E7F"/>
<path fill-rule="evenodd" clip-rule="evenodd" d="M261.816 256.812L251.426 244.971L267.644 241.128L261.816 256.812Z" fill="#1A336F"/>
<path fill-rule="evenodd" clip-rule="evenodd" d="M236.151 205.275L229.955 220.523L245.912 216.412L236.151 205.275Z" fill="white"/>
<path fill-rule="evenodd" clip-rule="evenodd" d="M245.913 216.412L229.955 220.523L240.643 232.637L245.913 216.412Z" fill="#2285E0"/>
<path fill-rule="evenodd" clip-rule="evenodd" d="M267.116 238.11L273.056 234.21L269.543 240.41L273.85 246.486L267.506 242.57L261.412 246.791L265.072 240.278L261.036 234.492L267.116 238.11Z" fill="white"/>
<path fill-rule="evenodd" clip-rule="evenodd" d="M273.591 222.514L276.252 220.767L274.678 223.545L276.608 226.268L273.766 224.513L271.035 226.404L272.676 223.486L270.867 220.893L273.591 222.514Z" fill="white"/>
<path fill-rule="evenodd" clip-rule="evenodd" d="M194.071 268.793C194.071 272.781 204.829 276.013 218.099 276.013C231.369 276.013 242.127 272.781 242.127 268.793C242.127 267.796 242.172 260.936 242.035 260.89C237.791 259.475 228.051 261.572 218.099 261.572C210.95 261.572 198.516 259.404 194.108 260.874C194.06 260.89 194.071 266.953 194.071 268.793Z" fill="#EA801F"/>
<path fill-rule="evenodd" clip-rule="evenodd" d="M214.959 254.054C205.611 255.042 198.907 257.718 198.907 260.865C198.907 264.853 209.665 268.086 222.936 268.086C224 268.086 225.047 268.063 226.075 268.023C223.578 268.286 220.896 268.431 218.099 268.431C204.829 268.431 194.071 265.198 194.071 261.211C194.071 257.543 203.174 254.517 214.959 254.054Z" fill="#FFEAC4"/>
<path fill-rule="evenodd" clip-rule="evenodd" d="M198.908 260.865C198.908 257.718 205.611 255.042 214.959 254.054C215.987 254.013 217.034 253.991 218.098 253.991C231.369 253.991 242.126 257.223 242.126 261.211C242.126 264.358 235.423 267.034 226.075 268.022C225.047 268.063 224 268.086 222.935 268.086C209.665 268.086 198.908 264.853 198.908 260.865Z" fill="#FC9E17"/>
<path fill-rule="evenodd" clip-rule="evenodd" d="M228.19 262.513C228.549 262.528 228.735 262.578 228.723 262.733C228.79 262.621 228.867 262.493 228.977 262.328C229.174 262.016 229.002 261.933 228.523 261.914C227.729 261.889 226.95 261.831 226.106 261.776C225.981 261.965 225.859 262.153 225.715 262.372C226.583 262.428 227.377 262.487 228.19 262.513Z" fill="#F6891E"/>
<path fill-rule="evenodd" clip-rule="evenodd" d="M209.637 259.334C210.33 259.353 211.025 259.382 211.684 259.449C212.152 259.494 212.359 259.371 212.55 259.124C212.755 258.861 213.004 258.599 213.287 258.344C214.196 257.535 215.309 256.918 216.933 256.831C218.452 256.748 219.533 257.018 219.979 257.838C220.201 257.672 220.37 257.532 220.574 257.399C221.274 256.927 222.081 256.589 223.06 256.521C226.649 256.26 228.091 257.407 227.314 259.35C226.96 260.26 226.897 260.264 228.364 260.347C228.454 260.357 228.54 260.357 228.637 260.359C229.716 260.445 230.058 260.37 229.998 260.597C230.546 259.674 230.567 259.887 228.97 259.76C228.872 259.758 228.787 259.758 228.698 259.748C227.23 259.665 227.292 259.66 227.647 258.75C228.424 256.807 226.982 255.661 223.393 255.921C222.415 255.99 221.608 256.327 220.908 256.8C220.704 256.933 220.535 257.073 220.312 257.239C219.867 256.419 218.786 256.149 217.266 256.231C215.643 256.319 214.529 256.935 213.621 257.744C213.337 257.999 213.088 258.262 212.883 258.524C212.693 258.772 212.484 258.894 212.017 258.85C211.359 258.782 210.662 258.754 209.97 258.735C209.799 258.736 209.477 258.787 209.423 258.841C209.176 259.187 208.972 259.534 208.803 259.888C208.799 259.893 208.81 259.9 208.815 259.906C208.908 259.751 208.981 259.594 209.091 259.44C209.144 259.386 209.466 259.335 209.637 259.334Z" fill="#FFEAC4"/>
<path fill-rule="evenodd" clip-rule="evenodd" d="M216.995 261.239C215.969 261.2 214.941 261.143 213.768 261.08C213.63 261.275 213.495 261.467 213.342 261.674C214.556 261.74 215.607 261.798 216.662 261.839C216.794 261.849 217.104 261.739 217.141 261.673C217.244 261.477 217.353 261.281 217.458 261.086C217.395 261.152 217.119 261.249 216.995 261.239Z" fill="#F6891E"/>
<path fill-rule="evenodd" clip-rule="evenodd" d="M210.19 262.887C209.849 263.467 209.517 264.037 209.165 264.632C209.171 264.633 209.176 264.634 209.183 264.634C209.523 264.054 209.856 263.484 210.208 262.888C210.203 262.887 210.197 262.887 210.19 262.887Z" fill="#F6891E"/>
<path fill-rule="evenodd" clip-rule="evenodd" d="M209.283 261.48C209.816 261.502 210.322 261.536 210.879 261.563C210.989 261.41 211.073 261.298 211.164 261.178C211.25 261.059 211.274 260.972 211.257 260.903C211.241 260.925 211.23 260.94 211.212 260.964C210.656 260.937 210.149 260.903 209.616 260.881C207.893 260.827 208.356 260.62 207.616 261.715C207.562 261.8 207.537 261.868 207.534 261.925C207.931 261.281 207.807 261.434 209.283 261.48Z" fill="#F6891E"/>
<path fill-rule="evenodd" clip-rule="evenodd" d="M223.202 261.588C222.136 261.545 221.086 261.487 220.035 261.428C219.905 261.416 219.766 261.392 219.531 261.357C219.377 261.55 219.228 261.739 219.066 261.937C219.417 261.985 219.546 262.013 219.701 262.027C220.752 262.086 221.803 262.144 222.87 262.188C222.978 262.192 223.275 262.052 223.309 261.975C223.485 261.651 223.687 261.323 223.858 260.997C223.784 261.124 223.71 261.25 223.642 261.376C223.608 261.453 223.312 261.593 223.202 261.588Z" fill="#F6891E"/>
<path fill-rule="evenodd" clip-rule="evenodd" d="M211.062 260.132C210.421 260.133 209.785 260.071 209.166 260.022C209.03 260.009 208.843 259.948 208.814 259.905C208.698 260.099 208.564 260.291 208.47 260.487C208.443 260.528 208.677 260.607 208.834 260.621C209.453 260.67 210.087 260.733 210.729 260.731C211.083 260.734 211.232 260.793 211.257 260.903C211.343 260.784 211.42 260.68 211.497 260.578C211.717 260.273 211.641 260.135 211.062 260.132Z" fill="#CC6917"/>
<path fill-rule="evenodd" clip-rule="evenodd" d="M208.07 262.157C207.705 262.147 207.524 262.083 207.534 261.925C207.467 262.033 207.389 262.157 207.283 262.315C207.078 262.633 207.239 262.742 207.737 262.756C208.548 262.792 209.345 262.843 210.19 262.887C210.307 262.688 210.421 262.492 210.542 262.288C209.689 262.244 208.887 262.193 208.07 262.157Z" fill="#CC6917"/>
<path fill-rule="evenodd" clip-rule="evenodd" d="M216.939 258.578C216.231 258.547 215.459 258.836 214.924 259.428C214.454 259.941 214.112 260.481 213.675 261.075C213.708 261.077 213.735 261.078 213.768 261.08C214.027 260.714 214.284 260.361 214.59 260.027C215.125 259.436 215.898 259.146 216.606 259.178C217.54 259.211 218 259.505 217.851 260.151C217.782 260.457 217.627 260.771 217.458 261.085C217.462 261.081 217.472 261.077 217.474 261.073C217.742 260.563 218.072 260.049 218.184 259.552C218.333 258.905 217.873 258.612 216.939 258.578Z" fill="#CC6917"/>
<path fill-rule="evenodd" clip-rule="evenodd" d="M229.877 260.801C229.734 261.059 229.514 261.151 229.086 261.124C228.283 261.072 227.467 261.036 226.567 260.982C226.393 261.242 226.242 261.479 226.048 261.773C226.068 261.774 226.086 261.775 226.106 261.776C226.149 261.712 226.19 261.647 226.234 261.581C227.134 261.635 227.951 261.671 228.752 261.723C229.181 261.75 229.401 261.658 229.545 261.4C229.79 260.965 229.963 260.73 229.998 260.597C229.958 260.664 229.922 260.722 229.877 260.801Z" fill="#CC6917"/>
<path fill-rule="evenodd" clip-rule="evenodd" d="M222.827 258.393C222.109 258.471 221.565 258.745 221.237 259.102C220.584 259.827 220.032 260.563 219.399 261.338C219.458 261.346 219.484 261.351 219.531 261.357C219.981 260.793 220.417 260.241 220.903 259.701C221.232 259.344 221.776 259.071 222.494 258.993C224.024 258.829 224.36 259.403 224.174 260.2C224.119 260.461 223.998 260.728 223.858 260.996C224.13 260.528 224.411 260.055 224.508 259.601C224.692 258.804 224.357 258.229 222.827 258.393Z" fill="#CC6917"/>
<path fill-rule="evenodd" clip-rule="evenodd" d="M226.938 263.172C226.382 263.146 225.837 263.122 225.218 263.1C224.737 263.88 224.282 264.619 223.775 265.439C223.054 265.322 222.364 265.229 221.732 265.093C221.614 265.068 221.596 264.859 221.656 264.742C222.174 263.812 222.363 263.779 220.597 263.697C218.239 263.58 215.884 263.446 213.521 263.319C212.591 263.268 212.213 263.419 211.853 263.993C211.36 264.77 211.36 264.77 210.122 264.699C209.843 264.684 209.569 264.663 209.183 264.634C209.066 264.832 208.952 265.028 208.832 265.232C209.229 265.261 209.505 265.284 209.789 265.298C211.027 265.369 211.027 265.369 211.519 264.592C211.88 264.018 212.258 263.867 213.188 263.918C215.55 264.045 217.905 264.179 220.263 264.296C222.031 264.378 221.841 264.412 221.323 265.342C221.262 265.459 221.282 265.668 221.398 265.693C222.031 265.829 222.721 265.921 223.442 266.039C223.95 265.218 224.404 264.479 224.885 263.699C225.503 263.721 226.048 263.745 226.605 263.771C228.383 263.856 227.942 263.984 228.644 262.927C228.693 262.849 228.719 262.785 228.724 262.733C228.364 263.338 228.438 263.244 226.938 263.172Z" fill="#CC6917"/>
<path fill-rule="evenodd" clip-rule="evenodd" d="M223.309 261.975C223.275 262.052 222.979 262.193 222.869 262.188C221.803 262.145 220.752 262.086 219.701 262.027C219.546 262.012 219.417 261.985 219.066 261.937C219.228 261.74 219.377 261.55 219.531 261.357C219.484 261.35 219.459 261.346 219.399 261.338C220.032 260.563 220.584 259.826 221.237 259.102C221.565 258.745 222.109 258.472 222.827 258.393C224.357 258.229 224.693 258.804 224.507 259.6C224.411 260.055 224.13 260.528 223.858 260.997C223.687 261.323 223.485 261.651 223.309 261.975ZM217.474 261.073C217.472 261.076 217.462 261.082 217.458 261.085C217.353 261.281 217.243 261.477 217.141 261.672C217.103 261.739 216.794 261.849 216.662 261.839C215.607 261.798 214.557 261.74 213.342 261.674C213.494 261.467 213.63 261.274 213.768 261.079C213.735 261.078 213.708 261.076 213.675 261.075C214.112 260.481 214.454 259.94 214.923 259.428C215.458 258.836 216.231 258.547 216.939 258.578C217.873 258.611 218.333 258.905 218.184 259.552C218.071 260.049 217.742 260.563 217.474 261.073ZM226.567 260.982C227.467 261.036 228.284 261.072 229.086 261.124C229.514 261.151 229.734 261.059 229.878 260.801C229.923 260.721 229.958 260.664 229.998 260.597C230.058 260.37 229.717 260.445 228.637 260.36C228.54 260.357 228.454 260.357 228.365 260.347C226.897 260.265 226.96 260.259 227.314 259.35C228.091 257.406 226.649 256.26 223.06 256.52C222.081 256.589 221.274 256.927 220.574 257.399C220.37 257.532 220.202 257.672 219.979 257.838C219.533 257.018 218.452 256.748 216.933 256.831C215.309 256.918 214.196 257.535 213.287 258.343C213.004 258.599 212.756 258.861 212.55 259.123C212.359 259.371 212.152 259.493 211.684 259.449C211.026 259.382 210.329 259.353 209.637 259.334C209.466 259.335 209.144 259.386 209.09 259.44C208.98 259.594 208.908 259.751 208.814 259.905C208.843 259.948 209.03 260.009 209.166 260.022C209.786 260.072 210.42 260.134 211.062 260.132C211.642 260.135 211.718 260.273 211.497 260.578C211.42 260.68 211.343 260.784 211.257 260.903C211.273 260.973 211.25 261.059 211.164 261.178C211.073 261.298 210.989 261.41 210.879 261.563C210.322 261.536 209.816 261.502 209.283 261.48C207.807 261.434 207.931 261.281 207.533 261.926C207.524 262.084 207.705 262.147 208.07 262.157C208.887 262.193 209.689 262.245 210.542 262.288C210.421 262.493 210.307 262.688 210.19 262.887C210.197 262.887 210.202 262.888 210.208 262.888C209.856 263.484 209.523 264.054 209.183 264.634C209.569 264.663 209.843 264.684 210.122 264.699C211.36 264.77 211.36 264.77 211.853 263.993C212.212 263.419 212.591 263.268 213.522 263.319C215.884 263.446 218.239 263.58 220.596 263.697C222.364 263.779 222.173 263.812 221.656 264.742C221.596 264.859 221.614 265.068 221.731 265.094C222.364 265.229 223.054 265.322 223.775 265.439C224.283 264.619 224.737 263.88 225.218 263.1C225.836 263.121 226.381 263.146 226.938 263.172C228.438 263.244 228.364 263.338 228.723 262.733C228.735 262.578 228.548 262.528 228.19 262.513C227.377 262.487 226.583 262.428 225.715 262.372C225.859 262.153 225.981 261.965 226.106 261.776C226.086 261.775 226.068 261.773 226.048 261.772C226.242 261.479 226.393 261.242 226.567 260.982Z" fill="#F6891E"/>
<path fill-rule="evenodd" clip-rule="evenodd" d="M170.117 268.424C171.169 272.27 182.397 272.546 195.197 269.04C207.996 265.534 217.519 259.573 216.468 255.727C216.205 254.765 214.439 248.136 214.295 248.129C209.829 247.884 200.987 252.481 191.388 255.111C184.492 257 171.928 258.194 168.064 260.777C168.022 260.804 169.632 266.649 170.117 268.424Z" fill="#F6891E"/>
<path fill-rule="evenodd" clip-rule="evenodd" d="M186.377 248.689C177.621 252.112 171.861 256.464 172.691 259.5C173.743 263.346 184.972 263.622 197.771 260.116C198.799 259.834 199.801 259.536 200.783 259.225C198.444 260.139 195.895 260.988 193.197 261.727C180.398 265.234 169.169 264.957 168.117 261.111C167.15 257.573 175.132 252.249 186.377 248.689Z" fill="#FFEAC4"/>
<path fill-rule="evenodd" clip-rule="evenodd" d="M172.691 259.5C171.861 256.464 177.621 252.112 186.377 248.689C187.358 248.378 188.361 248.079 189.388 247.798C202.188 244.292 213.416 244.568 214.468 248.414C215.298 251.45 209.538 255.802 200.783 259.225C199.802 259.536 198.798 259.835 197.772 260.115C184.971 263.622 173.743 263.346 172.691 259.5Z" fill="#FDB414"/>
<path fill-rule="evenodd" clip-rule="evenodd" d="M202.608 253.185C202.962 253.123 203.155 253.132 203.177 253.286C203.218 253.162 203.266 253.02 203.337 252.835C203.463 252.489 203.277 252.444 202.805 252.528C202.024 252.674 201.252 252.785 200.415 252.913C200.334 253.124 200.255 253.334 200.161 253.578C201.02 253.447 201.808 253.335 202.608 253.185Z" fill="#F6891E"/>
<path fill-rule="evenodd" clip-rule="evenodd" d="M183.806 254.062C184.486 253.932 185.172 253.811 185.829 253.735C186.296 253.678 186.473 253.514 186.606 253.231C186.75 252.93 186.936 252.621 187.159 252.311C187.873 251.326 188.829 250.485 190.396 250.051C191.862 249.644 192.976 249.675 193.587 250.382C193.769 250.172 193.904 249.998 194.074 249.825C194.657 249.213 195.372 248.71 196.314 248.433C199.763 247.408 201.417 248.219 201.075 250.283C200.923 251.248 200.864 251.267 202.315 251.033C202.405 251.023 202.488 251.004 202.584 250.986C203.656 250.838 203.974 250.691 203.964 250.925C204.301 249.907 204.368 250.11 202.78 250.329C202.685 250.347 202.602 250.366 202.512 250.375C201.06 250.609 201.12 250.591 201.272 249.627C201.614 247.562 199.96 246.751 196.511 247.776C195.57 248.053 194.854 248.556 194.271 249.168C194.1 249.342 193.966 249.514 193.783 249.724C193.173 249.019 192.059 248.987 190.593 249.394C189.025 249.828 188.07 250.669 187.356 251.654C187.133 251.964 186.947 252.274 186.802 252.575C186.67 252.857 186.493 253.021 186.027 253.078C185.369 253.154 184.683 253.275 184.003 253.405C183.835 253.443 183.533 253.562 183.491 253.626C183.324 254.017 183.199 254.4 183.11 254.782C183.107 254.787 183.12 254.792 183.124 254.797C183.183 254.625 183.22 254.457 183.295 254.283C183.335 254.219 183.638 254.099 183.806 254.062Z" fill="#FFEAC4"/>
<path fill-rule="evenodd" clip-rule="evenodd" d="M191.4 254.344C190.39 254.525 189.374 254.691 188.215 254.881C188.121 255.1 188.031 255.318 187.926 255.552C189.126 255.356 190.165 255.187 191.204 255.001C191.335 254.982 191.614 254.808 191.636 254.735C191.695 254.523 191.76 254.308 191.82 254.094C191.772 254.173 191.524 254.326 191.4 254.344Z" fill="#F6891E"/>
<path fill-rule="evenodd" clip-rule="evenodd" d="M185.107 257.413C184.899 258.053 184.696 258.681 184.48 259.339C184.486 259.338 184.491 259.337 184.498 259.336C184.706 258.697 184.909 258.068 185.125 257.41C185.119 257.411 185.114 257.413 185.107 257.413Z" fill="#F6891E"/>
<path fill-rule="evenodd" clip-rule="evenodd" d="M183.92 256.234C184.445 256.141 184.947 256.066 185.497 255.972C185.571 255.799 185.629 255.672 185.692 255.535C185.75 255.401 185.755 255.311 185.724 255.246C185.713 255.271 185.705 255.288 185.693 255.316C185.144 255.409 184.642 255.484 184.117 255.577C182.422 255.894 182.83 255.592 182.342 256.822C182.307 256.916 182.297 256.988 182.306 257.045C182.557 256.33 182.468 256.506 183.92 256.234Z" fill="#F6891E"/>
<path fill-rule="evenodd" clip-rule="evenodd" d="M197.539 253.352C196.488 253.539 195.449 253.707 194.41 253.876C194.281 253.891 194.14 253.898 193.903 253.915C193.794 254.136 193.689 254.353 193.573 254.581C193.926 254.552 194.058 254.552 194.213 254.533C195.252 254.364 196.291 254.196 197.341 254.01C197.449 253.99 197.709 253.79 197.726 253.708C197.828 253.353 197.955 252.989 198.052 252.634C198.008 252.774 197.963 252.914 197.923 253.05C197.906 253.132 197.646 253.334 197.539 253.352Z" fill="#F6891E"/>
<path fill-rule="evenodd" clip-rule="evenodd" d="M185.369 254.535C184.742 254.675 184.109 254.75 183.493 254.835C183.358 254.851 183.162 254.833 183.125 254.797C183.052 255.01 182.962 255.226 182.913 255.439C182.896 255.485 183.141 255.511 183.297 255.492C183.912 255.407 184.545 255.331 185.172 255.192C185.518 255.119 185.676 255.144 185.724 255.246C185.783 255.112 185.836 254.993 185.89 254.878C186.039 254.532 185.936 254.415 185.369 254.535Z" fill="#CC6917"/>
<path fill-rule="evenodd" clip-rule="evenodd" d="M182.88 257.156C182.521 257.224 182.331 257.201 182.306 257.044C182.264 257.164 182.215 257.302 182.145 257.479C182.013 257.833 182.194 257.905 182.684 257.812C183.483 257.673 184.272 257.552 185.107 257.413C185.179 257.194 185.248 256.979 185.322 256.754C184.48 256.893 183.686 257.015 182.88 257.156Z" fill="#CC6917"/>
<path fill-rule="evenodd" clip-rule="evenodd" d="M190.776 251.756C190.078 251.878 189.385 252.326 188.989 253.019C188.641 253.62 188.423 254.222 188.122 254.895C188.155 254.89 188.182 254.886 188.215 254.88C188.39 254.468 188.565 254.068 188.793 253.676C189.188 252.983 189.881 252.535 190.579 252.413C191.498 252.245 192.01 252.434 192.004 253.098C192.002 253.412 191.918 253.75 191.82 254.094C191.823 254.089 191.832 254.083 191.833 254.079C191.985 253.523 192.198 252.95 192.2 252.441C192.207 251.777 191.695 251.589 190.776 251.756Z" fill="#CC6917"/>
<path fill-rule="evenodd" clip-rule="evenodd" d="M203.89 251.151C203.804 251.433 203.61 251.57 203.185 251.636C202.391 251.758 201.585 251.898 200.696 252.038C200.581 252.33 200.484 252.594 200.357 252.921C200.377 252.918 200.395 252.915 200.415 252.913C200.443 252.841 200.47 252.769 200.499 252.695C201.389 252.554 202.194 252.415 202.989 252.293C203.413 252.227 203.608 252.09 203.693 251.808C203.84 251.33 203.958 251.063 203.963 250.925C203.939 250.999 203.917 251.063 203.89 251.151Z" fill="#CC6917"/>
<path fill-rule="evenodd" clip-rule="evenodd" d="M196.488 250.312C195.803 250.543 195.33 250.927 195.086 251.346C194.604 252.193 194.222 253.031 193.77 253.924C193.83 253.92 193.855 253.918 193.903 253.915C194.221 253.267 194.529 252.634 194.889 252.003C195.134 251.583 195.606 251.199 196.291 250.969C197.749 250.481 198.201 250.969 198.19 251.788C198.192 252.054 198.132 252.341 198.052 252.634C198.217 252.117 198.39 251.596 198.387 251.13C198.397 250.312 197.946 249.824 196.488 250.312Z" fill="#CC6917"/>
<path fill-rule="evenodd" clip-rule="evenodd" d="M201.526 254.098C200.977 254.191 200.44 254.284 199.831 254.396C199.528 255.261 199.243 256.081 198.923 256.991C198.193 257.031 197.499 257.088 196.853 257.091C196.733 257.092 196.67 256.892 196.704 256.765C197.01 255.745 197.189 255.672 195.445 255.971C193.117 256.363 190.788 256.737 188.454 257.121C187.534 257.27 187.197 257.499 186.968 258.136C186.653 259.001 186.653 259.001 185.429 259.198C185.154 259.244 184.881 259.281 184.498 259.336C184.426 259.555 184.357 259.77 184.283 259.996C184.677 259.939 184.952 259.902 185.232 259.855C186.456 259.658 186.456 259.658 186.771 258.793C187 258.156 187.337 257.927 188.257 257.778C190.591 257.394 192.92 257.02 195.248 256.628C196.992 256.329 196.813 256.402 196.507 257.422C196.473 257.549 196.536 257.749 196.656 257.748C197.303 257.746 197.996 257.688 198.726 257.648C199.046 256.738 199.332 255.918 199.634 255.053C200.243 254.941 200.78 254.848 201.33 254.755C203.085 254.455 202.681 254.675 203.14 253.492C203.172 253.405 203.184 253.337 203.177 253.286C202.954 253.953 203.007 253.845 201.526 254.098Z" fill="#CC6917"/>
<path fill-rule="evenodd" clip-rule="evenodd" d="M197.726 253.708C197.709 253.79 197.449 253.99 197.341 254.01C196.291 254.196 195.252 254.364 194.213 254.533C194.058 254.552 193.926 254.552 193.573 254.581C193.689 254.353 193.794 254.136 193.903 253.915C193.855 253.918 193.829 253.92 193.77 253.924C194.222 253.031 194.604 252.194 195.086 251.346C195.331 250.927 195.803 250.543 196.488 250.312C197.946 249.824 198.397 250.313 198.387 251.131C198.39 251.596 198.217 252.118 198.052 252.634C197.955 252.989 197.828 253.354 197.726 253.708ZM191.833 254.079C191.831 254.083 191.823 254.089 191.82 254.094C191.759 254.308 191.695 254.522 191.636 254.735C191.614 254.808 191.335 254.982 191.204 255.001C190.165 255.188 189.126 255.356 187.926 255.552C188.031 255.318 188.121 255.1 188.215 254.88C188.183 254.886 188.155 254.89 188.123 254.895C188.423 254.221 188.64 253.62 188.99 253.019C189.385 252.326 190.078 251.878 190.776 251.756C191.695 251.589 192.207 251.777 192.2 252.441C192.197 252.95 191.986 253.523 191.833 254.079ZM200.696 252.038C201.586 251.898 202.391 251.758 203.185 251.636C203.61 251.57 203.805 251.433 203.89 251.151C203.917 251.063 203.939 251 203.964 250.925C203.974 250.691 203.656 250.838 202.584 250.986C202.488 251.004 202.404 251.023 202.315 251.033C200.864 251.267 200.924 251.248 201.075 250.283C201.417 248.219 199.763 247.408 196.313 248.433C195.373 248.71 194.656 249.213 194.074 249.825C193.903 249.998 193.769 250.172 193.587 250.382C192.976 249.675 191.862 249.644 190.396 250.05C188.829 250.485 187.873 251.326 187.159 252.311C186.936 252.621 186.75 252.93 186.606 253.231C186.473 253.513 186.296 253.678 185.83 253.735C185.172 253.811 184.486 253.932 183.806 254.062C183.639 254.099 183.336 254.219 183.295 254.283C183.22 254.457 183.183 254.625 183.125 254.797C183.162 254.832 183.357 254.851 183.493 254.835C184.109 254.75 184.743 254.674 185.369 254.535C185.935 254.415 186.039 254.532 185.889 254.878C185.836 254.993 185.783 255.112 185.724 255.246C185.755 255.311 185.751 255.401 185.692 255.535C185.629 255.672 185.571 255.799 185.496 255.973C184.947 256.066 184.445 256.141 183.92 256.234C182.468 256.506 182.557 256.33 182.306 257.045C182.332 257.2 182.521 257.224 182.88 257.156C183.686 257.015 184.481 256.894 185.323 256.753C185.248 256.979 185.179 257.194 185.107 257.413C185.114 257.412 185.119 257.412 185.126 257.41C184.909 258.068 184.706 258.696 184.498 259.336C184.881 259.282 185.154 259.244 185.429 259.198C186.653 259.002 186.653 259.002 186.968 258.137C187.197 257.499 187.534 257.271 188.454 257.121C190.788 256.737 193.117 256.363 195.445 255.971C197.189 255.672 197.01 255.745 196.704 256.765C196.67 256.892 196.733 257.092 196.853 257.092C197.499 257.089 198.193 257.031 198.923 256.991C199.243 256.081 199.528 255.261 199.831 254.396C200.44 254.284 200.977 254.191 201.526 254.098C203.007 253.846 202.954 253.953 203.177 253.286C203.155 253.132 202.962 253.122 202.608 253.185C201.808 253.334 201.02 253.447 200.161 253.578C200.255 253.334 200.334 253.124 200.415 252.913C200.395 252.915 200.377 252.918 200.357 252.922C200.483 252.593 200.581 252.329 200.696 252.038Z" fill="#F6891E"/>
<path fill-rule="evenodd" clip-rule="evenodd" d="M210.013 244.69L212.674 242.943L211.1 245.72L213.03 248.443L210.188 246.688L207.457 248.579L209.097 245.661L207.288 243.068L210.013 244.69Z" fill="white"/>
<path fill-rule="evenodd" clip-rule="evenodd" d="M164.792 264.683C164.633 264.683 164.483 264.586 164.423 264.429C164.389 264.337 161.124 255.253 173.064 250.204C173.265 250.12 173.494 250.213 173.579 250.414C173.663 250.613 173.57 250.845 173.37 250.93C162.119 255.687 165.129 264.066 165.159 264.15C165.237 264.354 165.134 264.581 164.931 264.658C164.885 264.674 164.838 264.683 164.792 264.683Z" fill="#FCFCFC"/>
<path fill-rule="evenodd" clip-rule="evenodd" d="M60.9711 206.489L77.9433 208.066L71.2246 192.22L60.9711 206.489Z" fill="#5C90DA"/>
<path fill-rule="evenodd" clip-rule="evenodd" d="M80.2825 179.837L87.5947 194.827L71.2248 192.22L80.2825 179.837Z" fill="#5F5DC0"/>
<path fill-rule="evenodd" clip-rule="evenodd" d="M59.1566 233.882L96.8516 182.078L115.86 234.895L59.1566 233.882Z" fill="#4A9FE4"/>
<path fill-rule="evenodd" clip-rule="evenodd" d="M115.86 234.895L59.1564 233.882L68.486 221.166L115.86 234.895Z" fill="#B2C1E5"/>
<path fill-rule="evenodd" clip-rule="evenodd" d="M87.5855 194.793L115.86 234.894L96.852 182.078L87.5855 194.793Z" fill="#5653BD"/>
<path fill-rule="evenodd" clip-rule="evenodd" d="M52.2615 218.469L59.1568 233.882L68.4865 221.166L52.2615 218.469Z" fill="#F6BBD7"/>
<path fill-rule="evenodd" clip-rule="evenodd" d="M71.2247 192.22L77.9434 208.066L87.5946 194.827L71.2247 192.22Z" fill="#4844B7"/>
<path fill-rule="evenodd" clip-rule="evenodd" d="M96.8518 182.078L87.5947 194.827L80.2825 179.836L96.8518 182.078Z" fill="#443AB3"/>
<path fill-rule="evenodd" clip-rule="evenodd" d="M52.2615 218.469L68.4865 221.166L60.9713 206.489L52.2615 218.469Z" fill="white"/>
<path fill-rule="evenodd" clip-rule="evenodd" d="M60.9711 206.489L68.4862 221.166L77.9433 208.066L60.9711 206.489Z" fill="#35AEEE"/>
<path fill-rule="evenodd" clip-rule="evenodd" d="M78.0286 180.368L76.1861 173.502L80.9705 178.78L88.0839 176.588L82.3832 181.392L84.4825 188.507L79.4466 182.99L72.6928 185.016L78.0286 180.368Z" fill="white"/>
<path fill-rule="evenodd" clip-rule="evenodd" d="M64.6157 169.335L63.7901 166.258L65.9338 168.623L69.1212 167.641L66.567 169.793L67.5073 172.981L65.2514 170.509L62.2253 171.417L64.6157 169.335Z" fill="white"/>
<path fill-rule="evenodd" clip-rule="evenodd" d="M72.7693 242.97C72.7693 246.958 83.5269 250.191 96.7971 250.191C110.067 250.191 120.825 246.958 120.825 242.97C120.825 241.973 120.871 235.113 120.734 235.068C116.49 233.652 106.75 235.749 96.7971 235.749C89.6486 235.749 77.2146 233.581 72.8067 235.052C72.7588 235.068 72.7693 241.131 72.7693 242.97Z" fill="#EA801F"/>
<path fill-rule="evenodd" clip-rule="evenodd" d="M93.658 228.231C84.3097 229.22 77.6062 231.896 77.6062 235.043C77.6062 239.031 88.3637 242.264 101.634 242.264C102.699 242.264 103.745 242.24 104.773 242.2C102.277 242.464 99.5944 242.609 96.7975 242.609C83.5273 242.609 72.7691 239.376 72.7691 235.388C72.7691 231.721 81.8725 228.694 93.658 228.231Z" fill="#FFEAC4"/>
<path fill-rule="evenodd" clip-rule="evenodd" d="M77.6063 235.043C77.6063 231.895 84.3093 229.22 93.6582 228.231C94.6862 228.191 95.7323 228.168 96.7971 228.168C110.067 228.168 120.825 231.401 120.825 235.389C120.825 238.536 114.122 241.211 104.774 242.2C103.746 242.24 102.699 242.263 101.634 242.263C88.3639 242.263 77.6063 239.031 77.6063 235.043Z" fill="#FC9E17"/>
<path fill-rule="evenodd" clip-rule="evenodd" d="M106.888 236.691C107.247 236.705 107.434 236.756 107.422 236.911C107.489 236.799 107.566 236.671 107.675 236.505C107.873 236.194 107.7 236.111 107.222 236.092C106.428 236.066 105.649 236.009 104.805 235.953C104.68 236.142 104.558 236.33 104.414 236.549C105.282 236.605 106.076 236.665 106.888 236.691Z" fill="#F6891E"/>
<path fill-rule="evenodd" clip-rule="evenodd" d="M88.3353 233.512C89.0276 233.531 89.7241 233.559 90.3825 233.627C90.8497 233.671 91.0579 233.548 91.2479 233.301C91.4538 233.039 91.7023 232.776 91.9859 232.521C92.8946 231.712 94.0079 231.096 95.6318 231.008C97.1509 230.926 98.2321 231.195 98.6777 232.016C98.8999 231.85 99.0689 231.709 99.273 231.577C99.9729 231.104 100.78 230.767 101.759 230.698C105.347 230.437 106.789 231.584 106.013 233.527C105.658 234.437 105.596 234.442 107.063 234.525C107.153 234.535 107.238 234.535 107.335 234.537C108.415 234.622 108.756 234.548 108.697 234.774C109.245 233.852 109.266 234.064 107.669 233.937C107.571 233.935 107.486 233.936 107.396 233.926C105.929 233.843 105.991 233.837 106.345 232.928C107.123 230.985 105.681 229.838 102.091 230.098C101.113 230.167 100.306 230.505 99.6057 230.977C99.4022 231.11 99.2332 231.251 99.0104 231.416C98.5654 230.596 97.4837 230.326 95.9651 230.408C94.3412 230.497 93.2273 231.112 92.3192 231.921C92.0356 232.176 91.7871 232.439 91.5812 232.702C91.3912 232.949 91.183 233.072 90.7152 233.027C90.0574 232.96 89.361 232.931 88.6686 232.913C88.4973 232.913 88.1757 232.964 88.1219 233.018C87.8745 233.365 87.6705 233.712 87.5015 234.066C87.498 234.07 87.5091 234.077 87.5132 234.083C87.6067 233.928 87.6792 233.772 87.7886 233.617C87.8424 233.564 88.1646 233.512 88.3353 233.512Z" fill="#FFEAC4"/>
<path fill-rule="evenodd" clip-rule="evenodd" d="M95.6932 235.417C94.6675 235.377 93.6395 235.321 92.4665 235.257C92.3285 235.452 92.1929 235.645 92.0403 235.851C93.2548 235.917 94.3056 235.976 95.3604 236.016C95.4926 236.026 95.8019 235.916 95.8393 235.85C95.9423 235.655 96.0516 235.459 96.1563 235.263C96.0931 235.33 95.8177 235.427 95.6932 235.417Z" fill="#F6891E"/>
<path fill-rule="evenodd" clip-rule="evenodd" d="M88.8886 237.064C88.5483 237.644 88.2156 238.214 87.8636 238.81C87.87 238.811 87.8747 238.811 87.8811 238.811C88.2215 238.231 88.5548 237.661 88.9074 237.065C88.9009 237.065 88.8951 237.064 88.8886 237.064Z" fill="#F6891E"/>
<path fill-rule="evenodd" clip-rule="evenodd" d="M87.9818 235.658C88.5151 235.679 89.0209 235.714 89.5776 235.74C89.6875 235.588 89.7717 235.475 89.8624 235.355C89.9483 235.236 89.9717 235.15 89.9553 235.08C89.9396 235.102 89.9279 235.117 89.9103 235.141C89.3542 235.115 88.8478 235.08 88.3151 235.058C86.5913 235.004 87.055 234.797 86.3141 235.893C86.2598 235.977 86.2352 236.046 86.2323 236.103C86.6299 235.459 86.5059 235.611 87.9818 235.658Z" fill="#F6891E"/>
<path fill-rule="evenodd" clip-rule="evenodd" d="M101.901 235.766C100.835 235.722 99.7836 235.664 98.7334 235.606C98.6036 235.593 98.465 235.569 98.2299 235.535C98.0755 235.728 97.9258 235.917 97.7645 236.115C98.1153 236.163 98.2445 236.19 98.4001 236.205C99.4509 236.264 100.502 236.322 101.568 236.365C101.677 236.37 101.974 236.229 102.008 236.153C102.183 235.828 102.386 235.5 102.556 235.174C102.483 235.301 102.409 235.428 102.341 235.554C102.307 235.63 102.01 235.77 101.901 235.766Z" fill="#F6891E"/>
<path fill-rule="evenodd" clip-rule="evenodd" d="M89.7606 234.309C89.1192 234.311 88.4841 234.249 87.8649 234.2C87.7286 234.186 87.5415 234.126 87.5129 234.083C87.3959 234.276 87.2626 234.468 87.1684 234.664C87.1415 234.705 87.376 234.784 87.5322 234.799C88.1514 234.848 88.7858 234.91 89.4279 234.909C89.7817 234.911 89.9302 234.97 89.9553 235.08C90.0419 234.961 90.1191 234.857 90.1957 234.756C90.4161 234.45 90.3401 234.313 89.7606 234.309Z" fill="#CC6917"/>
<path fill-rule="evenodd" clip-rule="evenodd" d="M86.7687 236.334C86.4032 236.324 86.2231 236.261 86.2324 236.103C86.1652 236.211 86.0874 236.335 85.9816 236.492C85.7763 236.81 85.9377 236.92 86.4359 236.934C87.247 236.969 88.0434 237.021 88.8884 237.064C89.0053 236.865 89.1193 236.67 89.2404 236.466C88.3878 236.422 87.5855 236.371 86.7687 236.334Z" fill="#CC6917"/>
<path fill-rule="evenodd" clip-rule="evenodd" d="M95.6378 232.756C94.9297 232.724 94.1566 233.014 93.6222 233.605C93.1526 234.118 92.8111 234.658 92.3737 235.252C92.4065 235.254 92.434 235.255 92.4667 235.257C92.7258 234.892 92.9825 234.539 93.2889 234.205C93.8233 233.613 94.5964 233.323 95.3045 233.355C96.2383 233.388 96.6985 233.682 96.5494 234.329C96.4804 234.635 96.3254 234.948 96.1565 235.263C96.1605 235.259 96.1705 235.255 96.1728 235.25C96.4406 234.741 96.7704 234.226 96.8821 233.73C97.0312 233.083 96.5716 232.789 95.6378 232.756Z" fill="#CC6917"/>
<path fill-rule="evenodd" clip-rule="evenodd" d="M108.576 234.979C108.432 235.236 108.212 235.328 107.784 235.301C106.982 235.25 106.165 235.213 105.266 235.16C105.092 235.419 104.94 235.657 104.747 235.95C104.767 235.951 104.785 235.953 104.805 235.954C104.847 235.889 104.889 235.825 104.933 235.759C105.833 235.813 106.649 235.849 107.451 235.901C107.88 235.927 108.1 235.835 108.243 235.578C108.489 235.143 108.662 234.907 108.697 234.774C108.657 234.841 108.621 234.899 108.576 234.979Z" fill="#CC6917"/>
<path fill-rule="evenodd" clip-rule="evenodd" d="M101.526 232.571C100.808 232.648 100.264 232.922 99.9353 233.279C99.2827 234.004 98.7307 234.741 98.098 235.516C98.1571 235.523 98.1816 235.528 98.2296 235.535C98.6786 234.971 99.1154 234.418 99.602 233.879C99.9306 233.522 100.475 233.248 101.192 233.17C102.722 233.006 103.058 233.58 102.873 234.377C102.817 234.638 102.697 234.905 102.557 235.174C102.829 234.705 103.109 234.233 103.206 233.778C103.391 232.981 103.055 232.407 101.526 232.571Z" fill="#CC6917"/>
<path fill-rule="evenodd" clip-rule="evenodd" d="M105.636 237.35C105.08 237.323 104.535 237.299 103.917 237.277C103.435 238.057 102.981 238.796 102.474 239.617C101.752 239.499 101.063 239.407 100.43 239.271C100.313 239.245 100.294 239.037 100.355 238.92C100.872 237.99 101.062 237.956 99.2954 237.874C96.9372 237.758 94.5824 237.623 92.22 237.497C91.2897 237.446 90.9113 237.597 90.5511 238.17C90.0582 238.947 90.0582 238.947 88.8209 238.877C88.542 238.862 88.2677 238.84 87.8812 238.812C87.7648 239.01 87.6508 239.206 87.5303 239.41C87.9274 239.439 88.204 239.461 88.4876 239.476C89.7255 239.547 89.7255 239.547 90.2178 238.77C90.5786 238.196 90.9564 238.045 91.8867 238.096C94.2491 238.223 96.6038 238.357 98.9621 238.473C100.729 238.556 100.539 238.589 100.022 239.519C99.9609 239.636 99.9802 239.845 100.097 239.87C100.729 240.006 101.419 240.099 102.14 240.216C102.648 239.396 103.103 238.657 103.583 237.877C104.202 237.898 104.747 237.923 105.304 237.949C107.082 238.034 106.64 238.162 107.343 237.105C107.392 237.026 107.418 236.963 107.422 236.911C107.062 237.515 107.136 237.421 105.636 237.35Z" fill="#CC6917"/>
<path fill-rule="evenodd" clip-rule="evenodd" d="M102.008 236.153C101.974 236.229 101.677 236.37 101.568 236.365C100.501 236.322 99.4507 236.264 98.3999 236.205C98.2444 236.19 98.1157 236.162 97.7649 236.115C97.9263 235.917 98.0759 235.728 98.2297 235.535C98.1818 235.528 98.1572 235.523 98.0976 235.516C98.7309 234.74 99.2823 234.004 99.9354 233.279C100.264 232.922 100.808 232.649 101.526 232.571C103.055 232.407 103.391 232.981 103.206 233.778C103.109 234.233 102.828 234.705 102.556 235.174C102.386 235.5 102.184 235.829 102.008 236.153ZM96.1726 235.251C96.1703 235.254 96.1603 235.259 96.1562 235.263C96.0515 235.458 95.9422 235.654 95.8399 235.85C95.8019 235.916 95.4925 236.027 95.3604 236.017C94.3061 235.976 93.2547 235.917 92.0408 235.852C92.1928 235.645 92.3285 235.452 92.4665 235.257C92.4337 235.255 92.4068 235.254 92.3735 235.252C92.8109 234.658 93.1524 234.118 93.6219 233.605C94.157 233.014 94.9294 232.724 95.6376 232.756C96.5714 232.789 97.0316 233.083 96.8825 233.729C96.7702 234.226 96.4404 234.741 96.1726 235.251ZM105.266 235.16C106.165 235.214 106.982 235.25 107.784 235.301C108.213 235.328 108.432 235.236 108.576 234.979C108.621 234.899 108.657 234.841 108.697 234.774C108.757 234.548 108.415 234.623 107.335 234.537C107.238 234.535 107.153 234.535 107.063 234.525C105.596 234.442 105.658 234.436 106.013 233.528C106.789 231.584 105.347 230.437 101.759 230.698C100.78 230.766 99.9729 231.105 99.2729 231.577C99.0688 231.71 98.9004 231.85 98.6776 232.016C98.2321 231.195 97.1509 230.926 95.6317 231.008C94.0079 231.096 92.8945 231.712 91.9858 232.52C91.7022 232.776 91.4537 233.038 91.2485 233.301C91.0578 233.549 90.8497 233.671 90.3824 233.626C89.7246 233.559 89.0276 233.531 88.3353 233.512C88.1645 233.512 87.8423 233.564 87.7891 233.617C87.6792 233.772 87.6067 233.928 87.5131 234.083C87.5417 234.126 87.7289 234.187 87.8651 234.199C88.4844 234.249 89.1188 234.311 89.7609 234.309C90.3403 234.313 90.4164 234.45 90.1959 234.756C90.1187 234.857 90.0421 234.961 89.9556 235.08C89.972 235.15 89.9486 235.236 89.8626 235.355C89.7714 235.475 89.6878 235.588 89.5778 235.74C89.0212 235.714 88.5148 235.68 87.9821 235.658C86.5056 235.611 86.6301 235.458 86.2319 236.103C86.2231 236.261 86.4032 236.324 86.7687 236.334C87.5856 236.371 88.3879 236.422 89.2404 236.466C89.1194 236.67 89.0054 236.865 88.8884 237.064C88.8954 237.065 88.9007 237.065 88.9071 237.065C88.5551 237.661 88.2218 238.231 87.8815 238.811C88.2674 238.84 88.5417 238.862 88.8206 238.877C90.0585 238.948 90.0585 238.948 90.5509 238.17C90.9111 237.597 91.2894 237.445 92.2197 237.497C94.5821 237.623 96.9369 237.758 99.2951 237.874C101.062 237.956 100.872 237.99 100.355 238.92C100.294 239.037 100.313 239.245 100.43 239.271C101.062 239.407 101.752 239.499 102.474 239.617C102.981 238.797 103.436 238.057 103.916 237.277C104.535 237.299 105.08 237.323 105.637 237.35C107.137 237.421 107.062 237.515 107.422 236.911C107.434 236.756 107.247 236.705 106.889 236.691C106.076 236.665 105.282 236.605 104.413 236.549C104.558 236.33 104.68 236.142 104.805 235.953C104.785 235.952 104.767 235.951 104.747 235.95C104.94 235.657 105.092 235.42 105.266 235.16Z" fill="#F6891E"/>
<path fill-rule="evenodd" clip-rule="evenodd" d="M120.211 185.522L117.556 98.6398L112.882 98.7832L115.536 185.665L120.211 185.522Z" fill="#FAAD18"/>
<path fill-rule="evenodd" clip-rule="evenodd" d="M114.476 119.523L113.819 98.0086L115.372 98.413L116.018 119.55L114.476 119.523Z" fill="#F8DA5D"/>
<path fill-rule="evenodd" clip-rule="evenodd" d="M117.968 186.383L116.629 142.561L114.943 142.612L116.254 185.521C116.254 185.521 116.502 186.428 117.968 186.383Z" fill="#F8CE1A"/>
<path fill-rule="evenodd" clip-rule="evenodd" d="M115.088 140.184L116.445 140.142L115.87 121.329L114.459 121.372L115.088 140.184Z" fill="#F8DA5D"/>
<path fill-rule="evenodd" clip-rule="evenodd" d="M115.537 185.665C115.537 185.665 115.936 187.731 118.246 187.66C120.043 187.605 120.404 185.516 120.404 185.516L115.537 185.665Z" fill="#E08726"/>
<path fill-rule="evenodd" clip-rule="evenodd" d="M113.957 143.12L119.404 142.953L121.389 140.991L111.856 141.283L113.957 143.12Z" fill="#FAAD18"/>
<path fill-rule="evenodd" clip-rule="evenodd" d="M113.841 139.34L119.289 139.173L121.389 141.01L111.857 141.302L113.841 139.34Z" fill="#F89A1C"/>
<path fill-rule="evenodd" clip-rule="evenodd" d="M112.651 122.117L119.097 121.92C119.432 121.564 119.619 121.365 119.953 121.009L111.741 121.26C112.096 121.595 112.296 121.782 112.651 122.117Z" fill="#F8DA5D"/>
<path fill-rule="evenodd" clip-rule="evenodd" d="M111.704 120.056L119.916 119.805C119.561 119.47 119.362 119.282 119.006 118.948L112.56 119.145C112.226 119.501 112.038 119.7 111.704 120.056Z" fill="#FAAD18"/>
<path fill-rule="evenodd" clip-rule="evenodd" d="M111.704 120.056L111.741 121.26L119.953 121.009L119.916 119.805" fill="#F89A1C"/>
<path fill-rule="evenodd" clip-rule="evenodd" d="M116.395 141.529L113.005 141.633L114.294 142.734L116.43 142.669L116.395 141.529Z" fill="#F8CE1A"/>
<path fill-rule="evenodd" clip-rule="evenodd" d="M118.968 142.582L120.201 141.302L118.843 141.344L118.131 142.625L118.968 142.582Z" fill="#F8DA5D"/>
<path fill-rule="evenodd" clip-rule="evenodd" d="M132.167 165.209L132.283 169.022L126.547 171.812L132.363 171.634L132.516 176.652L126.7 176.83L130.736 178.493L132.596 179.261L132.713 183.076L120.738 178.219L118.889 177.47L118.712 171.648L132.167 165.209Z" fill="#FAAD18"/>
<path fill-rule="evenodd" clip-rule="evenodd" d="M123.156 89.1441C123.287 93.4123 119.934 96.9794 115.67 97.1099C111.405 97.2398 107.842 93.8852 107.711 89.617C107.58 85.3483 110.933 81.7818 115.198 81.6513C119.462 81.5208 123.026 84.876 123.156 89.1441ZM102.743 89.7686C102.957 96.7833 108.813 102.295 115.822 102.08C122.83 101.866 128.337 96.0067 128.123 88.992C127.908 81.9773 122.054 76.4643 115.046 76.6791C108.037 76.8933 102.529 82.7545 102.743 89.7686Z" fill="#FAAD18"/>
<path fill-rule="evenodd" clip-rule="evenodd" d="M120.738 178.22L130.8 180.583L130.736 178.493L132.596 179.26L132.713 183.076L120.738 178.22Z" fill="#E08726"/>
<path fill-rule="evenodd" clip-rule="evenodd" d="M130.528 171.69L132.363 171.634L132.517 176.652L130.682 176.708L130.528 171.69Z" fill="#E08726"/>
<path fill-rule="evenodd" clip-rule="evenodd" d="M119.848 173.169L130.501 168.105L130.538 166.891L119.699 171.906L119.848 173.169Z" fill="#F8CE1A"/>
<path fill-rule="evenodd" clip-rule="evenodd" d="M115.035 97.5787C116.371 98.9698 126.775 97.6003 126.214 88.697C125.68 80.2286 115.889 79.5919 114.534 81.1755C116.304 80.5704 123.635 81.7649 123.852 88.8791C124.087 96.5855 116.948 98.0434 115.035 97.5787Z" fill="#F89A1C"/>
<path fill-rule="evenodd" clip-rule="evenodd" d="M109.455 99.6225C109.455 99.6225 110.303 97.6683 110.828 96.8256C109.543 96.2041 108.511 94.858 108.511 94.858L106.205 96.8572C106.205 96.8572 107.556 98.744 109.455 99.6225Z" fill="#F8DA5D"/>
<path fill-rule="evenodd" clip-rule="evenodd" d="M109.346 99.199L109.715 98.2374C109.715 98.2374 107.789 96.4507 107.505 96.1563C106.81 96.8112 106.648 96.9265 106.648 96.9265C106.648 96.9265 107.645 98.4797 109.346 99.199Z" fill="#FFE786"/>
<path fill-rule="evenodd" clip-rule="evenodd" d="M105.853 96.1119L107.154 95.0877C107.154 95.0877 106.09 93.5011 105.583 91.4206C104.321 91.6494 104.04 91.8174 104.04 91.8174C104.04 91.8174 104.071 93.8482 105.853 96.1119Z" fill="white"/>
<path fill-rule="evenodd" clip-rule="evenodd" d="M103.936 89.2684C103.936 89.2684 103.938 83.924 109.122 80.625C114.306 77.326 120.571 78.7868 121.021 79.104C121.188 78.548 113.175 75.7447 107.412 80.512C103.187 84.0077 103.936 89.2684 103.936 89.2684Z" fill="#F8DA5D"/>
<path fill-rule="evenodd" clip-rule="evenodd" d="M125.683 175.818L129.807 175.692L129.767 174.371L125.683 175.818Z" fill="#F8CE1A"/>
<path fill-rule="evenodd" clip-rule="evenodd" d="M204.77 160.079C204.77 178.972 189.466 194.288 170.588 194.288C151.711 194.288 136.408 178.972 136.408 160.079C136.408 141.185 151.711 125.868 170.588 125.868C189.466 125.868 204.77 141.185 204.77 160.079Z" fill="#2F57A3"/>
<path fill-rule="evenodd" clip-rule="evenodd" d="M170.892 137.092C170.628 137.092 170.365 137.098 170.103 137.107C181.694 138.512 190.675 148.391 190.675 160.371C190.675 173.05 180.614 183.376 168.046 183.793C168.979 183.906 169.929 183.966 170.892 183.966C183.825 183.966 194.309 173.473 194.309 160.529C194.309 147.585 183.825 137.092 170.892 137.092Z" fill="#2285E0"/>
<path fill-rule="evenodd" clip-rule="evenodd" d="M190.675 160.371C190.675 148.391 181.694 138.512 170.103 137.107C157.536 137.523 147.475 147.849 147.475 160.529C147.475 172.509 156.456 182.388 168.046 183.793C180.614 183.377 190.675 173.051 190.675 160.371Z" fill="#4A9FE4"/>
<path fill-rule="evenodd" clip-rule="evenodd" d="M170.498 151.836C170.397 151.836 170.296 151.838 170.195 151.842C174.655 152.382 178.111 156.184 178.111 160.793C178.111 165.672 174.24 169.645 169.404 169.806C169.763 169.849 170.128 169.872 170.498 169.872C175.475 169.872 179.509 165.834 179.509 160.854C179.509 155.873 175.475 151.836 170.498 151.836Z" fill="#2285E0"/>
<path fill-rule="evenodd" clip-rule="evenodd" d="M178.111 160.793C178.111 156.184 174.655 152.382 170.195 151.842C165.359 152.002 161.488 155.975 161.488 160.854C161.488 165.463 164.944 169.265 169.404 169.805C174.24 169.645 178.111 165.672 178.111 160.793Z" fill="white"/>
<path d="M169.638 172.267V177.437" stroke="#2F57A3" stroke-width="1.3" stroke-linecap="round" stroke-linejoin="round"/>
<path d="M169.638 143.168V148.791" stroke="#2F57A3" stroke-width="1.3" stroke-linecap="round" stroke-linejoin="round"/>
<path d="M158.626 159.876L153.461 159.867" stroke="#2F57A3" stroke-width="1.3" stroke-linecap="round" stroke-linejoin="round"/>
<path d="M187.701 159.928L182.083 159.918" stroke="#2F57A3" stroke-width="1.3" stroke-linecap="round" stroke-linejoin="round"/>
<path d="M164.123 170.366L161.676 174.918" stroke="#2F57A3" stroke-width="1.3" stroke-linecap="round" stroke-linejoin="round"/>
<path d="M177.896 144.738L175.234 149.69" stroke="#2F57A3" stroke-width="1.3" stroke-linecap="round" stroke-linejoin="round"/>
<path d="M160.29 154.232L155.746 151.775" stroke="#2F57A3" stroke-width="1.3" stroke-linecap="round" stroke-linejoin="round"/>
<path d="M185.871 168.063L180.928 165.39" stroke="#2F57A3" stroke-width="1.3" stroke-linecap="round" stroke-linejoin="round"/>
<path d="M159.683 165.813L155.267 168.495" stroke="#2F57A3" stroke-width="1.3" stroke-linecap="round" stroke-linejoin="round"/>
<path d="M184.537 150.712L179.734 153.63" stroke="#2F57A3" stroke-width="1.3" stroke-linecap="round" stroke-linejoin="round"/>
<path d="M164.552 149.962L161.88 145.538" stroke="#2F57A3" stroke-width="1.3" stroke-linecap="round" stroke-linejoin="round"/>
<path d="M179.596 174.863L176.688 170.051" stroke="#2F57A3" stroke-width="1.3" stroke-linecap="round" stroke-linejoin="round"/>
<path fill-rule="evenodd" clip-rule="evenodd" d="M167.054 129.144L169.342 134.309C169.653 135.013 170.657 135.001 170.951 134.289L173.14 128.999L167.054 129.144Z" fill="#171A36"/>
<mask id="mask1" mask-type="alpha" maskUnits="userSpaceOnUse" x="0" y="0" width="310" height="309">
<path d="M309.539 154.326C309.539 239.558 240.352 308.652 155.006 308.652C69.6591 308.652 0.472321 239.558 0.472321 154.326C0.472321 69.0939 69.6591 0 155.006 0C240.352 0 309.539 69.0939 309.539 154.326Z" fill="white"/>
</mask>
<g mask="url(#mask1)">
<path fill-rule="evenodd" clip-rule="evenodd" d="M13.2187 73.2329C13.2187 73.2329 42.5511 54.7029 48.1803 52.1246C53.8094 49.5468 86.0435 34.4158 90.9263 33.3462C95.8097 32.2767 112.548 40.188 120.891 54.4908C122.86 57.8659 125.538 78.9304 123.419 81.5467C121.3 84.163 114.054 81.0064 112.3 75.4719C110.546 69.9385 108.517 60.6983 107.439 58.2444C106.361 55.7905 96.8725 49.8821 95.932 50.0042C89.908 50.7857 83.1249 57.9208 83.1249 57.9208" fill="#FF9E5C"/>
<path fill-rule="evenodd" clip-rule="evenodd" d="M120.785 76.0112C117.763 73.9621 116.144 70.4294 114.949 67.1063C113.656 63.511 113.302 59.2879 111.036 56.1313C109.783 54.3865 108.021 53.1277 106.261 51.9384C104.502 50.7492 102.827 49.3496 100.976 48.3163C97.9246 46.6118 94.7152 47.0803 91.4725 47.8607C89.5447 48.3245 87.6893 49.1621 86.0616 50.2901C81.9894 53.1114 76.2112 59.0396 76.2112 59.0396L76.224 59.4327L83.1247 57.921C83.1247 57.921 89.6657 53.2212 95.6897 52.4396C96.6302 52.3175 105.211 56.5571 106.289 59.011C107.366 61.4649 110.546 69.9387 112.3 75.4721C114.055 81.0061 118.568 88.4816 120.687 85.8654C121.165 85.276 123.953 81.3647 124.026 79.0463C123.291 77.315 122.276 77.0218 120.785 76.0112Z" fill="#E76A18"/>
<path fill-rule="evenodd" clip-rule="evenodd" d="M31.7492 101.186C31.7492 101.186 45.9425 87.317 50.5439 84.9641C55.1454 82.6113 63.9014 84.4594 71.9819 83.2275C80.0618 81.9956 89.2577 79.7123 95.2746 81.3537C101.292 82.9945 112.975 89.5822 117.802 88.2556C122.628 86.9297 124.868 82.8806 119.546 76.575C112.264 67.9481 93.5813 63.639 90.5895 62.4731C85.2867 60.4065 84.1842 56.6126 79.0511 55.3165C73.9173 54.0192 34.5883 65.0549 34.5883 65.0549L16.1333 71.7875L10.272 75.7613L31.7492 101.186Z" fill="#FF9E5C"/>
<path fill-rule="evenodd" clip-rule="evenodd" d="M117.802 88.2558C107.134 86.2885 98.3969 77.1727 93.7463 76.8462C89.0951 76.5202 78.854 73.2059 68.7451 72.9957C62.672 72.8695 48.6027 74.8981 45.6875 76.3433C42.9256 77.713 25.4632 90.2664 23.636 91.5818L31.7492 101.187C31.7492 101.187 45.9425 87.3171 50.544 84.9643C55.1454 82.6109 63.9015 84.459 71.9819 83.2277C80.0618 81.9958 89.2577 79.7125 95.2746 81.3538C101.292 82.9946 112.975 89.5824 117.802 88.2558Z" fill="#E76A18"/>
<path fill-rule="evenodd" clip-rule="evenodd" d="M4.4805 75.147L13.2816 71.067L34.1996 102.532L26.043 110.776L4.4805 75.147Z" fill="white"/>
<path fill-rule="evenodd" clip-rule="evenodd" d="M13.1813 84.8204L27.4261 109.378L34.1998 102.533L18.3928 78.7554L13.1813 84.8204Z" fill="#C3D8E3"/>
<path fill-rule="evenodd" clip-rule="evenodd" d="M-30.9999 87.7607L4.63134 72.1547L29.7858 109.418L-18.738 153.404L-30.9999 87.7607Z" fill="#4A7AC6"/>
<path fill-rule="evenodd" clip-rule="evenodd" d="M29.7857 109.418L13.1814 84.8203L10.6821 86.9512C-0.30831 96.3193 -13.5003 102.747 -27.6585 105.631L-29.4635 163.164L29.7857 109.418Z" fill="#2F57A3"/>
<path fill-rule="evenodd" clip-rule="evenodd" d="M21.4459 103.7C21.9443 105.968 20.5066 108.21 18.2354 108.707C15.9642 109.205 13.7199 107.77 13.2216 105.501C12.7232 103.233 14.1603 100.991 16.4315 100.494C18.7027 99.9966 20.9476 101.432 21.4459 103.7Z" fill="#FFCA05"/>
<path fill-rule="evenodd" clip-rule="evenodd" d="M19.2711 100.89C19.474 101.247 19.6442 101.629 19.7367 102.051C20.235 104.319 18.7973 106.56 16.5267 107.058C15.5224 107.278 14.5322 107.103 13.687 106.663C14.5731 108.225 16.3875 109.112 18.2352 108.707C20.5064 108.21 21.9441 105.968 21.4458 103.7C21.1679 102.435 20.3374 101.446 19.2711 100.89Z" fill="#F6921E"/>
<path fill-rule="evenodd" clip-rule="evenodd" d="M109.859 76.007C107.618 76.6513 105.568 79.7716 107.071 82.9393C108.575 86.107 114.749 87.8483 116.291 87.5107C117.833 87.173 121.382 83.7057 120.248 80.9948C119.114 78.2839 113.786 74.8779 109.859 76.007Z" fill="#F7A584"/>
<path fill-rule="evenodd" clip-rule="evenodd" d="M116.291 87.5105C116.814 87.396 117.566 86.9171 118.289 86.2348C117.796 86.1186 117.367 86.0158 117.101 85.9223C114.749 85.0929 111.84 83.6764 110.525 81.3825C109.536 79.6576 109.467 77.0501 111.151 75.8042C110.71 75.8281 110.275 75.8877 109.858 76.0069C107.618 76.6511 105.568 79.7715 107.071 82.9392C108.575 86.1069 114.749 87.8482 116.291 87.5105Z" fill="#EF9778"/>
</g>
<defs>
<linearGradient id="paint0_linear" x1="141.369" y1="12.247" x2="179.994" y2="309" gradientUnits="userSpaceOnUse">
<stop offset="0.102289" stop-color="#F0C353"/>
<stop offset="1" stop-color="#FF9E0C"/>
</linearGradient>
</defs>
</svg>
