<svg xmlns="http://www.w3.org/2000/svg" height="511.99999pt" version="1.1" viewBox="1 1 511.99999 511.99999" width="511.99999pt">
<g id="surface1">
<path d="M 512 256 C 512 271.148438 506.097656 285.398438 495.378906 296.105469 L 296.105469 495.378906 C 285.386719 506.097656 271.148438 512 256 512 C 240.851562 512 226.613281 506.097656 215.894531 495.378906 L 16.621094 296.105469 C 5.902344 285.398438 0 271.148438 0 256 C 0 240.851562 5.902344 226.601562 16.621094 215.894531 L 215.894531 16.621094 C 226.613281 5.902344 240.851562 0 256 0 C 271.148438 0 285.386719 5.902344 296.105469 16.621094 L 495.378906 215.894531 C 506.097656 226.601562 512 240.851562 512 256 Z M 512 256 " style=" stroke:none;fill-rule:nonzero;fill:rgb(100%,89.411765%,46.666667%);fill-opacity:1;" />
<path d="M 512 256 C 512 271.148438 506.097656 285.398438 495.378906 296.105469 L 296.105469 495.378906 C 285.386719 506.097656 271.148438 512 256 512 L 256 0 C 271.148438 0 285.386719 5.902344 296.105469 16.621094 L 495.378906 215.894531 C 506.097656 226.601562 512 240.851562 512 256 Z M 512 256 " style=" stroke:none;fill-rule:nonzero;fill:rgb(100%,80.392157%,0%);fill-opacity:1;" />
<path d="M 495.378906 215.894531 L 296.105469 16.621094 C 285.386719 5.902344 271.148438 0 256 0 C 240.851562 0 226.613281 5.902344 215.894531 16.621094 L 16.621094 215.894531 C 5.902344 226.601562 0 240.851562 0 256 C 0 271.148438 5.902344 285.398438 16.621094 296.105469 L 215.894531 495.378906 C 226.613281 506.097656 240.851562 512 256 512 C 271.148438 512 285.386719 506.097656 296.105469 495.378906 L 495.378906 296.105469 C 506.097656 285.398438 512 271.148438 512 256 C 512 240.851562 506.097656 226.601562 495.378906 215.894531 Z M 474.15625 274.882812 L 274.882812 474.15625 C 269.839844 479.199219 263.132812 481.980469 256 481.980469 C 248.867188 481.980469 242.160156 479.199219 237.117188 474.15625 L 37.84375 274.882812 C 32.800781 269.839844 30.019531 263.132812 30.019531 256 C 30.019531 248.867188 32.800781 242.160156 37.84375 237.117188 L 237.117188 37.84375 C 242.160156 32.800781 248.867188 30.019531 256 30.019531 C 263.132812 30.019531 269.839844 32.800781 274.882812 37.84375 L 474.15625 237.117188 C 479.199219 242.160156 481.980469 248.867188 481.980469 256 C 481.980469 263.132812 479.199219 269.839844 474.15625 274.882812 Z M 474.15625 274.882812 " style=" stroke:none;fill-rule:nonzero;fill:rgb(98.823529%,96.862745%,79.215686%);fill-opacity:1;" />
<path d="M 271.460938 154.714844 L 271.460938 310.414062 C 271.460938 318.710938 264.746094 325.421875 256.449219 325.421875 C 256.300781 325.421875 256.148438 325.421875 256 325.414062 C 247.925781 325.171875 241.441406 318.558594 241.441406 310.414062 L 241.441406 154.714844 C 241.441406 146.582031 247.925781 139.957031 256 139.71875 C 256.148438 139.707031 256.300781 139.707031 256.449219 139.707031 C 264.746094 139.707031 271.460938 146.429688 271.460938 154.714844 Z M 271.460938 154.714844 " style=" stroke:none;fill-rule:nonzero;fill:rgb(100%,50.588235%,42.352941%);fill-opacity:1;" />
<path d="M 271.460938 357.445312 C 271.460938 357.933594 271.441406 358.433594 271.390625 358.925781 C 271.339844 359.40625 271.269531 359.894531 271.167969 360.375 C 271.070312 360.855469 270.949219 361.335938 270.808594 361.804688 C 270.667969 362.265625 270.5 362.738281 270.308594 363.1875 C 270.128906 363.636719 269.910156 364.085938 269.6875 364.519531 C 269.457031 364.949219 269.199219 365.367188 268.929688 365.777344 C 268.65625 366.1875 268.367188 366.578125 268.058594 366.960938 C 267.746094 367.339844 267.40625 367.710938 267.066406 368.058594 C 266.714844 368.398438 266.347656 368.742188 265.964844 369.050781 C 265.585938 369.359375 265.195312 369.652344 264.785156 369.921875 C 264.375 370.191406 263.953125 370.453125 263.523438 370.683594 C 263.09375 370.902344 262.644531 371.113281 262.195312 371.300781 C 261.742188 371.492188 261.273438 371.664062 260.8125 371.800781 C 260.34375 371.941406 259.863281 372.0625 259.382812 372.164062 C 258.902344 372.253906 258.410156 372.332031 257.929688 372.382812 C 257.441406 372.433594 256.941406 372.453125 256.449219 372.453125 C 256.300781 372.453125 256.148438 372.453125 256 372.441406 C 255.660156 372.433594 255.320312 372.414062 254.980469 372.382812 C 254.488281 372.332031 254 372.253906 253.519531 372.164062 C 253.039062 372.0625 252.558594 371.941406 252.097656 371.800781 C 251.628906 371.664062 251.15625 371.492188 250.707031 371.300781 C 250.257812 371.113281 249.816406 370.902344 249.386719 370.683594 C 248.957031 370.453125 248.523438 370.191406 248.113281 369.921875 C 247.714844 369.652344 247.316406 369.359375 246.933594 369.050781 C 246.554688 368.742188 246.183594 368.398438 245.84375 368.058594 C 245.492188 367.710938 245.164062 367.339844 244.84375 366.960938 C 244.542969 366.578125 244.242188 366.1875 243.972656 365.777344 C 243.703125 365.367188 243.453125 364.949219 243.222656 364.519531 C 242.992188 364.085938 242.78125 363.636719 242.589844 363.1875 C 242.410156 362.738281 242.242188 362.265625 242.101562 361.804688 C 241.953125 361.335938 241.832031 360.855469 241.742188 360.375 C 241.640625 359.894531 241.570312 359.40625 241.519531 358.925781 C 241.472656 358.433594 241.441406 357.933594 241.441406 357.445312 C 241.441406 356.953125 241.472656 356.460938 241.519531 355.972656 C 241.570312 355.480469 241.640625 354.992188 241.742188 354.511719 C 241.832031 354.03125 241.953125 353.550781 242.101562 353.089844 C 242.242188 352.621094 242.410156 352.160156 242.589844 351.699219 C 242.78125 351.25 242.992188 350.808594 243.222656 350.378906 C 243.453125 349.949219 243.703125 349.519531 243.972656 349.117188 C 244.242188 348.707031 244.542969 348.308594 244.84375 347.925781 C 245.164062 347.546875 245.492188 347.175781 245.84375 346.828125 C 246.183594 346.488281 246.554688 346.15625 246.933594 345.835938 C 247.316406 345.535156 247.714844 345.234375 248.113281 344.964844 C 248.523438 344.695312 248.957031 344.445312 249.386719 344.214844 C 249.816406 343.984375 250.257812 343.773438 250.707031 343.585938 C 251.15625 343.394531 251.628906 343.234375 252.097656 343.09375 C 252.558594 342.945312 253.039062 342.824219 253.519531 342.734375 C 254 342.632812 254.488281 342.554688 254.980469 342.515625 C 255.308594 342.484375 255.660156 342.453125 256 342.445312 C 256.640625 342.425781 257.289062 342.445312 257.929688 342.515625 C 258.410156 342.554688 258.902344 342.632812 259.382812 342.734375 C 259.863281 342.824219 260.34375 342.945312 260.8125 343.09375 C 261.273438 343.234375 261.742188 343.394531 262.195312 343.585938 C 262.644531 343.773438 263.09375 343.984375 263.523438 344.214844 C 263.953125 344.445312 264.375 344.695312 264.785156 344.964844 C 265.195312 345.234375 265.585938 345.535156 265.964844 345.835938 C 266.347656 346.15625 266.714844 346.488281 267.066406 346.828125 C 267.40625 347.175781 267.746094 347.546875 268.058594 347.925781 C 268.367188 348.308594 268.65625 348.707031 268.929688 349.117188 C 269.199219 349.519531 269.457031 349.949219 269.6875 350.378906 C 269.910156 350.808594 270.128906 351.25 270.308594 351.699219 C 270.5 352.160156 270.667969 352.621094 270.808594 353.089844 C 270.949219 353.550781 271.070312 354.03125 271.167969 354.511719 C 271.269531 354.992188 271.339844 355.480469 271.390625 355.972656 C 271.441406 356.460938 271.460938 356.953125 271.460938 357.445312 Z M 271.460938 357.445312 " style=" stroke:none;fill-rule:nonzero;fill:rgb(100%,50.588235%,42.352941%);fill-opacity:1;" />
<path d="M 256.449219 372.453125 C 256.300781 372.453125 256.148438 372.453125 256 372.441406 L 256 342.445312 C 256.640625 342.425781 257.289062 342.445312 257.929688 342.515625 C 258.410156 342.554688 258.902344 342.632812 259.382812 342.734375 C 259.863281 342.824219 260.34375 342.945312 260.8125 343.09375 C 261.273438 343.234375 261.742188 343.394531 262.195312 343.585938 C 262.644531 343.773438 263.09375 343.984375 263.523438 344.214844 C 263.953125 344.445312 264.375 344.695312 264.785156 344.964844 C 265.195312 345.234375 265.585938 345.535156 265.964844 345.835938 C 266.347656 346.15625 266.714844 346.488281 267.066406 346.828125 C 267.40625 347.175781 267.746094 347.546875 268.058594 347.925781 C 268.367188 348.308594 268.65625 348.707031 268.929688 349.117188 C 269.199219 349.519531 269.457031 349.949219 269.6875 350.378906 C 269.910156 350.808594 270.128906 351.25 270.308594 351.699219 C 270.5 352.160156 270.667969 352.621094 270.808594 353.089844 C 270.949219 353.550781 271.070312 354.03125 271.167969 354.511719 C 271.269531 354.992188 271.339844 355.480469 271.390625 355.972656 C 271.441406 356.460938 271.460938 356.953125 271.460938 357.445312 C 271.460938 357.933594 271.441406 358.433594 271.390625 358.925781 C 271.339844 359.40625 271.269531 359.894531 271.167969 360.375 C 271.070312 360.855469 270.949219 361.335938 270.808594 361.804688 C 270.667969 362.265625 270.5 362.738281 270.308594 363.1875 C 270.128906 363.636719 269.910156 364.085938 269.6875 364.519531 C 269.457031 364.949219 269.199219 365.367188 268.929688 365.777344 C 268.65625 366.1875 268.367188 366.578125 268.058594 366.960938 C 267.746094 367.339844 267.40625 367.710938 267.066406 368.058594 C 266.714844 368.398438 266.347656 368.742188 265.964844 369.050781 C 265.585938 369.359375 265.195312 369.652344 264.785156 369.921875 C 264.375 370.191406 263.953125 370.453125 263.523438 370.683594 C 263.09375 370.902344 262.644531 371.113281 262.195312 371.300781 C 261.742188 371.492188 261.273438 371.664062 260.8125 371.800781 C 260.34375 371.941406 259.863281 372.0625 259.382812 372.164062 C 258.902344 372.253906 258.410156 372.332031 257.929688 372.382812 C 257.441406 372.433594 256.941406 372.453125 256.449219 372.453125 Z M 256.449219 372.453125 " style=" stroke:none;fill-rule:nonzero;fill:rgb(93.72549%,24.313725%,20.784314%);fill-opacity:1;" />
<path d="M 256.449219 325.421875 C 256.300781 325.421875 256.148438 325.421875 256 325.414062 L 256 139.71875 C 256.148438 139.707031 256.300781 139.707031 256.449219 139.707031 C 264.746094 139.707031 271.460938 146.429688 271.460938 154.714844 L 271.460938 310.414062 C 271.460938 318.710938 264.746094 325.421875 256.449219 325.421875 Z M 256.449219 325.421875 " style=" stroke:none;fill-rule:nonzero;fill:rgb(93.72549%,24.313725%,20.784314%);fill-opacity:1;" />
<path d="M 512 256 C 512 271.148438 506.097656 285.398438 495.378906 296.105469 L 296.105469 495.378906 C 285.386719 506.097656 271.148438 512 256 512 L 256 481.980469 C 263.132812 481.980469 269.839844 479.199219 274.882812 474.15625 L 474.15625 274.882812 C 479.199219 269.839844 481.980469 263.132812 481.980469 256 C 481.980469 248.867188 479.199219 242.160156 474.15625 237.117188 L 274.882812 37.84375 C 269.839844 32.800781 263.132812 30.019531 256 30.019531 L 256 0 C 271.148438 0 285.386719 5.902344 296.105469 16.621094 L 495.378906 215.894531 C 506.097656 226.601562 512 240.851562 512 256 Z M 512 256 " style=" stroke:none;fill-rule:nonzero;fill:rgb(100%,90.980392%,61.176471%);fill-opacity:1;" />
</g>
</svg>