<?xml version="1.0" encoding="utf-8"?>
<!-- Generator: Adobe Illustrator 19.2.1, SVG Export Plug-In . SVG Version: 6.00 Build 0)  -->
<svg version="1.1" id="Capa_1" xmlns="http://www.w3.org/2000/svg" xmlns:xlink="http://www.w3.org/1999/xlink" x="0px" y="0px"
	 viewBox="0 0 612 612" style="enable-background:new 0 0 612 612;" xml:space="preserve">
<style type="text/css">
	.st0{fill:#444;}
</style>
<g>
	<g>
		<path class="st0" d="M586.7,187.3c-32.2-75-86.8-129.6-162.4-161.8C386.5,9.3,346.9,1.1,305.6,1.1c-41.4,0-80.6,8.2-118.4,24.4
			c-75,32.2-129.9,86.7-162.1,161.8c-16.1,37.6-24,77.1-24,118.5c0,41.4,7.9,81.1,24,118.8c32.2,75.1,87.1,130,162.1,162.2
			c37.8,16.2,77,24.4,118.4,24.4s80.9-8.2,118.7-24.4c75.6-32.3,130.3-87.2,162.4-162.2c16.2-37.8,24.3-77.4,24.3-118.8
			C611.1,264.4,602.9,225.1,586.7,187.3z M538,440.6c-23.9,41.1-56.7,73.7-98.1,97.8c-41.1,24-86,36-134.4,36
			c-36.4,0-71-7-104.1-21.4c-33-14.3-61.5-33.2-85.4-57.1c-23.8-23.9-42.8-52.7-57-85.8c-14.2-33-21-68.1-21-104.5
			c0-48.4,11.9-93.2,35.7-134.1c23.9-41.1,56.7-73.7,97.7-97.8c41-24,85.7-36,134.1-36c48.4,0,93.3,12.1,134.4,36
			c41.3,24.1,74,56.7,98.1,97.8c24,41,36,85.8,36,134.1C574.1,354.1,562.1,399.2,538,440.6z"/>
		<path class="st0" d="M324.9,303.1V130.2c0-10.3-9-18.7-19.3-18.7c-9.7,0-18.3,8.3-18.3,18.7v175.5c0,0.3,0.7,1.7,0.7,2.7
			c-0.7,6,1,11,5,15l99.7,99.8c6.7,6.7,19,6.7,25.7,0c7.7-7.7,7.2-18.8,0-26L324.9,303.1z"/>
	</g>
</g>
</svg>
