<?xml version="1.0" encoding="utf-8"?>
<!-- Generator: Adobe Illustrator 19.2.1, SVG Export Plug-In . SVG Version: 6.00 Build 0)  -->
<svg version="1.1" id="Capa_1" xmlns="http://www.w3.org/2000/svg" xmlns:xlink="http://www.w3.org/1999/xlink" x="0px" y="0px"
	 viewBox="0 0 612 612" style="enable-background:new 0 0 612 612;" xml:space="preserve">
<style type="text/css">
	.st0{fill:#444;}
</style>
<g>
	<g>
		<path class="st0" d="M324.8,134.6c-14.9-9.5-30.9-10-46.3-1.4c-3.7,2.1-5.4,6.4-4.2,10.5l18,57.2c1.2,3.7,4.6,6.2,8.4,6.3
			c0,0,0.1,0,0.1,0c3.8,0,7.2-2.4,8.5-6.1l19.1-56C329.8,141.1,328.3,136.8,324.8,134.6z M301.2,169.5l-7.4-23.5
			c5.2-1.5,10.2-1.4,15.2,0.6L301.2,169.5z"/>
	</g>
</g>
<g>
	<g>
		<path class="st0" d="M363.5,153.8c-3.8-1.8-8.4-0.7-11,2.7l-36.3,47.7c-2.3,3.1-2.4,7.3-0.2,10.5c1.7,2.5,4.5,3.9,7.4,3.9
			c0.8,0,1.7-0.1,2.5-0.4l56.8-16.8c3.9-1.2,6.6-4.9,6.4-9C388.3,174.8,379.4,161.4,363.5,153.8z M347,193.3l14.9-19.6
			c4.2,3.3,7,7.5,8.3,12.7L347,193.3z"/>
	</g>
</g>
<g>
	<g>
		<path class="st0" d="M285.5,204.2l-36.3-47.7c-2.6-3.4-7.1-4.5-11-2.7c-15.9,7.6-24.8,21-25.6,38.6c-0.2,4.1,2.5,7.8,6.4,9
			l56.8,16.8c0.8,0.2,1.7,0.4,2.5,0.4c2.9,0,5.7-1.4,7.4-3.9C288,211.5,287.9,207.3,285.5,204.2z M231.5,186.4
			c1.4-5.2,4.1-9.4,8.3-12.7l14.9,19.6L231.5,186.4z"/>
	</g>
</g>
<path class="st0" d="M267,425c0,0,8.2-3.5,8.2-3.5c29.5-12.4,43.5-46.3,31.2-75.5l-31.9-75.7c-12.3-29.2-46.3-42.9-75.8-30.4
	l-72.1,30.4c-23,9.7-43.7,24.6-60,43.1L7.7,338.2c-4.2,1.8-6.1,6.6-4.4,10.8l57.4,136.3c1.8,4.2,6.6,6.1,10.8,4.4l58-24.5l59.1,14.8
	c12.5,3.1,26.3,3.7,39.9,1.6C255.8,477.2,272.8,450.8,267,425z M205,255c21.1-8.9,45.5,0.8,54.3,21.7l31.9,75.7
	c8.8,20.9-1.3,45.1-22.4,54L191,439.2c-18.1,7.6-37.1,10.8-56.5,9.6L81,321.8c14.3-15.5,32.1-28.1,51.9-36.4L205,255z M36.8,343.8
	l28.7,68.1c1.8,4.2-0.2,9-4.4,10.8s-9-0.2-10.8-4.4l-28.7-68.1L36.8,343.8z M59.4,439.7c2.7-0.2,5.5-0.8,8.1-1.9
	c12.5-5.3,18.4-19.8,13.1-32.3l-28.7-68.1l15.1-6.4l51,121.1l-45.4,19.1L59.4,439.7z M226,465.2c-11.4,1.8-22.9,1.3-33.4-1.3
	l-13.5-3.4c6.1-1.7,12.2-3.8,18.2-6.3l54-22.7C253.4,447.2,242.8,462.6,226,465.2z"/>
<path class="st0" d="M386.1,477.1c13.5,2.1,27.3,1.6,39.9-1.6l59.1-14.8l58,24.5c4.2,1.8,9-0.2,10.8-4.4l57.4-136.3
	c1.8-4.2-0.2-9-4.4-10.8l-58.8-24.8c-16.3-18.5-37-33.4-60-43.1L416,235.6c-29.5-12.4-63.5,1.2-75.8,30.4l-31.9,75.7
	c-12.3,29.2,1.7,63.1,31.2,75.5c0,0,8.2,3.5,8.2,3.5C341.8,446.5,358.8,472.9,386.1,477.1z M481.8,281.1
	c19.7,8.3,37.6,20.8,51.9,36.4l-53.5,126.9c-19.4,1.3-38.4-1.9-56.5-9.6l-77.8-32.7c-21.1-8.9-31.2-33.1-22.4-54l31.9-75.7
	c8.8-20.9,33.2-30.6,54.3-21.7L481.8,281.1z M593,345.8l-28.7,68.1c-1.8,4.2-6.6,6.1-10.8,4.4c-4.2-1.8-6.1-6.6-4.4-10.8l28.7-68.1
	L593,345.8z M542,466.9l-45.4-19.1l51-121.1l15.1,6.4L534,401.2c-5.3,12.5,0.6,27,13.1,32.3c2.7,1.1,5.4,1.7,8.1,1.9L542,466.9z
	 M363.2,427.2l54,22.7c6,2.5,12.1,4.6,18.2,6.3l-13.5,3.4c-10.4,2.6-22,3.1-33.4,1.3C371.9,458.3,361.3,442.9,363.2,427.2z"/>
</svg>
