<?xml version="1.0" encoding="utf-8"?>
<!-- Generator: Adobe Illustrator 19.2.1, SVG Export Plug-In . SVG Version: 6.00 Build 0)  -->
<svg version="1.1" id="Capa_1" xmlns="http://www.w3.org/2000/svg" xmlns:xlink="http://www.w3.org/1999/xlink" x="0px" y="0px"
	 viewBox="0 0 612 612" style="enable-background:new 0 0 612 612;" xml:space="preserve">
<style type="text/css">
	.st0{display:none;}
	.st1{display:inline;}
	.st2{fill:#FFFFFF;}
</style>
<g class="st0">
	<path class="st1" d="M191,0.8c-168.7,0-305.5,136.8-305.5,305.5S22.3,611.9,191,611.9s305.5-136.8,305.5-305.5S359.7,0.8,191,0.8z
		 M191,573.7c-147.4,0-267.3-119.9-267.3-267.3S43.6,39,191,39S458.3,159,458.3,306.4S338.4,573.7,191,573.7z M286,318.1
		c7.3,12.3,10.9,26.7,10.9,43.1c0,25.3-7.5,46.3-22.6,63.1c-15,16.9-36.7,26.8-65.1,29.8v43.2H173v-43
		c-47.3-4.8-76.6-32.4-87.9-82.5l55.9-14.6c5.2,31.5,22.3,47.3,51.5,47.3c13.6,0,23.7-3.4,30.1-10.1s9.6-14.9,9.6-24.4
		c0-9.9-3.2-17.4-9.6-22.5c-6.4-5.1-20.7-11.6-42.8-19.4c-19.9-6.9-35.4-13.7-46.6-20.5c-11.2-6.7-20.3-16.1-27.3-28.3
		c-7-12.2-10.5-26.3-10.5-42.4c0-21.1,6.3-40.2,18.7-57.1c12.5-16.9,32.1-27.2,58.9-31v-33.4h36.2v33.4
		c40.4,4.8,66.6,27.7,78.5,68.6l-49.8,20.4c-9.7-28-24.7-42.1-45.1-42.1c-10.2,0-18.4,3.1-24.6,9.4c-6.2,6.3-9.3,13.9-9.3,22.8
		c0,9.1,3,16.1,9,21c5.9,4.8,18.7,10.9,38.3,18.1c21.5,7.8,38.3,15.3,50.5,22.2C268.9,296.2,278.6,305.9,286,318.1z"/>
</g>
<g>
	<g id="Layer_5_90_">
		<g>
			<path class="st2" d="M261,240.4c23.3-25.3,36.1-59.1,36.1-95.4c0-69.1-49.3-139-143.6-139C109.6,6,72.6,21.1,46.4,49.6
				C23.3,74.9,10.5,108.7,10.5,145c0,69.1,49.1,139,143,139C197.6,284,234.7,268.9,261,240.4z M153.5,70.6
				c51.7,0,75.2,38.6,75.2,74.4c0,19.5-6.6,37.5-18.5,50.8c-13.3,14.8-32.6,22.7-55.9,22.7c-53,0-77.1-38.6-77.1-74.4
				C77.2,107.5,100.8,70.6,153.5,70.6z"/>
			<path class="st2" d="M496.5,59.6c-8.5,0.2-20.2,5.5-25.9,11.8L46.3,543.1c-5.7,6.4-1.7,15.3,6.9,15.3h55.5
				c8.5,0,20.2-5.2,25.9-11.6L556.2,75.2c5.7-6.4,5.3-16.7-8.8-16.7L496.5,59.6z"/>
			<path class="st2" d="M450.1,337c-43,0-79.4,14.8-105,42.8c-22.7,24.8-35.3,58-35.3,93.6c0,67.7,48.2,136.3,140.3,136.3
				c43.2,0,79.7-14.8,105.5-42.7c22.8-24.8,35.4-58,35.4-93.6C591,405.6,542.6,337,450.1,337z M450.9,547.1c-51.5,0-75-38.7-75-74.6
				c0-19.6,6.6-37.7,18.5-51c13.3-14.9,32.5-22.7,55.7-22.7c51.5,0,75,38.7,75,74.6c0,19.6-6.6,37.7-18.5,51
				C493.4,539.3,474.1,547.1,450.9,547.1z"/>
		</g>
	</g>
</g>
</svg>
