<?xml version="1.0" encoding="utf-8"?>
<!-- Generator: Adobe Illustrator 19.2.1, SVG Export Plug-In . SVG Version: 6.00 Build 0)  -->
<svg version="1.1" id="Capa_1" xmlns="http://www.w3.org/2000/svg" xmlns:xlink="http://www.w3.org/1999/xlink" x="0px" y="0px"
	 viewBox="0 0 612 612" style="enable-background:new 0 0 612 612;" xml:space="preserve">
<style type="text/css">
	.st0{display:none;}
	.st1{display:inline;}
	.st2{fill:#FFFFFF;}
</style>
<g class="st0">
	<g class="st1">
		<path class="st2" d="M571.2,244.6l-38,4.9v-32.9c42.6-8.3,74.8-45.9,74.8-90.8c0-51-41.5-92.5-92.5-92.5
			c-51,0-92.5,41.5-92.5,92.5c0,45,32.2,82.5,74.8,90.8v37.5l-385.1,50.2v-26.6c42.6-8.3,74.8-45.9,74.8-90.8
			c0-51-41.5-92.5-92.5-92.5S2.4,135.9,2.4,186.9c0,45,32.2,82.5,74.8,90.8V309l-41.3,5.4c-9.7,1.3-16.6,10.2-15.3,19.9
			c1.2,8.9,8.8,15.4,17.6,15.4c0.8,0,1.5,0,2.3-0.2l240-31.3l-43.8,189.8h136.6l-47.8-195.7l250.4-32.6c9.7-1.3,16.6-10.2,15.3-19.9
			C589.8,250.2,580.9,243.3,571.2,244.6z"/>
	</g>
</g>
<g class="st0">
	<g class="st1">
		<path class="st2" d="M398.2,543.6h-16.4H228.4h-16.2c-9.8,0-17.7,7.9-17.7,17.7c0,9.8,7.9,17.7,17.7,17.7h8h170.3h7.7
			c9.8,0,17.7-7.9,17.7-17.7C416,551.5,408,543.6,398.2,543.6z"/>
	</g>
</g>
<path class="st2" d="M323.9,40.6V17.9C323.9,8,315.9,0,306,0s-17.9,8-17.9,17.9v22.6c5.7-1.4,11.7-2.2,17.9-2.2
	S318.2,39.1,323.9,40.6z"/>
<path class="st2" d="M227.9,382.8c0-9.9-8-17.9-17.9-17.9h-192c-9.9,0-17.9,8-17.9,17.9c0,52.2,42.5,94.8,94.7,94.8h38.4
	C185.4,477.6,227.9,435.1,227.9,382.8z"/>
<path class="st2" d="M344.4,499.3h-76.8c-52.2,0-94.8,42.5-94.8,94.7c0,9.9,8,17.9,17.9,17.9h230.5c9.9,0,17.9-8,17.9-17.9v0
	C439.2,541.8,396.7,499.3,344.4,499.3z"/>
<path class="st2" d="M594.1,211.3H402c-9.9,0-17.9,8-17.9,17.9c0,52.2,42.5,94.7,94.8,94.7h38.4c52.2,0,94.7-42.5,94.7-94.7
	C612,219.3,604,211.3,594.1,211.3z"/>
<path class="st2" d="M306,153.6c21.9,0,39.7-17.8,39.7-39.7c0-21.9-17.8-39.7-39.7-39.7s-39.7,17.8-39.7,39.7
	C266.3,135.8,284.1,153.6,306,153.6z"/>
<path class="st2" d="M113.9,239l36,90h38.6l-51.3-128.3l107.3-42.9c-6.9-9.7-11.6-21-13.4-33.3l-123.9,49.6v0
	c-4.5,1.8-8.1,5.3-10,10L39.3,329H78L113.9,239z"/>
<path class="st2" d="M465.9,69.3l-42.4,106.1h38.6l36-90l36,90h38.6l-58-144.9c-2.7-6.8-9.3-11.3-16.6-11.3c-2.3,0-4.6,0.5-6.7,1.3
	L367.5,70.1c6.9,9.7,11.6,21,13.3,33.3L465.9,69.3z"/>
<path class="st2" d="M288.1,187.3v276.1h35.9V187.3c-5.7,1.4-11.7,2.2-17.9,2.2S293.8,188.8,288.1,187.3z"/>
</svg>
