<svg width="512" height="512" viewBox="0 0 512 512" fill="none" xmlns="http://www.w3.org/2000/svg">
<path d="M256 16C388.336 16 496 123.664 496 256C496 388.336 388.336 496 256 496C123.664 496 16 388.336 16 256C16 123.664 123.664 16 256 16ZM256 0C114.608 0 0 114.608 0 256C0 397.376 114.608 512 256 512C397.392 512 512 397.376 512 256C512 114.608 397.392 0 256 0Z" fill="#FAC239"/>
<path d="M360.464 207.376L289.216 280.4L289.216 104.16L222.768 104.16L222.768 280.4L151.536 207.376L104.112 253.888L256 409.6L407.888 253.888L360.464 207.376Z" fill="#FAC239"/>
</svg>
