<svg width="512" height="512" viewBox="0 0 512 512" fill="none" xmlns="http://www.w3.org/2000/svg">
<path d="M256 16C388.336 16 496 123.664 496 256C496 388.336 388.336 496 256 496C123.664 496 16 388.336 16 256C16 123.664 123.664 16 256 16ZM256 0C114.608 0 0 114.608 0 256C0 397.376 114.608 512 256 512C397.392 512 512 397.376 512 256C512 114.608 397.392 0 256 0Z" fill="#2BDBB1"/>
<path d="M151.536 306.384L222.784 233.36V409.6H289.232V233.36L360.464 306.384L407.888 259.872L256 104.16L104.112 259.872L151.536 306.384Z" fill="#2BDBB1"/>
</svg>
