<svg width="512" height="512" viewBox="0 0 512 512" fill="none" xmlns="http://www.w3.org/2000/svg">
<path d="M256 16C388.336 16 496 123.664 496 256C496 388.336 388.336 496 256 496C123.664 496 16 388.336 16 256C16 123.664 123.664 16 256 16ZM256 0C114.608 0 0 114.608 0 256C0 397.376 114.608 512 256 512C397.392 512 512 397.376 512 256C512 114.608 397.392 0 256 0Z" fill="#39C0FA"/>
<path d="M254.047 252.438L308.557 305.679L177 305.679L177 355.333L308.557 355.333L254.047 408.562L288.767 444L405 330.5L288.767 217L254.047 252.438Z" fill="#39C0FA"/>
<path d="M241.953 258.562L187.443 205.321L319 205.321L319 155.667L187.443 155.667L241.953 102.438L207.233 67L91 180.5L207.233 294L241.953 258.562Z" fill="#39C0FA"/>
</svg>
