<svg width="93" height="93" viewBox="0 0 93 93" fill="none" xmlns="http://www.w3.org/2000/svg">
<g clip-path="url(#clip0)">
<path d="M46.4 0C20.8 0 0 20.8 0 46.4C0 72 20.8 92.8 46.4 92.8C72 92.8 92.8 72 92.8 46.4C92.8 20.8 72 0 46.4 0ZM59.4 29.3H53.8C51.3 29.3 50.1 30.7 50.1 33.1V39.9H58.8L57.5 48.5H50V71.7H40.9V48.5H33.4V39.9H40.9V32.5C40.9 25.7 45 21.2 53.2 21.2C56.8 21.2 59.3 21.6 59.3 21.6V29.3H59.4Z" fill="#3B5998"/>
<circle cx="46.5" cy="46.5" r="46.5" fill="#A2BBC2"/>
<path d="M24.0625 45.5898C24.0625 44.4648 24.3906 43.5273 25.0469 42.7773C25.7266 42.0273 26.7344 41.6523 28.0703 41.6523C29.4062 41.6523 30.4141 42.0273 31.0938 42.7773C31.7969 43.5273 32.1484 44.4648 32.1484 45.5898C32.1484 46.668 31.7969 47.5703 31.0938 48.2969C30.4141 49.0234 29.4062 49.3867 28.0703 49.3867C26.7344 49.3867 25.7266 49.0234 25.0469 48.2969C24.3906 47.5703 24.0625 46.668 24.0625 45.5898ZM43.0469 45.5898C43.0469 44.4648 43.375 43.5273 44.0312 42.7773C44.7109 42.0273 45.7188 41.6523 47.0547 41.6523C48.3906 41.6523 49.3984 42.0273 50.0781 42.7773C50.7812 43.5273 51.1328 44.4648 51.1328 45.5898C51.1328 46.668 50.7812 47.5703 50.0781 48.2969C49.3984 49.0234 48.3906 49.3867 47.0547 49.3867C45.7188 49.3867 44.7109 49.0234 44.0312 48.2969C43.375 47.5703 43.0469 46.668 43.0469 45.5898ZM62.0312 45.5898C62.0312 44.4648 62.3594 43.5273 63.0156 42.7773C63.6953 42.0273 64.7031 41.6523 66.0391 41.6523C67.375 41.6523 68.3828 42.0273 69.0625 42.7773C69.7656 43.5273 70.1172 44.4648 70.1172 45.5898C70.1172 46.668 69.7656 47.5703 69.0625 48.2969C68.3828 49.0234 67.375 49.3867 66.0391 49.3867C64.7031 49.3867 63.6953 49.0234 63.0156 48.2969C62.3594 47.5703 62.0312 46.668 62.0312 45.5898Z" fill="white"/>
</g>
<defs>
<clipPath id="clip0">
<rect width="92.8" height="92.8" fill="white"/>
</clipPath>
</defs>
</svg>
