<svg width="93" height="93" viewBox="0 0 93 93" fill="none" xmlns="http://www.w3.org/2000/svg">
<g clip-path="url(#clip0)">
<path d="M46.4 0C20.8 0 0 20.8 0 46.4C0 72 20.8 92.8 46.4 92.8C72 92.8 92.8 72 92.8 46.4C92.8 20.8 72 0 46.4 0ZM59.4 29.3H53.8C51.3 29.3 50.1 30.7 50.1 33.1V39.9H58.8L57.5 48.5H50V71.7H40.9V48.5H33.4V39.9H40.9V32.5C40.9 25.7 45 21.2 53.2 21.2C56.8 21.2 59.3 21.6 59.3 21.6V29.3H59.4Z" fill="#3B5998"/>
<circle cx="46.5" cy="46.5" r="46.5" fill="#14B5E8"/>
<path fill-rule="evenodd" clip-rule="evenodd" d="M56.8969 70.6237C57.6483 71.1842 58.6166 71.3244 59.4799 70.9802C60.3433 70.6336 60.9779 69.8567 61.1693 68.9152C63.1969 58.8754 68.1156 33.4636 69.9613 24.3309C70.1013 23.6425 69.8679 22.9272 69.3546 22.4674C68.8413 22.0077 68.1296 21.875 67.4949 22.1233C57.7113 25.9386 27.5809 37.8492 15.2656 42.6504C14.4839 42.9552 13.9753 43.7468 14.0009 44.6146C14.0289 45.4848 14.5843 46.2395 15.3846 46.4927C20.9076 48.2332 28.1573 50.6547 28.1573 50.6547C28.1573 50.6547 31.5453 61.4345 33.3116 66.9166C33.5333 67.6049 34.0443 68.1457 34.7186 68.3326C35.3906 68.517 36.1093 68.3227 36.6109 67.8237C39.4483 65.0015 43.8349 60.638 43.8349 60.638C43.8349 60.638 52.1696 67.0764 56.8969 70.6237V70.6237ZM31.2069 49.2928L35.1246 62.907L35.9949 54.2857C35.9949 54.2857 51.1313 39.9019 59.7599 31.7034C60.0119 31.4625 60.0469 31.0593 59.8369 30.7766C59.6293 30.4939 59.2466 30.4275 58.9596 30.6193C48.9589 37.3477 31.2069 49.2928 31.2069 49.2928Z" fill="white"/>
</g>
<defs>
<clipPath id="clip0">
<rect width="92.8" height="92.8" fill="white"/>
</clipPath>
</defs>
</svg>
