<svg xmlns="http://www.w3.org/2000/svg" width="21.389" height="24.102" viewBox="0 0 21.389 24.102">
  <g id="Group_146" data-name="Group 146" transform="translate(-339.562 -4272.793)">
    <path id="Path_162" data-name="Path 162" d="M359.536,4282.692l-3.89,3.89a6.023,6.023,0,0,1-8.484-8.486l3.889-3.889" fill="none" stroke="#000" stroke-linecap="round" stroke-linejoin="round" stroke-width="1"/>
    <line id="Line_72" data-name="Line 72" x2="8.485" y2="8.485" transform="translate(351.051 4274.207)" fill="none" stroke="#000" stroke-linecap="round" stroke-linejoin="round" stroke-width="1"/>
    <line id="Line_73" data-name="Line 73" y1="2.828" x2="2.828" transform="translate(353.172 4273.5)" fill="none" stroke="#000" stroke-linecap="round" stroke-linejoin="round" stroke-width="1"/>
    <line id="Line_74" data-name="Line 74" y1="2.828" x2="2.828" transform="translate(357.415 4277.742)" fill="none" stroke="#000" stroke-linecap="round" stroke-linejoin="round" stroke-width="1"/>
    <line id="Line_75" data-name="Line 75" x2="5.656" y2="5.657" transform="translate(351.051 4277.035)" fill="none" stroke="#000" stroke-linecap="round" stroke-linejoin="round" stroke-width="1"/>
    <path id="Path_163" data-name="Path 163" d="M351.758,4284.106a1.5,1.5,0,1,1,0-2.121A1.5,1.5,0,0,1,351.758,4284.106Z" fill="none" stroke="#000" stroke-linecap="round" stroke-linejoin="round" stroke-width="1"/>
    <path id="Path_164" data-name="Path 164" d="M348.7,4287.167l-2.244,2.243-2.121-2.121,2.243-2.244" fill="none" stroke="#000" stroke-linecap="round" stroke-linejoin="round" stroke-width="1"/>
    <path id="Path_165" data-name="Path 165" d="M345.394,4288.35l-4.6,4.595a2,2,0,0,0,2.828,2.828l3.182-3.181a1.5,1.5,0,0,1,2.122,2.121l-1.683,1.682" fill="none" stroke="#000" stroke-linecap="round" stroke-linejoin="round" stroke-width="1"/>
  </g>
</svg>
