<svg xmlns="http://www.w3.org/2000/svg" width="20" height="20" viewBox="0 0 20 20">
  <g id="Group_196" data-name="Group 196" transform="translate(-793 -1681)">
    <path id="Path_229" data-name="Path 229" d="M799.05,1693.978H793.5V1691.5h5.537" transform="translate(0 -1.739)" fill="none" stroke="#2d3340" stroke-linecap="round" stroke-linejoin="round" stroke-width="1"/>
    <path id="Path_230" data-name="Path 230" d="M805.978,1697.766v5.563H803.5v-5.563" transform="translate(-1.739 -2.829)" fill="none" stroke="#2d3340" stroke-linecap="round" stroke-linejoin="round" stroke-width="1"/>
    <path id="Path_231" data-name="Path 231" d="M809.763,1691.5h5.563v2.478H809.75" transform="translate(-2.826 -1.739)" fill="none" stroke="#2d3340" stroke-linecap="round" stroke-linejoin="round" stroke-width="1"/>
    <path id="Path_232" data-name="Path 232" d="M803.5,1687.05v-5.55h2.478v5.563" transform="translate(-1.739)" fill="none" stroke="#2d3340" stroke-linecap="round" stroke-linejoin="round" stroke-width="1"/>
    <circle id="Ellipse_31" data-name="Ellipse 31" cx="4.13" cy="4.13" r="4.13" transform="translate(798.87 1686.87)" stroke-width="1" stroke="#2d3340" stroke-linecap="round" stroke-linejoin="round" fill="none"/>
    <path id="Path_233" data-name="Path 233" d="M806.5,1682.607a8.679,8.679,0,0,1,7.346,7.346" transform="translate(-2.261 -0.193)" fill="none" stroke="#2d3340" stroke-linecap="round" stroke-linejoin="round" stroke-width="1"/>
    <path id="Path_234" data-name="Path 234" d="M794.6,1689.953a8.68,8.68,0,0,1,7.348-7.346" transform="translate(-0.192 -0.193)" fill="none" stroke="#2d3340" stroke-linecap="round" stroke-linejoin="round" stroke-width="1"/>
    <path id="Path_235" data-name="Path 235" d="M801.953,1701.847a8.679,8.679,0,0,1-7.348-7.347" transform="translate(-0.192 -2.261)" fill="none" stroke="#2d3340" stroke-linecap="round" stroke-linejoin="round" stroke-width="1"/>
    <path id="Path_236" data-name="Path 236" d="M813.846,1694.5a8.678,8.678,0,0,1-7.346,7.347" transform="translate(-2.261 -2.261)" fill="none" stroke="#2d3340" stroke-linecap="round" stroke-linejoin="round" stroke-width="1"/>
  </g>
</svg>
