<svg xmlns="http://www.w3.org/2000/svg" width="22.443" height="18.721" viewBox="0 0 22.443 18.721">
  <g id="Group_186" data-name="Group 186" transform="translate(0.5 0.5)">
    <path id="Path_220" data-name="Path 220" d="M937.51,387.5H939.9a.467.467,0,0,1,.462.4l1.75,12.255a.467.467,0,0,0,.463.4h13.585a.933.933,0,0,0,0-1.865H944.972a.933.933,0,0,1,0-1.865H957.1a.933.933,0,0,0,0-1.865H944.505a.933.933,0,0,1,0-1.865h13.523a.933.933,0,0,0,0-1.865H943.106" transform="translate(-937.51 -387.5)" fill="none" stroke="#2d3340" stroke-linecap="round" stroke-linejoin="round" stroke-width="1"/>
    <ellipse id="Ellipse_28" data-name="Ellipse 28" cx="1.399" cy="1.399" rx="1.399" ry="1.399" transform="translate(14.923 14.923)" fill="none" stroke="#2d3340" stroke-linejoin="round" stroke-width="1"/>
    <ellipse id="Ellipse_29" data-name="Ellipse 29" cx="1.399" cy="1.399" rx="1.399" ry="1.399" transform="translate(4.663 14.923)" fill="none" stroke="#2d3340" stroke-linejoin="round" stroke-width="1"/>
  </g>
</svg>
