<svg xmlns="http://www.w3.org/2000/svg" xmlns:xlink="http://www.w3.org/1999/xlink" width="292.311" height="95.236" viewBox="0 0 292.311 95.236">
  <defs>
    <linearGradient id="linear-gradient" y1="0.5" x2="1" y2="0.5" gradientUnits="objectBoundingBox">
      <stop offset="0" stop-color="#f79421"/>
      <stop offset="1" stop-color="#fac239"/>
    </linearGradient>
    <linearGradient id="linear-gradient-2" x1="0" y1="0.5" x2="1" y2="0.5" xlink:href="#linear-gradient"/>
    <linearGradient id="linear-gradient-3" x1="0" y1="0.5" x2="1" y2="0.5" xlink:href="#linear-gradient"/>
  </defs>
  <g id="Group_6" data-name="Group 6" transform="translate(0.438)">
    <g id="Group_5" data-name="Group 5" transform="translate(1.25 1.25)">
      <path id="XMLID_35_" d="M88.745,58.829a10.443,10.443,0,0,0,2.875-6.758c.143-4.026-.865-6.328-9.346-6.185V39.7H78.527v6.185H75.659V39.7H71.776v5.893l-7.376.3v4.026h3.356s1.58-.143,1.437,2.3.006,16.1.006,16.1a1.174,1.174,0,0,1-1.158,1.294,28.739,28.739,0,0,1-3.642,0v4.312h7.668V80.26h3.74V74.224h2.875V80.26h3.454V74.074s10.355.286,11.356-5.75S92.771,59.121,88.745,58.829ZM75.372,50.2s9.06-1.724,9.346,3.6-9.346,3.6-9.346,3.6Zm11.07,14.81c0,6.615-11.07,4.742-11.07,4.742V61.684C87.164,60.656,86.442,65.014,86.442,65.014Z" transform="translate(-23.327 -14.692)" fill="url(#linear-gradient)"/>
      <g id="XMLID_26_">
        <line id="XMLID_34_" x1="27.753" y2="12.794" stroke-width="2.5" transform="translate(81.087 30.914)" stroke="#fff" stroke-linecap="round" stroke-linejoin="round" stroke-miterlimit="10" fill="none"/>
        <g id="XMLID_28_">
          <path id="XMLID_33_" d="M43.69,55.578c0-1.437,7.766-28.468,7.766-28.468H90.422L97.18,54,70.741,103.026Z" transform="translate(-16.087 -10.29)" fill="none" stroke="#fff" stroke-linecap="round" stroke-linejoin="round" stroke-miterlimit="10" stroke-width="2.5"/>
          <path id="XMLID_32_" d="M18.362,9.731,35.754,1.25H77.166L93.12,9.731,110.09,32.164,55.9,93.985,1.25,32.021Z" transform="translate(-1.25 -1.25)" fill="none" stroke="#fff" stroke-linecap="round" stroke-linejoin="round" stroke-miterlimit="10" stroke-width="2.5"/>
          <line id="XMLID_31_" x1="18.257" y1="8.338" stroke-width="2.5" transform="translate(17.112 8.481)" stroke="#fff" stroke-linecap="round" stroke-linejoin="round" stroke-miterlimit="10" fill="none"/>
          <line id="XMLID_30_" x1="17.542" y2="8.338" stroke-width="2.5" transform="translate(74.329 8.481)" stroke="#fff" stroke-linecap="round" stroke-linejoin="round" stroke-miterlimit="10" fill="none"/>
          <line id="XMLID_29_" x2="27.603" y2="14.517" stroke-width="2.5" transform="translate(0 30.771)" stroke="#fff" stroke-linecap="round" stroke-linejoin="round" stroke-miterlimit="10" fill="none"/>
        </g>
      </g>
    </g>
    <g id="XMLID_2_" transform="translate(131.169 21.348)">
      <path id="XMLID_15_" d="M224.805,32.16c13.971,0,22.01,6.868,22.01,19.044,0,12.8-8.039,20.215-22.01,20.215h-9.912V86.794H201V32.16h23.805Zm-9.912,28.325h9.21c6.088,0,9.6-3.044,9.6-8.82,0-5.7-3.512-8.585-9.6-8.585h-9.21Z" transform="translate(-201 -32.153)" fill="url(#linear-gradient-2)"/>
      <path id="XMLID_12_" d="M291.624,76.716l-3.981,10.068H273.36L296.931,32.15h14.283l23.024,54.634H319.409l-3.9-10.068Zm12.02-30.751-7.961,20.215h15.766Z" transform="translate(-226.296 -32.15)" fill="url(#linear-gradient-3)"/>
      <path id="XMLID_10_" d="M399.309,86.784H385.495V69.536L365.28,32.15h13.893l13.19,23.805L405.241,32.15h13.893l-19.824,37Z" transform="translate(-258.431 -32.15)" fill="url(#linear-gradient-3)"/>
    </g>
  </g>
</svg>
