<svg width="16" height="15" viewBox="0 0 16 15" fill="none" xmlns="http://www.w3.org/2000/svg">
<path fill-rule="evenodd" clip-rule="evenodd" d="M15.3333 2.5H2.66667H2C1.63267 2.5 1.33333 2.21938 1.33333 1.875C1.33333 1.53062 1.63267 1.25 2 1.25H12V2.5H13.3333V0.625C13.3333 0.28 13.0347 0 12.6667 0H2C0.895333 0 0 0.839375 0 1.875V12.5C0 13.8806 1.194 15 2.66667 15H14.7901C15.3333 15 16 14.2494 16 13.6983V3.125C16 2.78 15.7013 2.5 15.3333 2.5ZM12 10.2273C11.2633 10.2273 10.6667 9.61705 10.6667 8.86364C10.6667 8.11023 11.2633 7.5 12 7.5C12.7367 7.5 13.3333 8.11023 13.3333 8.86364C13.3333 9.61705 12.7367 10.2273 12 10.2273Z" fill="white"/>
</svg>
