<svg id="Group_56" data-name="Group 56" xmlns="http://www.w3.org/2000/svg" width="19" height="19.008" viewBox="0 0 19 19.008">
  <path id="Path_5" data-name="Path 5" d="M15.957,10.674H18.5V8.326H15.957a9.271,9.271,0,0,0-.783-2.285l1.8-1.8L14.759,2.026l-1.8,1.8a9.271,9.271,0,0,0-2.285-.783V.5H8.326V3.043a9.271,9.271,0,0,0-2.285.783l-1.8-1.8L2.026,4.241l1.8,1.8a9.271,9.271,0,0,0-.783,2.285H.5v2.348H3.043a9.271,9.271,0,0,0,.783,2.285l-1.8,1.8,2.215,2.215,1.8-1.8a9.286,9.286,0,0,0,2.285.79v2.543h2.348V15.964a9.271,9.271,0,0,0,2.285-.783l1.8,1.8,2.215-2.215-1.8-1.8A9.442,9.442,0,0,0,15.957,10.674Z" fill="none" stroke="#2d3340" stroke-linecap="round" stroke-linejoin="round" stroke-miterlimit="10" stroke-width="1"/>
  <circle id="Ellipse_5" data-name="Ellipse 5" cx="3.554" cy="3.554" r="3.554" transform="translate(5.946 5.946)" stroke-width="1" stroke="#2d3340" stroke-linecap="round" stroke-linejoin="round" stroke-miterlimit="10" fill="none"/>
</svg>
