<svg id="Group_52" data-name="Group 52" xmlns="http://www.w3.org/2000/svg" width="19.003" height="18.531" viewBox="0 0 19.003 18.531">
  <path id="Path_73" data-name="Path 73" d="M1.126,1.244l10.4,2.6a3.174,3.174,0,0,1,2.278,2.92v9.393a1.776,1.776,0,0,1-2.286,1.808L2.786,15.912A3.118,3.118,0,0,1,.5,13.024V2.848A2.355,2.355,0,0,1,2.848.5H16.155A2.355,2.355,0,0,1,18.5,2.848v8.61a2.355,2.355,0,0,1-2.348,2.348H13.807" fill="none" stroke="#8c8c8c" stroke-linecap="round" stroke-linejoin="round" stroke-miterlimit="10" stroke-width="1"/>
  <line id="Line_20" data-name="Line 20" x2="7.827" transform="translate(7.545 2.848)" fill="none" stroke="#8c8c8c" stroke-linecap="round" stroke-linejoin="round" stroke-miterlimit="10" stroke-width="1"/>
  <circle id="Ellipse_14" data-name="Ellipse 14" cx="1.565" cy="1.565" r="1.565" transform="translate(8.719 9.11)" stroke-width="1" stroke="#8c8c8c" stroke-linecap="round" stroke-linejoin="round" stroke-miterlimit="10" fill="none"/>
  <line id="Line_21" data-name="Line 21" x2="1.565" transform="translate(13.807 6.762)" fill="none" stroke="#8c8c8c" stroke-linecap="round" stroke-linejoin="round" stroke-miterlimit="10" stroke-width="1"/>
</svg>
