<svg width="23" height="24" viewBox="0 0 23 24" fill="none" xmlns="http://www.w3.org/2000/svg">
<path d="M7.00003 15.8144C7.00003 16.6284 7.23462 17.4241 7.67414 18.1008C8.11367 18.7776 8.73834 19.305 9.46924 19.6165C10.2001 19.928 11.0044 20.0096 11.7804 19.8508C12.5563 19.692 13.269 19.3 13.8284 18.7244C14.3878 18.1489 14.7688 17.4156 14.9231 16.6173C15.0775 15.819 14.9983 14.9916 14.6955 14.2396C14.3928 13.4876 13.8801 12.8449 13.2223 12.3927C12.5645 11.9405 11.7911 11.6991 11 11.6991C10.2089 11.6991 9.43549 11.4578 8.77769 11.0056C8.11989 10.5534 7.60725 9.91064 7.3045 9.15866C7.00175 8.40668 6.92251 7.57927 7.07685 6.78097C7.2312 5.98268 7.61217 5.2494 8.17158 4.67386C8.73099 4.09832 9.44372 3.70629 10.2196 3.5475C10.9956 3.38871 11.7999 3.4703 12.5308 3.78178C13.2617 4.09326 13.8863 4.62068 14.3259 5.29745C14.7654 5.97421 15 6.7699 15 7.58383" stroke="black" stroke-linecap="round" stroke-linejoin="round"/>
<path d="M11 1V22.3972" stroke="black" stroke-linecap="round" stroke-linejoin="round"/>
<path d="M18 13.2312C18 13.5735 18.0987 13.9082 18.2836 14.1929C18.4684 14.4775 18.7312 14.6994 19.0386 14.8304C19.346 14.9614 19.6843 14.9957 20.0107 14.9289C20.3371 14.8621 20.6368 14.6972 20.8721 14.4552C21.1074 14.2131 21.2677 13.9047 21.3326 13.5689C21.3975 13.2331 21.3642 12.8851 21.2368 12.5688C21.1095 12.2525 20.8939 11.9821 20.6172 11.7919C20.3405 11.6017 20.0152 11.5002 19.6825 11.5002C19.3497 11.5002 19.0244 11.3987 18.7477 11.2085C18.471 11.0183 18.2554 10.748 18.1281 10.4317C18.0007 10.1154 17.9674 9.76734 18.0323 9.43157C18.0972 9.09579 18.2575 8.78737 18.4928 8.54528C18.7281 8.3032 19.0279 8.13831 19.3542 8.07152C19.6806 8.00473 20.0189 8.03905 20.3263 8.17006C20.6337 8.30107 20.8965 8.52292 21.0814 8.80757C21.2662 9.09223 21.3649 9.42691 21.3649 9.76926" stroke="black" stroke-linecap="round" stroke-linejoin="round"/>
<path d="M19.6824 7V16" stroke="black" stroke-linecap="round" stroke-linejoin="round"/>
<path d="M1.00001 13.2312C1.00001 13.5735 1.09868 13.9082 1.28355 14.1929C1.46843 14.4775 1.73117 14.6994 2.0386 14.8304C2.34603 14.9614 2.68433 14.9957 3.01069 14.9289C3.33706 14.8621 3.63684 14.6972 3.87214 14.4552C4.10743 14.2131 4.26768 13.9047 4.33259 13.5689C4.39751 13.2331 4.36418 12.8851 4.23684 12.5688C4.1095 12.2525 3.89388 11.9821 3.6172 11.7919C3.34052 11.6017 3.01522 11.5002 2.68246 11.5002C2.3497 11.5002 2.0244 11.3987 1.74772 11.2085C1.47104 11.0183 1.25542 10.748 1.12808 10.4317C1.00074 10.1154 0.967408 9.76734 1.03233 9.43157C1.09724 9.09579 1.25749 8.78737 1.49278 8.54528C1.72808 8.3032 2.02786 8.13831 2.35423 8.07152C2.68059 8.00473 3.01889 8.03905 3.32632 8.17006C3.63375 8.30107 3.89649 8.52292 4.08136 8.80757C4.26624 9.09223 4.36491 9.42691 4.36491 9.76926" stroke="black" stroke-linecap="round" stroke-linejoin="round"/>
<path d="M2.68237 7V16" stroke="black" stroke-linecap="round" stroke-linejoin="round"/>
</svg>
