<svg xmlns="http://www.w3.org/2000/svg" width="24" height="24" viewBox="0 0 24 24">
  <g id="Group_144" data-name="Group 144" transform="translate(-793 -1681)">
    <path id="Path_151" data-name="Path 151" d="M800.219,1694.5H793.5v-3h6.7" fill="none" stroke="#000" stroke-linecap="round" stroke-linejoin="round" stroke-width="1"/>
    <path id="Path_152" data-name="Path 152" d="M806.5,1697.766v6.734h-3v-6.734" fill="none" stroke="#000" stroke-linecap="round" stroke-linejoin="round" stroke-width="1"/>
    <path id="Path_153" data-name="Path 153" d="M809.766,1691.5H816.5v3h-6.75" fill="none" stroke="#000" stroke-linecap="round" stroke-linejoin="round" stroke-width="1"/>
    <path id="Path_154" data-name="Path 154" d="M803.5,1688.219V1681.5h3v6.734" fill="none" stroke="#000" stroke-linecap="round" stroke-linejoin="round" stroke-width="1"/>
    <circle id="Ellipse_27" data-name="Ellipse 27" cx="5" cy="5" r="5" transform="translate(800 1688)" stroke-width="1" stroke="#000" stroke-linecap="round" stroke-linejoin="round" fill="none"/>
    <path id="Path_155" data-name="Path 155" d="M806.5,1682.607a10.507,10.507,0,0,1,8.893,8.893" fill="none" stroke="#000" stroke-linecap="round" stroke-linejoin="round" stroke-width="1"/>
    <path id="Path_156" data-name="Path 156" d="M794.6,1691.5a10.508,10.508,0,0,1,8.9-8.893" fill="none" stroke="#000" stroke-linecap="round" stroke-linejoin="round" stroke-width="1"/>
    <path id="Path_157" data-name="Path 157" d="M803.5,1703.394a10.506,10.506,0,0,1-8.9-8.894" fill="none" stroke="#000" stroke-linecap="round" stroke-linejoin="round" stroke-width="1"/>
    <path id="Path_158" data-name="Path 158" d="M815.393,1694.5a10.5,10.5,0,0,1-8.893,8.894" fill="none" stroke="#000" stroke-linecap="round" stroke-linejoin="round" stroke-width="1"/>
  </g>
</svg>
